<?xml version="1.0" encoding="utf-8"?>
<svg viewBox="0 0 16 16" xmlns="http://www.w3.org/2000/svg">
  <path style="line-height: normal; text-indent: 0px; text-align: start; text-decoration-line: none; text-decoration-style: solid; text-decoration-color: rgb(0, 0, 0); text-transform: none; isolation: auto; mix-blend-mode: normal;" d="M 3.031 0.051 C 2.063 0.051 1.268 0.847 1.268 1.815 L 1.268 12.396 C 1.268 13.364 2.063 14.159 3.031 14.159 L 8.322 14.159 L 8.322 12.984 L 3.031 12.984 C 2.701 12.984 2.444 12.727 2.444 12.396 L 2.444 1.815 C 2.444 1.484 2.701 1.227 3.031 1.227 L 11.26 1.227 C 11.591 1.227 11.849 1.484 11.849 1.815 L 11.849 8.281 L 13.024 8.281 L 13.024 1.815 C 13.024 0.847 12.229 0.051 11.26 0.051 L 3.031 0.051 Z M 5.913 3.634 C 5.264 3.634 4.738 4.161 4.738 4.81 C 4.738 5.46 5.264 5.986 5.913 5.986 C 6.562 5.986 7.09 5.46 7.09 4.81 C 7.09 4.161 6.562 3.634 5.913 3.634 Z M 5.913 5.986 C 4.617 5.986 3.561 7.041 3.561 8.337 L 8.264 8.337 C 8.264 7.041 7.21 5.986 5.913 5.986 Z M 9.439 4.81 L 9.439 5.986 L 10.616 5.986 L 10.616 4.81 L 9.439 4.81 Z M 9.439 7.162 L 9.439 8.337 L 10.616 8.337 L 10.616 7.162 L 9.439 7.162 Z M 3.531 1.751 L 3.531 2.925 L 10.585 2.925 L 10.585 1.751 L 3.531 1.751 Z M 11.849 9.457 L 11.849 10.045 L 11.849 12.984 L 9.498 12.984 L 11.849 15.335 L 12.437 15.923 L 13.024 15.335 L 15.376 12.984 L 13.024 12.984 L 13.024 10.045 L 13.024 9.457 L 11.849 9.457 Z M 3.501 9.136 L 3.501 10.311 L 10.554 10.311 L 10.554 9.136 L 3.501 9.136 Z"/>
  <path style="line-height:normal;text-indent:0;text-align:start;text-decoration-line:none;text-decoration-style:solid;text-decoration-color:#000;text-transform:none;block-progression:tb;isolation:auto;mix-blend-mode:normal" d="M 3.526 11.121 L 3.526 12.121 L 10.59 12.121 L 10.59 11.121 L 3.526 11.121 Z"/>
</svg>