<?xml version="1.0" encoding="UTF-8" standalone="no"?>
<!-- Created with Inkscape (http://www.inkscape.org/) -->

<svg
   width="3520"
   height="512"
   viewBox="0 0 931.33317 135.46665"
   version="1.1"
   id="svg1"
   inkscape:version="1.3.2 (091e20ef0f, 2023-11-25)"
   sodipodi:docname="title.svg"
   inkscape:export-filename="title.webp"
   inkscape:export-xdpi="96"
   inkscape:export-ydpi="96"
   xmlns:inkscape="http://www.inkscape.org/namespaces/inkscape"
   xmlns:sodipodi="http://sodipodi.sourceforge.net/DTD/sodipodi-0.dtd"
   xmlns="http://www.w3.org/2000/svg"
   xmlns:svg="http://www.w3.org/2000/svg">
  <sodipodi:namedview
     id="namedview1"
     pagecolor="#ffffff"
     bordercolor="#000000"
     borderopacity="0.25"
     inkscape:showpageshadow="2"
     inkscape:pageopacity="0.0"
     inkscape:pagecheckerboard="true"
     inkscape:deskcolor="#d1d1d1"
     inkscape:document-units="px"
     inkscape:zoom="0.72604515"
     inkscape:cx="736.18011"
     inkscape:cy="225.19261"
     inkscape:window-width="1920"
     inkscape:window-height="1043"
     inkscape:window-x="0"
     inkscape:window-y="37"
     inkscape:window-maximized="1"
     inkscape:current-layer="layer1" />
  <defs
     id="defs1" />
  <g
     inkscape:label="Layer 1"
     inkscape:groupmode="layer"
     id="layer1"
     style="display:inline"
     transform="translate(94.571132,9.6242541)">
    <g
       id="g448"
       inkscape:label="RefreshLess + long shadow"
       transform="matrix(0.96530223,0,0,0.96530223,-7.0282103,-0.48205983)"
       style="display:inline">
      <g
         id="g449"
         inkscape:label="Gap fillers">
        <rect
           style="display:inline;fill:#0076ff;fill-opacity:1;stroke-width:8.22281;stroke-linejoin:bevel;paint-order:markers stroke fill"
           id="rect449"
           width="37.419449"
           height="22.92807"
           x="762.3512"
           y="64.264931" />
        <rect
           style="display:inline;fill:#0076ff;fill-opacity:1;stroke-width:8.22281;stroke-linejoin:bevel;paint-order:markers stroke fill"
           id="rect448"
           width="20.002054"
           height="20.165709"
           x="407.92471"
           y="62.610832" />
      </g>
      <g
         style="font-style:italic;font-weight:bold;font-size:148.312px;font-family:Rubik;-inkscape-font-specification:'Rubik Bold Italic';text-align:center;text-anchor:middle;fill:#0076ff;fill-opacity:1;stroke:#0076ff;stroke-width:12.8566;stroke-linejoin:bevel;paint-order:markers stroke fill"
         id="g447"
         inkscape:label="Long shadow"
         transform="translate(-97.97049,-9.9701978)">
        <path
           d="m 81.3802,16.2777 c 5.7348,0 11.074,0.791 16.0177,2.373 l 10.6071,10.6066 c -4.944,-1.582 -10.2834,-2.373 -16.0182,-2.373 z"
           id="path2" />
        <path
           d="m 97.3979,18.6507 c 4.9441,1.4831 9.0961,3.7078 12.4581,6.674 l 10.607,10.6066 c -3.362,-2.9662 -7.515,-5.1909 -12.458,-6.674 z"
           id="path3" />
        <path
           d="m 109.856,25.3247 c 0.392,0.3461 0.771,0.7022 1.136,1.0685 l 10.607,10.6066 c -0.365,-0.3663 -0.744,-0.7224 -1.136,-1.0685 z"
           id="path4" />
        <path
           d="m 110.992,26.3932 c 2.766,2.773 4.76,6.1247 5.983,10.0549 l 10.607,10.6066 c -1.223,-3.9302 -3.217,-7.2819 -5.983,-10.0549 z"
           id="path5" />
        <path
           d="m 116.975,36.4481 c 1.483,4.4494 1.632,9.5414 0.445,15.2762 l 10.607,10.6066 c 1.186,-5.7348 1.038,-10.8268 -0.445,-15.2762 z"
           id="path6" />
        <path
           d="m 117.42,51.7243 c -1.582,7.4156 -4.4,13.348 -8.454,17.7974 l 10.607,10.6066 c 4.054,-4.4494 6.872,-10.3818 8.454,-17.7974 z"
           id="path7" />
        <path
           d="m 108.966,69.5217 c -4.054,4.3505 -9.1951,7.8111 -15.4242,10.3818 l 10.6062,10.6066 c 6.23,-2.5707 11.371,-6.0313 15.425,-10.3818 z"
           id="path8" />
        <path
           d="m 93.5418,79.9035 10.9752,35.2985 10.607,10.606 -10.976,-35.2979 z"
           id="path9" />
        <path
           d="m 104.517,115.202 c 0.099,0.494 0.099,1.038 0,1.631 l 10.607,10.607 c 0.098,-0.593 0.098,-1.137 0,-1.632 z"
           id="path10" />
        <path
           d="m 104.517,116.833 c -0.198,0.89 -0.692,1.681 -1.483,2.373 l 10.606,10.607 c 0.791,-0.692 1.286,-1.483 1.484,-2.373 z"
           id="path11" />
        <path
           d="m 103.034,119.206 c -0.692,0.593 -1.483,0.89 -2.373,0.89 l 10.606,10.607 c 0.89,0 1.681,-0.297 2.373,-0.89 z"
           id="path12" />
        <path
           d="M 100.661,120.096 H 81.9735 l 10.6066,10.607 h 18.6869 z"
           id="path13" />
        <path
           d="m 81.9735,120.096 c -1.799,0 -3.0661,-0.368 -3.8013,-1.105 l 10.6066,10.607 c 0.7352,0.736 2.0023,1.105 3.8013,1.105 z"
           id="path14" />
        <path
           d="m 78.1722,118.991 c -0.0729,-0.073 -0.1406,-0.149 -0.2031,-0.23 l 10.6066,10.607 c 0.0625,0.08 0.1302,0.157 0.2031,0.23 z"
           id="path15" />
        <path
           d="m 77.9691,118.761 c -0.6922,-0.89 -1.1865,-1.779 -1.4832,-2.669 l 10.6066,10.606 c 0.2967,0.89 0.791,1.78 1.4832,2.67 z"
           id="path16" />
        <path
           d="M 76.4859,116.092 66.8457,84.3529 77.4523,94.9595 87.0925,126.698 Z"
           id="path17" />
        <path
           d="M 66.8457,84.3529 H 51.7178 l 10.6066,10.6066 h 15.1279 z"
           id="path18" />
        <path
           d="m 51.7178,84.3529 -6.8223,31.7391 10.6066,10.606 6.8223,-31.7385 z"
           id="path19" />
        <path
           d="m 44.8955,116.092 c -0.1978,1.087 -0.791,2.027 -1.7798,2.818 l 10.6067,10.606 c 0.9887,-0.791 1.5819,-1.73 1.7797,-2.818 z"
           id="path20" />
        <path
           d="m 43.1157,118.91 c -0.8898,0.791 -1.8786,1.186 -2.9662,1.186 l 10.6066,10.607 c 1.0876,0 2.0764,-0.396 2.9663,-1.187 z"
           id="path21" />
        <path
           d="M 40.1495,120.096 H 20.7206 l 10.6066,10.607 h 19.4289 z"
           id="path22" />
        <path
           d="m 20.7206,120.096 c -0.9969,0 -1.8278,-0.332 -2.4924,-0.997 l 10.6066,10.607 c 0.6646,0.664 1.4955,0.997 2.4924,0.997 z"
           id="path23" />
        <path
           d="m 18.2282,119.099 c -0.0605,-0.06 -0.1195,-0.123 -0.1772,-0.189 l 10.6066,10.606 c 0.0577,0.066 0.1168,0.129 0.1772,0.19 z"
           id="path24" />
        <path
           d="m 18.051,118.91 c -0.5932,-0.791 -0.791,-1.731 -0.5932,-2.818 l 10.6066,10.606 c -0.1978,1.088 0,2.027 0.5932,2.818 z"
           id="path25" />
        <path
           d="M 17.4578,116.092 37.9248,20.2821 48.5314,30.8887 28.0644,126.698 Z"
           id="path26" />
        <path
           d="m 37.9248,20.2821 c 0.1978,-1.0876 0.7416,-2.0269 1.6315,-2.8179 l 10.6066,10.6066 c -0.8899,0.791 -1.4337,1.7303 -1.6315,2.8179 z"
           id="path27" />
        <path
           d="m 39.5563,17.4642 c 0.9887,-0.791 2.0269,-1.1865 3.1145,-1.1865 l 10.6066,10.6066 c -1.0876,0 -2.1258,0.3955 -3.1145,1.1865 z"
           id="path28" />
        <path
           d="M 42.6708,16.2777 H 81.3802 L 91.9868,26.8843 H 53.2774 Z"
           id="path29" />
        <path
           d="M 56.6121,61.2162 H 73.3714 L 83.978,71.8228 H 67.2187 Z"
           id="path30" />
        <path
           d="m 73.3714,61.2162 c 4.1527,0 7.7617,-0.791 10.8268,-2.373 l 10.6066,10.6066 c -3.0651,1.582 -6.6741,2.373 -10.8268,2.373 z"
           id="path31" />
        <path
           d="m 84.1982,58.8432 c 3.0651,-1.582 5.0426,-4.4493 5.9325,-8.6021 l 10.6063,10.6066 c -0.8896,4.1528 -2.8671,7.0201 -5.9322,8.6021 z"
           id="path32" />
        <path
           d="m 90.1307,50.2411 c 0.6811,-3.5759 0.1892,-6.1988 -1.4758,-7.8685 l 10.6066,10.6066 c 1.6645,1.6697 2.1565,4.2926 1.4755,7.8685 z"
           id="path33" />
        <path
           d="M 88.6549,42.3726 C 88.3863,42.1033 88.0872,41.8588 87.7577,41.639 l 10.6066,10.6066 c 0.3295,0.2198 0.6286,0.4643 0.8972,0.7336 z"
           id="path34" />
        <path
           d="m 87.7577,41.639 c -2.373,-1.5819 -5.6359,-2.3729 -9.7886,-2.3729 l 10.6066,10.6066 c 4.1527,0 7.4156,0.791 9.7886,2.3729 z"
           id="path35" />
        <path
           d="M 77.9691,39.2661 H 61.2098 l 10.6066,10.6066 h 16.7593 z"
           id="path36" />
        <path
           d="M 61.2098,39.2661 56.6121,61.2162 67.2187,71.8228 71.8164,49.8727 Z"
           id="path37" />
        <path
           d="m 146.193,89.9888 c -0.495,2.2741 -0.495,4.1527 0,5.6358 l 10.606,10.6064 c -0.494,-1.483 -0.494,-3.362 0,-5.636 z"
           id="path38" />
        <path
           d="m 146.193,95.6246 c 0.412,1.2359 1.03,2.2659 1.854,3.0898 l 10.606,10.6066 c -0.824,-0.824 -1.442,-1.854 -1.854,-3.09 z"
           id="path39" />
        <path
           d="m 148.047,98.7144 c 0.164,0.1648 0.337,0.3214 0.519,0.4697 l 10.606,10.6069 c -0.181,-0.149 -0.354,-0.305 -0.519,-0.47 z"
           id="path40" />
        <path
           d="m 148.566,99.1841 c 1.186,0.8899 2.521,1.5329 4.004,1.9279 l 10.607,10.607 c -1.483,-0.396 -2.818,-1.038 -4.005,-1.928 z"
           id="path41" />
        <path
           d="m 152.57,101.112 c 1.483,0.297 2.966,0.445 4.449,0.445 l 10.607,10.607 c -1.483,0 -2.966,-0.149 -4.449,-0.445 z"
           id="path42" />
        <path
           d="m 157.019,101.557 c 2.967,0 5.389,-0.297 7.268,-0.89 l 10.606,10.607 c -1.878,0.593 -4.301,0.89 -7.267,0.89 z"
           id="path43" />
        <path
           d="m 164.287,100.667 c 1.878,-0.593 3.51,-1.4335 4.894,-2.5211 l 10.607,10.6071 c -1.385,1.087 -3.016,1.928 -4.895,2.521 z"
           id="path44" />
        <path
           d="m 169.181,98.1459 c 1.285,-0.8899 2.175,-1.4337 2.67,-1.6314 l 10.606,10.6065 c -0.494,0.198 -1.384,0.742 -2.669,1.632 z"
           id="path45" />
        <path
           d="m 171.851,96.5145 c 0.593,-0.2966 1.483,-0.445 2.669,-0.445 l 10.607,10.6065 c -1.187,0 -2.076,0.148 -2.67,0.445 z"
           id="path46" />
        <path
           d="m 174.52,96.0695 h 19.281 l 10.606,10.6065 h -19.28 z"
           id="path47" />
        <path
           d="m 193.801,96.0695 c 0.974,0 1.681,0.2183 2.119,0.6547 l 10.607,10.6068 c -0.439,-0.437 -1.145,-0.655 -2.12,-0.655 z"
           id="path48" />
        <path
           d="m 195.92,96.7242 c 0.541,0.5379 0.675,1.4073 0.402,2.6082 l 10.607,10.6066 c 0.273,-1.201 0.139,-2.07 -0.402,-2.608 z"
           id="path49" />
        <path
           d="m 196.322,99.3324 c -0.198,1.1866 -1.087,3.0156 -2.669,5.4876 l 10.606,10.607 c 1.582,-2.472 2.472,-4.301 2.67,-5.488 z"
           id="path50" />
        <path
           d="m 193.653,104.82 c -1.582,2.373 -4.054,4.845 -7.416,7.416 l 10.607,10.606 c 3.361,-2.571 5.833,-5.042 7.415,-7.415 z"
           id="path51" />
        <path
           d="m 186.237,112.236 c -3.263,2.471 -7.515,4.647 -12.755,6.525 l 10.607,10.607 c 5.24,-1.879 9.492,-4.054 12.755,-6.526 z"
           id="path52" />
        <path
           d="m 173.482,118.761 c -5.24,1.879 -11.667,2.818 -19.28,2.818 l 10.606,10.607 c 7.614,0 14.04,-0.939 19.281,-2.818 z"
           id="path53" />
        <path
           d="m 154.202,121.579 c -5.735,0 -10.926,-0.989 -15.573,-2.966 l 10.606,10.607 c 4.648,1.977 9.838,2.966 15.573,2.966 z"
           id="path54" />
        <path
           d="m 138.629,118.613 c -3.696,-1.687 -6.869,-3.864 -9.52,-6.53 l 10.607,10.607 c 2.651,2.666 5.824,4.843 9.519,6.53 z"
           id="path55" />
        <path
           d="m 129.109,112.083 c -0.612,-0.615 -1.196,-1.256 -1.752,-1.924 l 10.607,10.607 c 0.556,0.667 1.14,1.309 1.752,1.924 z"
           id="path56" />
        <path
           d="m 127.357,110.159 c -2.966,-3.658 -5.043,-8.009 -6.229,-13.0513 l 10.607,10.6063 c 1.186,5.043 3.262,9.393 6.229,13.052 z"
           id="path57" />
        <path
           d="m 121.128,97.1077 c -1.088,-5.1414 -0.939,-10.8267 0.445,-17.0558 l 10.607,10.6066 c -1.385,6.2291 -1.533,11.9145 -0.445,17.0555 z"
           id="path58" />
        <path
           d="m 121.573,80.0519 c 1.186,-5.7348 3.016,-10.9751 5.487,-15.7211 l 10.607,10.6066 c -2.472,4.746 -4.301,9.9863 -5.487,15.7211 z"
           id="path59" />
        <path
           d="m 127.06,64.3308 c 2.472,-4.746 5.636,-8.7999 9.492,-12.1616 l 10.607,10.6066 c -3.856,3.3617 -7.02,7.4156 -9.492,12.1616 z"
           id="path60" />
        <path
           d="m 136.552,52.1692 c 3.857,-3.4606 8.405,-6.0808 13.645,-7.8605 l 10.607,10.6066 c -5.241,1.7797 -9.789,4.3999 -13.645,7.8605 z"
           id="path61" />
        <path
           d="m 150.197,44.3087 c 5.24,-1.8787 11.272,-2.818 18.094,-2.818 l 10.607,10.6066 c -6.823,0 -12.854,0.9393 -18.094,2.818 z"
           id="path62" />
        <path
           d="m 168.291,41.4907 c 6.526,0 12.063,1.236 16.611,3.7078 l 10.607,10.6066 c -4.548,-2.4718 -10.085,-3.7078 -16.611,-3.7078 z"
           id="path63" />
        <path
           d="m 184.902,45.1985 c 3.163,1.615 5.89,3.5734 8.183,5.8753 l 10.606,10.6066 c -2.292,-2.3019 -5.02,-4.2603 -8.182,-5.8753 z"
           id="path64" />
        <path
           d="m 193.085,51.0738 c 1.076,1.0804 2.056,2.2366 2.941,3.4684 l 10.606,10.6066 c -0.884,-1.2318 -1.864,-2.388 -2.941,-3.4684 z"
           id="path65" />
        <path
           d="m 196.026,54.5422 c 2.768,3.8561 4.548,8.2066 5.339,13.0514 l 10.606,10.6066 c -0.791,-4.8448 -2.57,-9.1953 -5.339,-13.0514 z"
           id="path66" />
        <path
           d="m 201.365,67.5936 c 0.89,4.746 0.84,9.492 -0.149,14.238 l 10.607,10.6066 c 0.989,-4.746 1.038,-9.492 0.148,-14.238 z"
           id="path67" />
        <path
           d="m 201.216,81.8316 -0.889,4.1527 10.606,10.6066 0.89,-4.1527 z"
           id="path68" />
        <path
           d="m 200.327,85.9843 c -0.198,1.0877 -0.791,2.027 -1.78,2.818 l 10.606,10.6066 c 0.989,-0.791 1.582,-1.7303 1.78,-2.818 z"
           id="path69" />
        <path
           d="m 198.547,88.8023 c -0.89,0.791 -1.879,1.1865 -2.966,1.1865 l 10.606,10.6062 c 1.088,0 2.077,-0.395 2.966,-1.1861 z"
           id="path70" />
        <path
           d="m 195.581,89.9888 h -49.388 l 10.606,10.6062 h 49.388 z"
           id="path71" />
        <path
           d="m 165.473,61.5129 c -4.152,0 -7.564,1.2359 -10.233,3.7078 l 10.606,10.6066 c 2.67,-2.4719 6.081,-3.7078 10.234,-3.7078 z"
           id="path72" />
        <path
           d="m 155.24,65.2207 c -2.67,2.4718 -4.549,5.2403 -5.636,8.3054 l 10.606,10.6066 c 1.088,-3.0651 2.967,-5.8336 5.636,-8.3054 z"
           id="path73" />
        <path
           d="M 149.604,73.5261 H 176.3 l 10.607,10.6066 H 160.21 Z"
           id="path74" />
        <path
           d="m 176.3,73.5261 c 0.297,-3.0651 -0.445,-5.8336 -2.225,-8.3054 l 10.607,10.6066 c 1.78,2.4718 2.521,5.2403 2.225,8.3054 z"
           id="path75" />
        <path
           d="m 174.075,65.2207 c -0.28,-0.412 -0.593,-0.7897 -0.939,-1.133 l 10.607,10.6066 c 0.346,0.3433 0.659,0.721 0.939,1.133 z"
           id="path76" />
        <path
           d="m 173.136,64.0877 c -1.73,-1.7166 -4.285,-2.5748 -7.663,-2.5748 l 10.607,10.6066 c 3.378,0 5.932,0.8582 7.663,2.5748 z"
           id="path77" />
        <path
           d="m 165.473,61.5129 v 0 l 10.607,10.6066 v 0 z"
           id="path78" />
        <path
           d="m 257.13,42.9739 h 18.242 l 10.607,10.6066 h -18.242 z"
           id="path79" />
        <path
           d="m 275.372,42.9739 c 0.92,0 1.664,0.283 2.23,0.8492 l 10.607,10.6066 c -0.567,-0.5662 -1.31,-0.8492 -2.23,-0.8492 z"
           id="path80" />
        <path
           d="m 277.602,43.8231 c 0.103,0.103 0.2,0.2154 0.292,0.3373 L 288.5,54.767 c -0.091,-0.1219 -0.188,-0.2343 -0.291,-0.3373 z"
           id="path81" />
        <path
           d="m 277.894,44.1604 c 0.593,0.7909 0.791,1.7303 0.593,2.8179 l 10.607,10.6066 c 0.197,-1.0876 0,-2.027 -0.594,-2.8179 z"
           id="path82" />
        <path
           d="m 278.487,46.9783 -3.115,14.9795 10.607,10.6066 3.115,-14.9795 z"
           id="path83" />
        <path
           d="m 275.372,61.9578 c -0.197,1.0876 -0.791,2.0269 -1.779,2.8179 l 10.606,10.6066 c 0.989,-0.791 1.582,-1.7303 1.78,-2.8179 z"
           id="path84" />
        <path
           d="m 273.593,64.7757 c -0.989,0.791 -2.027,1.1865 -3.115,1.1865 l 10.607,10.6066 c 1.087,0 2.125,-0.3955 3.114,-1.1865 z"
           id="path85" />
        <path
           d="m 270.478,65.9622 h -18.242 l 10.606,10.6066 h 18.243 z"
           id="path86" />
        <path
           d="m 252.236,65.9622 -10.679,50.1298 10.607,10.606 10.678,-50.1292 z"
           id="path87" />
        <path
           d="m 241.557,116.092 c -0.198,1.087 -0.791,2.027 -1.78,2.818 l 10.607,10.606 c 0.989,-0.791 1.582,-1.73 1.78,-2.818 z"
           id="path88" />
        <path
           d="m 239.777,118.91 c -0.889,0.791 -1.878,1.186 -2.966,1.186 l 10.607,10.607 c 1.087,0 2.076,-0.396 2.966,-1.187 z"
           id="path89" />
        <path
           d="m 236.811,120.096 h -18.687 l 10.607,10.607 h 18.687 z"
           id="path90" />
        <path
           d="m 218.124,120.096 c -0.997,0 -1.828,-0.332 -2.493,-0.997 l 10.607,10.607 c 0.665,0.664 1.496,0.997 2.493,0.997 z"
           id="path91" />
        <path
           d="m 215.631,119.099 c -0.06,-0.06 -0.119,-0.123 -0.177,-0.189 l 10.607,10.606 c 0.058,0.066 0.117,0.129 0.177,0.19 z"
           id="path92" />
        <path
           d="m 215.454,118.91 c -0.593,-0.791 -0.791,-1.731 -0.593,-2.818 l 10.607,10.606 c -0.198,1.088 0,2.027 0.593,2.818 z"
           id="path93" />
        <path
           d="M 214.861,116.092 225.54,65.9622 236.146,76.5688 225.468,126.698 Z"
           id="path94" />
        <path
           d="m 225.54,65.9622 h -10.234 l 10.607,10.6066 h 10.233 z"
           id="path95" />
        <path
           d="m 215.306,65.9622 c -0.921,0 -1.664,-0.2833 -2.23,-0.8499 l 10.606,10.6066 c 0.567,0.5666 1.31,0.8499 2.231,0.8499 z"
           id="path96" />
        <path
           d="m 213.076,65.1123 c -0.103,-0.1029 -0.2,-0.215 -0.291,-0.3366 l 10.606,10.6066 c 0.091,0.1216 0.188,0.2338 0.291,0.3366 z"
           id="path97" />
        <path
           d="m 212.785,64.7757 c -0.594,-0.791 -0.791,-1.7303 -0.594,-2.8179 l 10.607,10.6066 c -0.198,1.0876 0,2.0269 0.593,2.8179 z"
           id="path98" />
        <path
           d="m 212.191,61.9578 3.115,-14.9795 10.607,10.6066 -3.115,14.9795 z"
           id="path99" />
        <path
           d="m 215.306,46.9783 c 0.198,-1.0876 0.791,-2.027 1.78,-2.8179 l 10.606,10.6066 c -0.988,0.7909 -1.582,1.7303 -1.779,2.8179 z"
           id="path100" />
        <path
           d="m 217.086,44.1604 c 0.988,-0.791 2.027,-1.1865 3.114,-1.1865 l 10.607,10.6066 c -1.088,0 -2.126,0.3955 -3.115,1.1865 z"
           id="path101" />
        <path
           d="m 220.2,42.9739 h 10.234 l 10.606,10.6066 h -10.233 z"
           id="path102" />
        <path
           d="m 230.434,42.9739 0.89,-4.0045 10.606,10.6066 -0.89,4.0045 z"
           id="path103" />
        <path
           d="m 231.324,38.9694 c 1.977,-9.1953 5.932,-16.2649 11.865,-21.2086 l 10.606,10.6066 c -5.932,4.9437 -9.887,12.0133 -11.865,21.2086 z"
           id="path104" />
        <path
           d="m 243.189,17.7608 c 5.932,-4.9437 14.287,-7.4156 25.064,-7.4156 l 10.607,10.6066 c -10.777,0 -19.132,2.4719 -25.065,7.4156 z"
           id="path105" />
        <path
           d="m 268.253,10.3452 h 15.573 l 10.607,10.6066 H 278.86 Z"
           id="path106" />
        <path
           d="m 283.826,10.3452 c 0.921,0 1.664,0.2833 2.23,0.8499 l 10.607,10.6066 c -0.566,-0.5666 -1.31,-0.8499 -2.23,-0.8499 z"
           id="path107" />
        <path
           d="m 286.056,11.1951 c 0.103,0.1029 0.2,0.2151 0.291,0.3366 l 10.607,10.6066 c -0.091,-0.1215 -0.188,-0.2337 -0.291,-0.3366 z"
           id="path108" />
        <path
           d="m 286.347,11.5317 c 0.594,0.791 0.791,1.7303 0.594,2.8179 l 10.606,10.6066 c 0.198,-1.0876 0,-2.0269 -0.593,-2.8179 z"
           id="path109" />
        <path
           d="m 286.941,14.3496 -3.115,14.9795 10.607,10.6067 3.114,-14.9796 z"
           id="path110" />
        <path
           d="m 283.826,29.3291 c -0.296,1.0877 -0.939,2.027 -1.928,2.818 l 10.607,10.6066 c 0.988,-0.791 1.631,-1.7303 1.928,-2.8179 z"
           id="path111" />
        <path
           d="m 281.898,32.1471 c -0.89,0.791 -1.879,1.1865 -2.966,1.1865 l 10.606,10.6066 c 1.088,0 2.077,-0.3955 2.967,-1.1865 z"
           id="path112" />
        <path
           d="m 278.932,33.3336 h -13.348 l 10.606,10.6066 h 13.348 z"
           id="path113" />
        <path
           d="m 265.584,33.3336 c -2.373,0 -4.153,0.5932 -5.339,1.7797 l 10.606,10.6066 c 1.187,-1.1865 2.966,-1.7797 5.339,-1.7797 z"
           id="path114" />
        <path
           d="m 260.245,35.1133 c -1.187,1.1865 -1.978,2.7191 -2.373,4.5977 l 10.606,10.6066 c 0.396,-1.8786 1.187,-3.4112 2.373,-4.5977 z"
           id="path115" />
        <path
           d="m 257.872,39.711 -0.742,3.2629 10.607,10.6066 0.741,-3.2629 z"
           id="path116" />
        <path
           d="m 343.744,42.9739 c 0.921,0 1.664,0.2832 2.23,0.8496 l 10.607,10.6066 c -0.567,-0.5664 -1.31,-0.8496 -2.23,-0.8496 z"
           id="path117" />
        <path
           d="m 345.974,43.8235 c 0.103,0.1029 0.2,0.2152 0.291,0.3369 l 10.607,10.6066 c -0.091,-0.1217 -0.188,-0.234 -0.291,-0.3369 z"
           id="path118" />
        <path
           d="m 346.265,44.1604 c 0.594,0.7909 0.791,1.7303 0.594,2.8179 l 10.606,10.6066 c 0.198,-1.0876 0,-2.027 -0.593,-2.8179 z"
           id="path119" />
        <path
           d="m 346.859,46.9783 -3.115,14.9795 10.607,10.6066 3.114,-14.9795 z"
           id="path120" />
        <path
           d="m 343.744,61.9578 c -0.198,1.0876 -0.791,2.0269 -1.78,2.8179 l 10.607,10.6066 c 0.989,-0.791 1.582,-1.7303 1.78,-2.8179 z"
           id="path121" />
        <path
           d="m 341.964,64.7757 c -0.988,0.791 -2.027,1.1865 -3.114,1.1865 l 10.606,10.6066 c 1.088,0 2.126,-0.3955 3.115,-1.1865 z"
           id="path122" />
        <path
           d="m 338.85,65.9622 h -13.497 l 10.607,10.6066 h 13.496 z"
           id="path123" />
        <path
           d="m 325.353,65.9622 c -4.449,0 -8.107,1.1865 -10.975,3.5595 l 10.607,10.6066 c 2.867,-2.373 6.526,-3.5595 10.975,-3.5595 z"
           id="path124" />
        <path
           d="m 314.378,69.5217 c -2.768,2.2741 -4.597,5.6359 -5.487,10.0852 l 10.606,10.6066 c 0.89,-4.4493 2.72,-7.8111 5.488,-10.0852 z"
           id="path125" />
        <path
           d="m 308.891,79.6069 -7.861,36.4851 10.607,10.606 7.86,-36.4845 z"
           id="path126" />
        <path
           d="m 301.03,116.092 c -0.197,1.087 -0.791,2.027 -1.779,2.818 l 10.606,10.606 c 0.989,-0.791 1.582,-1.73 1.78,-2.818 z"
           id="path127" />
        <path
           d="m 299.251,118.91 c -0.89,0.791 -1.879,1.186 -2.967,1.186 l 10.607,10.607 c 1.088,0 2.076,-0.396 2.966,-1.187 z"
           id="path128" />
        <path
           d="m 296.284,120.096 h -18.687 l 10.607,10.607 h 18.687 z"
           id="path129" />
        <path
           d="m 277.597,120.096 c -0.997,0 -1.828,-0.332 -2.492,-0.997 l 10.606,10.607 c 0.665,0.664 1.496,0.997 2.493,0.997 z"
           id="path130" />
        <path
           d="m 275.105,119.099 c -0.061,-0.06 -0.12,-0.123 -0.178,-0.189 l 10.607,10.606 c 0.058,0.066 0.117,0.129 0.177,0.19 z"
           id="path131" />
        <path
           d="m 274.927,118.91 c -0.593,-0.791 -0.791,-1.731 -0.593,-2.818 l 10.607,10.606 c -0.198,1.088 0,2.027 0.593,2.818 z"
           id="path132" />
        <path
           d="m 274.334,116.092 14.683,-69.1137 10.607,10.6066 -14.683,69.1131 z"
           id="path133" />
        <path
           d="m 289.017,46.9783 c 0.198,-1.0876 0.791,-2.027 1.78,-2.8179 l 10.606,10.6066 c -0.988,0.7909 -1.582,1.7303 -1.779,2.8179 z"
           id="path134" />
        <path
           d="m 290.797,44.1604 c 0.989,-0.791 2.027,-1.1865 3.114,-1.1865 l 10.607,10.6066 c -1.088,0 -2.126,0.3955 -3.115,1.1865 z"
           id="path135" />
        <path
           d="m 293.911,42.9739 h 17.205 l 10.606,10.6066 h -17.204 z"
           id="path136" />
        <path
           d="m 311.116,42.9739 c 0.92,0 1.664,0.2835 2.231,0.8506 l 10.606,10.6066 c -0.566,-0.5671 -1.31,-0.8506 -2.231,-0.8506 z"
           id="path137" />
        <path
           d="m 313.347,43.8245 c 0.102,0.1027 0.199,0.2146 0.29,0.3359 l 10.606,10.6066 c -0.09,-0.1213 -0.187,-0.2332 -0.29,-0.3359 z"
           id="path138" />
        <path
           d="m 313.637,44.1604 c 0.593,0.7909 0.791,1.7303 0.593,2.8179 l 10.607,10.6066 c 0.197,-1.0876 0,-2.027 -0.594,-2.8179 z"
           id="path139" />
        <path
           d="m 314.23,46.9783 -0.741,3.4112 10.606,10.6066 0.742,-3.4112 z"
           id="path140" />
        <path
           d="m 313.489,50.3895 c 2.274,-2.2742 4.844,-4.0539 7.712,-5.3393 l 10.606,10.6066 c -2.867,1.2854 -5.438,3.0651 -7.712,5.3393 z"
           id="path141" />
        <path
           d="m 321.201,45.0502 c 2.966,-1.3842 7.02,-2.0763 12.161,-2.0763 l 10.607,10.6066 c -5.142,0 -9.195,0.6921 -12.162,2.0763 z"
           id="path142" />
        <path
           d="m 333.362,42.9739 h 10.382 l 10.607,10.6066 h -10.382 z"
           id="path143" />
        <path
           d="m 371.034,89.9888 c -0.495,2.2741 -0.495,4.1527 0,5.6358 l 10.606,10.6064 c -0.494,-1.483 -0.494,-3.362 0,-5.636 z"
           id="path144" />
        <path
           d="m 371.034,95.6246 c 0.411,1.2359 1.029,2.2659 1.853,3.0898 l 10.607,10.6066 c -0.824,-0.824 -1.442,-1.854 -1.854,-3.09 z"
           id="path145" />
        <path
           d="m 372.887,98.7144 c 0.165,0.1648 0.338,0.3214 0.52,0.4697 l 10.606,10.6069 c -0.181,-0.149 -0.354,-0.305 -0.519,-0.47 z"
           id="path146" />
        <path
           d="m 373.407,99.1841 c 1.186,0.8899 2.521,1.5329 4.004,1.9279 l 10.607,10.607 c -1.484,-0.396 -2.818,-1.038 -4.005,-1.928 z"
           id="path147" />
        <path
           d="m 377.411,101.112 c 1.483,0.297 2.966,0.445 4.449,0.445 l 10.607,10.607 c -1.483,0 -2.966,-0.149 -4.449,-0.445 z"
           id="path148" />
        <path
           d="m 381.86,101.557 c 2.967,0 5.389,-0.297 7.268,-0.89 l 10.606,10.607 c -1.878,0.593 -4.301,0.89 -7.267,0.89 z"
           id="path149" />
        <path
           d="m 389.128,100.667 c 1.878,-0.593 3.51,-1.4335 4.894,-2.5211 l 10.606,10.6071 c -1.384,1.087 -3.015,1.928 -4.894,2.521 z"
           id="path150" />
        <path
           d="m 394.022,98.1459 c 1.285,-0.8899 2.175,-1.4337 2.669,-1.6314 l 10.607,10.6065 c -0.494,0.198 -1.384,0.742 -2.67,1.632 z"
           id="path151" />
        <path
           d="m 396.691,96.5145 c 0.594,-0.2966 1.484,-0.445 2.67,-0.445 l 10.607,10.6065 c -1.187,0 -2.077,0.148 -2.67,0.445 z"
           id="path152" />
        <path
           d="m 399.361,96.0695 h 19.281 l 10.606,10.6065 h -19.28 z"
           id="path153" />
        <path
           d="m 418.642,96.0695 c 0.975,0 1.683,0.2189 2.121,0.6567 l 10.607,10.6068 c -0.439,-0.438 -1.146,-0.657 -2.122,-0.657 z"
           id="path154" />
        <path
           d="m 420.763,96.7262 c 0.539,0.5381 0.673,1.4068 0.4,2.6062 l 10.607,10.6066 c 0.272,-1.199 0.139,-2.068 -0.4,-2.606 z"
           id="path155" />
        <path
           d="m 421.163,99.3324 c -0.198,1.1866 -1.088,3.0156 -2.67,5.4876 l 10.607,10.607 c 1.582,-2.472 2.472,-4.301 2.67,-5.488 z"
           id="path156" />
        <path
           d="m 418.493,104.82 c -1.582,2.373 -4.054,4.845 -7.415,7.416 l 10.606,10.606 c 3.362,-2.571 5.834,-5.042 7.416,-7.415 z"
           id="path157" />
        <path
           d="m 411.078,112.236 c -3.263,2.471 -7.515,4.647 -12.755,6.525 l 10.607,10.607 c 5.24,-1.879 9.491,-4.054 12.754,-6.526 z"
           id="path158" />
        <path
           d="m 398.323,118.761 c -5.24,1.879 -11.667,2.818 -19.281,2.818 l 10.607,10.607 c 7.613,0 14.04,-0.939 19.281,-2.818 z"
           id="path159" />
        <path
           d="m 379.042,121.579 c -5.734,0 -10.925,-0.989 -15.572,-2.966 l 10.606,10.607 c 4.647,1.977 9.838,2.966 15.573,2.966 z"
           id="path160" />
        <path
           d="m 363.47,118.613 c -3.672,-1.676 -6.828,-3.836 -9.469,-6.479 l 10.606,10.607 c 2.641,2.643 5.797,4.802 9.469,6.479 z"
           id="path161" />
        <path
           d="m 354.001,112.134 c -0.631,-0.63 -1.232,-1.289 -1.803,-1.975 l 10.606,10.607 c 0.572,0.686 1.173,1.344 1.803,1.975 z"
           id="path162" />
        <path
           d="m 352.198,110.159 c -2.966,-3.658 -5.043,-8.009 -6.229,-13.0513 l 10.606,10.6063 c 1.187,5.043 3.263,9.393 6.229,13.052 z"
           id="path163" />
        <path
           d="m 345.969,97.1077 c -1.088,-5.1414 -0.94,-10.8267 0.445,-17.0558 l 10.606,10.6066 c -1.384,6.2291 -1.532,11.9145 -0.445,17.0555 z"
           id="path164" />
        <path
           d="m 346.414,80.0519 c 1.186,-5.7348 3.015,-10.9751 5.487,-15.7211 l 10.607,10.6066 c -2.472,4.746 -4.301,9.9863 -5.488,15.7211 z"
           id="path165" />
        <path
           d="m 351.901,64.3308 c 2.472,-4.746 5.636,-8.7999 9.492,-12.1616 L 372,62.7758 c -3.856,3.3617 -7.02,7.4156 -9.492,12.1616 z"
           id="path166" />
        <path
           d="m 361.393,52.1692 c 3.856,-3.4606 8.405,-6.0808 13.645,-7.8605 l 10.607,10.6066 c -5.241,1.7797 -9.789,4.3999 -13.645,7.8605 z"
           id="path167" />
        <path
           d="m 375.038,44.3087 c 5.24,-1.8787 11.272,-2.818 18.094,-2.818 l 10.607,10.6066 c -6.823,0 -12.854,0.9393 -18.094,2.818 z"
           id="path168" />
        <path
           d="m 393.132,41.4907 c 6.526,0 12.063,1.236 16.611,3.7078 l 10.607,10.6066 c -4.549,-2.4718 -10.086,-3.7078 -16.611,-3.7078 z"
           id="path169" />
        <path
           d="m 409.743,45.1985 c 3.137,1.6018 5.846,3.5414 8.126,5.819 l 10.607,10.6066 c -2.281,-2.2776 -4.99,-4.2172 -8.126,-5.819 z"
           id="path170" />
        <path
           d="m 417.869,51.0175 c 1.099,1.0965 2.098,2.2715 2.997,3.5247 l 10.607,10.6066 c -0.9,-1.2532 -1.899,-2.4282 -2.997,-3.5247 z"
           id="path171" />
        <path
           d="m 420.866,54.5422 c 2.769,3.8561 4.549,8.2066 5.34,13.0514 l 10.606,10.6066 c -0.791,-4.8448 -2.571,-9.1953 -5.339,-13.0514 z"
           id="path172" />
        <path
           d="m 426.206,67.5936 c 0.889,4.746 0.84,9.492 -0.149,14.238 l 10.607,10.6066 c 0.989,-4.746 1.038,-9.492 0.148,-14.238 z"
           id="path173" />
        <path
           d="m 426.057,81.8316 -0.89,4.1527 10.607,10.6066 0.89,-4.1527 z"
           id="path174" />
        <path
           d="m 425.167,85.9843 c -0.197,1.0877 -0.791,2.027 -1.779,2.818 l 10.606,10.6066 c 0.989,-0.791 1.582,-1.7303 1.78,-2.818 z"
           id="path175" />
        <path
           d="m 423.388,88.8023 c -0.89,0.791 -1.879,1.1865 -2.967,1.1865 l 10.607,10.6062 c 1.088,0 2.076,-0.395 2.966,-1.1861 z"
           id="path176" />
        <path
           d="m 420.421,89.9888 h -49.387 l 10.606,10.6062 h 49.388 z"
           id="path177" />
        <path
           d="m 390.314,61.5129 c -4.153,0 -7.564,1.2359 -10.233,3.7078 l 10.606,10.6066 c 2.67,-2.4719 6.081,-3.7078 10.234,-3.7078 z"
           id="path178" />
        <path
           d="m 380.081,65.2207 c -2.67,2.4718 -4.549,5.2403 -5.636,8.3054 l 10.606,10.6066 c 1.088,-3.0651 2.967,-5.8336 5.636,-8.3054 z"
           id="path179" />
        <path
           d="m 374.445,73.5261 h 26.696 l 10.606,10.6066 h -26.696 z"
           id="path180" />
        <path
           d="m 401.141,73.5261 c 0.296,-3.0651 -0.445,-5.8336 -2.225,-8.3054 l 10.607,10.6066 c 1.78,2.4718 2.521,5.2403 2.224,8.3054 z"
           id="path181" />
        <path
           d="m 398.916,65.2207 c -0.28,-0.412 -0.593,-0.7897 -0.939,-1.133 l 10.606,10.6066 c 0.347,0.3433 0.66,0.721 0.94,1.133 z"
           id="path182" />
        <path
           d="m 397.977,64.0877 c -1.73,-1.7166 -4.285,-2.5748 -7.663,-2.5748 l 10.607,10.6066 c 3.378,0 5.932,0.8582 7.662,2.5748 z"
           id="path183" />
        <path
           d="m 390.314,61.5129 v 0 l 10.607,10.6066 v 0 z"
           id="path184" />
        <path
           d="m 479.746,96.9594 c 0.198,-1.0876 0,-1.928 -0.593,-2.5213 l 10.606,10.6069 c 0.594,0.593 0.791,1.433 0.594,2.521 z"
           id="path185" />
        <path
           d="m 479.153,94.4381 c -0.043,-0.0496 -0.088,-0.0986 -0.136,-0.1467 l 10.606,10.6066 c 0.049,0.048 0.094,0.097 0.136,0.147 z"
           id="path186" />
        <path
           d="m 479.017,94.2914 c -0.623,-0.6227 -1.715,-1.1176 -3.275,-1.4847 l 10.606,10.6063 c 1.561,0.367 2.652,0.862 3.275,1.485 z"
           id="path187" />
        <path
           d="m 475.742,92.8067 c -1.681,-0.4944 -3.955,-0.9393 -6.823,-1.3348 l 10.607,10.6061 c 2.867,0.396 5.141,0.841 6.822,1.335 z"
           id="path188" />
        <path
           d="m 468.919,91.4719 c -2.867,-0.4944 -6.377,-1.1371 -10.53,-1.9281 l 10.607,10.6062 c 4.153,0.791 7.663,1.434 10.53,1.928 z"
           id="path189" />
        <path
           d="m 458.389,89.5438 c -6.097,-1.1535 -10.718,-3.3027 -13.863,-6.4474 l 10.607,10.6066 c 3.145,3.1447 7.766,5.2939 13.863,6.447 z"
           id="path190" />
        <path
           d="m 444.526,83.0964 c -0.629,-0.629 -1.199,-1.2978 -1.71,-2.0064 l 10.607,10.6066 c 0.511,0.7086 1.081,1.3774 1.71,2.0064 z"
           id="path191" />
        <path
           d="m 442.816,81.09 c -3.065,-4.2516 -3.905,-9.7391 -2.521,-16.4626 l 10.607,10.6066 c -1.384,6.7235 -0.544,12.211 2.521,16.4626 z"
           id="path192" />
        <path
           d="m 440.295,64.6274 c 0.692,-3.3617 1.928,-6.4268 3.708,-9.1953 l 10.607,10.6066 c -1.78,2.7685 -3.016,5.8336 -3.708,9.1953 z"
           id="path193" />
        <path
           d="m 444.003,55.4321 c 1.879,-2.8674 4.35,-5.3393 7.416,-7.4156 l 10.606,10.6066 c -3.065,2.0763 -5.537,4.5482 -7.415,7.4156 z"
           id="path194" />
        <path
           d="m 451.419,48.0165 c 3.164,-2.0764 6.97,-3.6584 11.42,-4.746 l 10.606,10.6066 c -4.449,1.0876 -8.256,2.6696 -11.42,4.746 z"
           id="path195" />
        <path
           d="m 462.839,43.2705 c 4.449,-1.1865 9.64,-1.7798 15.572,-1.7798 l 10.607,10.6066 c -5.933,0 -11.123,0.5933 -15.573,1.7798 z"
           id="path196" />
        <path
           d="m 478.411,41.4907 c 4.845,0 9.344,0.6427 13.497,1.9281 l 10.606,10.6066 c -4.152,-1.2854 -8.651,-1.9281 -13.496,-1.9281 z"
           id="path197" />
        <path
           d="m 491.908,43.4188 c 4.152,1.1865 7.712,2.7685 10.678,4.746 l 10.607,10.6066 c -2.966,-1.9775 -6.526,-3.5595 -10.679,-4.746 z"
           id="path198" />
        <path
           d="m 502.586,48.1648 c 1.672,1.0247 3.123,2.1523 4.354,3.383 l 10.607,10.6066 c -1.231,-1.2307 -2.682,-2.3583 -4.354,-3.383 z"
           id="path199" />
        <path
           d="m 506.94,51.5478 c 1.025,1.0255 1.898,2.1225 2.617,3.291 l 10.606,10.6066 c -0.719,-1.1685 -1.591,-2.2655 -2.616,-3.291 z"
           id="path200" />
        <path
           d="m 509.557,54.8388 c 1.582,2.4719 2.225,4.9437 1.928,7.4156 l 10.607,10.6066 c 0.296,-2.4719 -0.347,-4.9437 -1.929,-7.4156 z"
           id="path201" />
        <path
           d="m 511.485,62.2544 c -0.198,1.0876 -0.791,2.0269 -1.78,2.8179 l 10.607,10.6066 c 0.989,-0.791 1.582,-1.7303 1.78,-2.8179 z"
           id="path202" />
        <path
           d="m 509.705,65.0723 c -0.89,0.791 -1.878,1.1865 -2.966,1.1865 l 10.607,10.6066 c 1.087,0 2.076,-0.3955 2.966,-1.1865 z"
           id="path203" />
        <path
           d="M 506.739,66.2588 H 489.09 l 10.606,10.6066 h 17.65 z"
           id="path204" />
        <path
           d="m 489.09,66.2588 c -1.088,0 -1.928,-0.2471 -2.522,-0.7415 l 10.607,10.6066 c 0.593,0.4944 1.434,0.7415 2.521,0.7415 z"
           id="path205" />
        <path
           d="m 486.568,65.5173 c -0.494,-0.4944 -1.137,-1.0382 -1.928,-1.6315 l 10.607,10.6066 c 0.791,0.5933 1.434,1.1371 1.928,1.6315 z"
           id="path206" />
        <path
           d="m 484.64,63.8858 c -0.791,-0.5932 -1.878,-1.137 -3.262,-1.6314 l 10.606,10.6066 c 1.384,0.4944 2.472,1.0382 3.263,1.6314 z"
           id="path207" />
        <path
           d="m 481.378,62.2544 c -1.286,-0.4944 -3.214,-0.7415 -5.785,-0.7415 L 486.2,72.1195 c 2.571,0 4.499,0.2471 5.784,0.7415 z"
           id="path208" />
        <path
           d="m 475.593,61.5129 c -2.274,0 -4.251,0.346 -5.932,1.0381 l 10.607,10.6066 c 1.68,-0.6921 3.658,-1.0381 5.932,-1.0381 z"
           id="path209" />
        <path
           d="m 469.661,62.551 c -1.582,0.5933 -2.521,1.6315 -2.818,3.1146 l 10.607,10.6066 c 0.296,-1.4831 1.236,-2.5213 2.818,-3.1146 z"
           id="path210" />
        <path
           d="m 466.843,65.6656 c -0.297,1.0876 -0.247,1.928 0.148,2.5213 l 10.607,10.6066 c -0.396,-0.5933 -0.445,-1.4337 -0.148,-2.5213 z"
           id="path211" />
        <path
           d="m 466.991,68.1869 c 0.072,0.1081 0.161,0.2146 0.266,0.3195 l 10.606,10.6066 c -0.104,-0.1049 -0.193,-0.2114 -0.265,-0.3195 z"
           id="path212" />
        <path
           d="m 467.257,68.5064 c 0.471,0.4704 1.272,0.9077 2.404,1.3119 l 10.607,10.6066 c -1.132,-0.4042 -1.934,-0.8415 -2.405,-1.3119 z"
           id="path213" />
        <path
           d="m 469.661,69.8183 c 1.384,0.3955 3.362,0.8405 5.932,1.3348 L 486.2,81.7597 c -2.571,-0.4943 -4.548,-0.9393 -5.932,-1.3348 z"
           id="path214" />
        <path
           d="m 475.593,71.1531 c 2.571,0.3955 5.982,0.9393 10.234,1.6315 l 10.607,10.6066 c -4.252,-0.6922 -7.663,-1.236 -10.234,-1.6315 z"
           id="path215" />
        <path
           d="m 485.827,72.7846 c 4.35,0.791 7.959,1.9775 10.827,3.5595 l 10.606,10.6066 c -2.867,-1.582 -6.476,-2.7685 -10.826,-3.5595 z"
           id="path216" />
        <path
           d="m 496.654,76.3441 c 1.859,1.0258 3.448,2.1971 4.767,3.514 l 10.607,10.6066 c -1.319,-1.3169 -2.908,-2.4882 -4.768,-3.514 z"
           id="path217" />
        <path
           d="m 501.421,79.8581 c 0.715,0.7139 1.351,1.4706 1.907,2.2701 l 10.606,10.6066 c -0.556,-0.7995 -1.191,-1.5562 -1.906,-2.2701 z"
           id="path218" />
        <path
           d="m 503.328,82.1282 c 1.681,2.1753 2.719,4.6471 3.114,7.4156 l 10.607,10.6062 c -0.396,-2.7681 -1.434,-5.2399 -3.115,-7.4152 z"
           id="path219" />
        <path
           d="m 506.442,89.5438 c 0.396,2.6696 0.297,5.4876 -0.296,8.4538 l 10.606,10.6064 c 0.594,-2.966 0.692,-5.784 0.297,-8.454 z"
           id="path220" />
        <path
           d="m 506.146,97.9976 c -0.692,3.3614 -1.978,6.4764 -3.856,9.3434 l 10.606,10.607 c 1.879,-2.868 3.164,-5.982 3.856,-9.344 z"
           id="path221" />
        <path
           d="m 502.29,107.341 c -1.879,2.868 -4.499,5.389 -7.861,7.564 l 10.607,10.607 c 3.361,-2.175 5.982,-4.697 7.86,-7.564 z"
           id="path222" />
        <path
           d="m 494.429,114.905 c -3.263,2.077 -7.366,3.708 -12.31,4.894 l 10.607,10.607 c 4.943,-1.186 9.047,-2.818 12.31,-4.894 z"
           id="path223" />
        <path
           d="m 482.119,119.799 c -4.845,1.187 -10.579,1.78 -17.204,1.78 l 10.607,10.607 c 6.624,0 12.359,-0.593 17.204,-1.78 z"
           id="path224" />
        <path
           d="m 464.915,121.579 c -5.24,0 -9.986,-0.642 -14.238,-1.928 l 10.607,10.607 c 4.251,1.285 8.997,1.928 14.238,1.928 z"
           id="path225" />
        <path
           d="m 450.677,119.651 c -4.252,-1.384 -7.861,-3.114 -10.827,-5.191 l 10.607,10.607 c 2.966,2.076 6.575,3.807 10.827,5.191 z"
           id="path226" />
        <path
           d="m 439.85,114.46 c -1.483,-1.038 -2.793,-2.126 -3.93,-3.263 l 10.607,10.607 c 1.137,1.137 2.447,2.225 3.93,3.263 z"
           id="path227" />
        <path
           d="m 435.92,111.197 c -1.137,-1.137 -2.101,-2.323 -2.892,-3.559 l 10.606,10.606 c 0.791,1.236 1.755,2.423 2.893,3.56 z"
           id="path228" />
        <path
           d="m 433.028,107.638 c -1.483,-2.472 -2.077,-4.894 -1.78,-7.267 l 10.607,10.606 c -0.297,2.373 0.296,4.796 1.779,7.267 z"
           id="path229" />
        <path
           d="m 431.248,100.371 c 0.198,-1.088 0.791,-2.0273 1.78,-2.8183 l 10.606,10.6063 c -0.988,0.791 -1.582,1.731 -1.779,2.818 z"
           id="path230" />
        <path
           d="m 433.028,97.5527 c 0.989,-0.791 2.027,-1.1865 3.114,-1.1865 l 10.607,10.6068 c -1.088,0 -2.126,0.395 -3.115,1.186 z"
           id="path231" />
        <path
           d="m 436.142,96.3662 h 18.391 l 10.607,10.6068 h -18.391 z"
           id="path232" />
        <path
           d="m 454.533,96.3662 c 0.918,0 1.589,0.2111 2.014,0.6335 l 10.607,10.6063 c -0.425,-0.422 -1.097,-0.633 -2.014,-0.633 z"
           id="path233" />
        <path
           d="m 456.547,96.9997 c 0.079,0.0782 0.149,0.1636 0.211,0.2563 l 10.606,10.607 c -0.061,-0.093 -0.132,-0.179 -0.21,-0.257 z"
           id="path234" />
        <path
           d="m 456.758,97.256 c 0.395,0.4944 0.89,1.0877 1.483,1.7798 l 10.607,10.6062 c -0.594,-0.692 -1.088,-1.285 -1.484,-1.779 z"
           id="path235" />
        <path
           d="m 458.241,99.0358 c 0.692,0.5932 1.681,1.1862 2.966,1.7802 l 10.607,10.606 c -1.286,-0.593 -2.274,-1.186 -2.966,-1.78 z"
           id="path236" />
        <path
           d="m 461.207,100.816 c 1.384,0.494 3.56,0.741 6.526,0.741 l 10.606,10.607 c -2.966,0 -5.141,-0.247 -6.525,-0.742 z"
           id="path237" />
        <path
           d="m 467.733,101.557 c 2.966,0 5.586,-0.395 7.86,-1.186 l 10.607,10.606 c -2.274,0.791 -4.894,1.187 -7.861,1.187 z"
           id="path238" />
        <path
           d="m 475.593,100.371 c 2.373,-0.7914 3.758,-1.9285 4.153,-3.4116 l 10.607,10.6066 c -0.396,1.483 -1.78,2.62 -4.153,3.411 z"
           id="path239" />
        <path
           d="m 479.746,96.9594 v 0 l 10.607,10.6066 v 0 z"
           id="path240" />
        <path
           d="m 594.391,116.092 c -0.197,1.087 -0.791,2.027 -1.779,2.818 l 10.606,10.606 c 0.989,-0.791 1.582,-1.73 1.78,-2.818 z"
           id="path241" />
        <path
           d="m 592.612,118.91 c -0.89,0.791 -1.879,1.186 -2.967,1.186 l 10.607,10.607 c 1.088,0 2.076,-0.396 2.966,-1.187 z"
           id="path242" />
        <path
           d="m 589.645,120.096 h -18.687 l 10.607,10.607 h 18.687 z"
           id="path243" />
        <path
           d="m 570.958,120.096 c -0.997,0 -1.828,-0.332 -2.493,-0.998 l 10.607,10.607 c 0.664,0.665 1.495,0.998 2.493,0.998 z"
           id="path244" />
        <path
           d="m 568.465,119.098 c -0.06,-0.06 -0.119,-0.123 -0.176,-0.188 l 10.606,10.606 c 0.058,0.066 0.116,0.129 0.177,0.189 z"
           id="path245" />
        <path
           d="m 568.289,118.91 c -0.594,-0.791 -0.791,-1.731 -0.594,-2.818 l 10.607,10.606 c -0.198,1.088 0,2.027 0.593,2.818 z"
           id="path246" />
        <path
           d="m 567.695,116.092 8.009,-37.5233 10.607,10.6066 -8.009,37.5227 z"
           id="path247" />
        <path
           d="m 575.704,78.5687 c 0.89,-4.2516 0.544,-7.6628 -1.038,-10.2335 l 10.607,10.6066 c 1.582,2.5707 1.928,5.9819 1.038,10.2335 z"
           id="path248" />
        <path
           d="m 574.666,68.3352 c -0.294,-0.5088 -0.645,-0.9672 -1.055,-1.3753 l 10.607,10.6066 c 0.409,0.4081 0.761,0.8665 1.055,1.3753 z"
           id="path249" />
        <path
           d="m 573.611,66.9599 c -1.66,-1.6539 -4.275,-2.4808 -7.844,-2.4808 l 10.607,10.6066 c 3.569,0 6.183,0.8269 7.844,2.4808 z"
           id="path250" />
        <path
           d="m 565.767,64.4791 c -4.449,0 -7.959,1.2854 -10.53,3.8561 l 10.607,10.6066 c 2.57,-2.5707 6.08,-3.8561 10.53,-3.8561 z"
           id="path251" />
        <path
           d="m 555.237,68.3352 c -2.571,2.5707 -4.301,5.9819 -5.191,10.2335 l 10.607,10.6066 c 0.89,-4.2516 2.62,-7.6628 5.191,-10.2335 z"
           id="path252" />
        <path
           d="m 550.046,78.5687 -8.009,37.5233 10.607,10.606 8.009,-37.5227 z"
           id="path253" />
        <path
           d="m 542.037,116.092 c -0.197,1.087 -0.791,2.027 -1.779,2.818 l 10.606,10.606 c 0.989,-0.791 1.582,-1.73 1.78,-2.818 z"
           id="path254" />
        <path
           d="m 540.258,118.91 c -0.89,0.791 -1.879,1.186 -2.967,1.186 l 10.607,10.607 c 1.088,0 2.076,-0.396 2.966,-1.187 z"
           id="path255" />
        <path
           d="m 537.291,120.096 h -18.687 l 10.607,10.607 h 18.687 z"
           id="path256" />
        <path
           d="m 518.604,120.096 c -0.997,0 -1.828,-0.332 -2.492,-0.997 l 10.606,10.607 c 0.665,0.664 1.496,0.997 2.493,0.997 z"
           id="path257" />
        <path
           d="m 516.112,119.099 c -0.061,-0.06 -0.12,-0.123 -0.178,-0.189 l 10.607,10.606 c 0.058,0.066 0.117,0.129 0.177,0.19 z"
           id="path258" />
        <path
           d="m 515.934,118.91 c -0.593,-0.791 -0.791,-1.731 -0.593,-2.818 l 10.607,10.606 c -0.198,1.088 0,2.027 0.593,2.818 z"
           id="path259" />
        <path
           d="m 515.341,116.092 20.764,-97.293 10.606,10.6066 -20.763,97.2924 z"
           id="path260" />
        <path
           d="m 536.105,18.799 c 0.198,-1.0876 0.741,-2.0269 1.631,-2.8179 l 10.607,10.6066 c -0.89,0.791 -1.434,1.7303 -1.632,2.8179 z"
           id="path261" />
        <path
           d="m 537.736,15.9811 c 0.989,-0.791 2.027,-1.1865 3.115,-1.1865 l 10.606,10.6066 c -1.087,0 -2.125,0.3955 -3.114,1.1865 z"
           id="path262" />
        <path
           d="m 540.851,14.7946 h 18.687 l 10.607,10.6066 h -18.688 z"
           id="path263" />
        <path
           d="m 559.538,14.7946 c 0.921,0 1.664,0.2833 2.23,0.8499 l 10.607,10.6066 c -0.566,-0.5666 -1.31,-0.8499 -2.23,-0.8499 z"
           id="path264" />
        <path
           d="m 561.768,15.6445 c 0.103,0.1028 0.2,0.215 0.291,0.3366 l 10.607,10.6066 c -0.091,-0.1216 -0.188,-0.2338 -0.291,-0.3366 z"
           id="path265" />
        <path
           d="m 562.059,15.9811 c 0.693,0.791 0.94,1.7303 0.742,2.8179 l 10.607,10.6066 c 0.197,-1.0876 -0.05,-2.0269 -0.742,-2.8179 z"
           id="path266" />
        <path
           d="m 562.801,18.799 -6.822,31.5905 10.606,10.6066 6.823,-31.5905 z"
           id="path267" />
        <path
           d="m 555.979,50.3895 c 2.076,-2.0764 4.844,-4.0539 8.305,-5.9325 l 10.607,10.6066 c -3.461,1.8786 -6.229,3.8561 -8.306,5.9325 z"
           id="path268" />
        <path
           d="m 564.284,44.457 c 3.56,-1.9775 7.663,-2.9663 12.31,-2.9663 l 10.607,10.6066 c -4.648,0 -8.751,0.9888 -12.31,2.9663 z"
           id="path269" />
        <path
           d="m 576.594,41.4907 c 4.054,0 7.91,0.6922 11.568,2.0764 l 10.607,10.6066 c -3.658,-1.3842 -7.515,-2.0764 -11.568,-2.0764 z"
           id="path270" />
        <path
           d="m 588.162,43.5671 c 3.444,1.1783 6.39,2.9796 8.837,5.4041 l 10.607,10.6066 c -2.447,-2.4245 -5.393,-4.2258 -8.837,-5.4041 z"
           id="path271" />
        <path
           d="m 596.999,48.9712 c 0.223,0.2204 0.441,0.446 0.655,0.6767 l 10.607,10.6066 c -0.214,-0.2307 -0.433,-0.4563 -0.655,-0.6767 z"
           id="path272" />
        <path
           d="m 597.654,49.6479 c 2.67,2.7685 4.549,6.2785 5.636,10.5301 l 10.607,10.6066 c -1.088,-4.2516 -2.966,-7.7616 -5.636,-10.5301 z"
           id="path273" />
        <path
           d="m 603.29,60.178 c 1.088,4.2517 1.038,9.2943 -0.148,15.1279 l 10.606,10.6066 c 1.187,-5.8336 1.236,-10.8762 0.149,-15.1279 z"
           id="path274" />
        <path
           d="m 603.142,75.3059 -8.751,40.7861 10.607,10.606 8.75,-40.7855 z"
           id="path275" />
        <path
           d="m 688.57,96.3662 c 0.92,0 1.664,0.2833 2.23,0.8499 l 10.607,10.6069 c -0.567,-0.567 -1.31,-0.85 -2.231,-0.85 z"
           id="path276" />
        <path
           d="m 690.8,97.2161 c 0.103,0.1028 0.2,0.215 0.291,0.3366 l 10.607,10.6063 c -0.092,-0.121 -0.189,-0.233 -0.291,-0.336 z"
           id="path277" />
        <path
           d="m 691.091,97.5527 c 0.593,0.791 0.791,1.7303 0.593,2.8183 l 10.607,10.606 c 0.198,-1.087 0,-2.027 -0.593,-2.818 z"
           id="path278" />
        <path
           d="m 691.684,100.371 -3.411,15.721 10.607,10.606 3.411,-15.721 z"
           id="path279" />
        <path
           d="m 688.273,116.092 c -0.198,1.087 -0.791,2.027 -1.78,2.818 l 10.607,10.606 c 0.989,-0.791 1.582,-1.73 1.78,-2.818 z"
           id="path280" />
        <path
           d="m 686.493,118.91 c -0.89,0.791 -1.878,1.186 -2.966,1.186 l 10.607,10.607 c 1.087,0 2.076,-0.396 2.966,-1.187 z"
           id="path281" />
        <path
           d="m 683.527,120.096 h -68.668 l 10.606,10.607 h 68.669 z"
           id="path282" />
        <path
           d="m 614.859,120.096 c -0.997,0 -1.828,-0.332 -2.493,-0.997 l 10.607,10.607 c 0.664,0.664 1.495,0.997 2.492,0.997 z"
           id="path283" />
        <path
           d="m 612.366,119.099 c -0.06,-0.06 -0.119,-0.123 -0.177,-0.189 l 10.607,10.606 c 0.057,0.066 0.116,0.129 0.177,0.19 z"
           id="path284" />
        <path
           d="m 612.189,118.91 c -0.593,-0.791 -0.791,-1.731 -0.593,-2.818 l 10.606,10.606 c -0.197,1.088 0,2.027 0.594,2.818 z"
           id="path285" />
        <path
           d="m 611.596,116.092 20.467,-95.8099 10.606,10.6066 -20.467,95.8093 z"
           id="path286" />
        <path
           d="m 632.063,20.2821 c 0.198,-1.0876 0.741,-2.0269 1.631,-2.8179 l 10.607,10.6066 c -0.89,0.791 -1.434,1.7303 -1.632,2.8179 z"
           id="path287" />
        <path
           d="m 633.694,17.4642 c 0.989,-0.791 2.027,-1.1865 3.115,-1.1865 l 10.606,10.6066 c -1.087,0 -2.125,0.3955 -3.114,1.1865 z"
           id="path288" />
        <path
           d="m 636.809,16.2777 h 19.429 l 10.606,10.6066 h -19.429 z"
           id="path289" />
        <path
           d="m 656.238,16.2777 c 0.92,0 1.663,0.2831 2.229,0.8494 l 10.607,10.6066 c -0.566,-0.5663 -1.31,-0.8494 -2.23,-0.8494 z"
           id="path290" />
        <path
           d="m 658.467,17.1271 c 0.103,0.103 0.201,0.2154 0.292,0.3371 l 10.607,10.6066 c -0.092,-0.1217 -0.189,-0.2341 -0.292,-0.3371 z"
           id="path291" />
        <path
           d="m 658.759,17.4642 c 0.692,0.791 0.939,1.7303 0.741,2.8179 l 10.607,10.6066 c 0.198,-1.0876 -0.049,-2.0269 -0.741,-2.8179 z"
           id="path292" />
        <path
           d="m 659.5,20.2821 -16.166,76.0841 10.607,10.6068 16.166,-76.0843 z"
           id="path293" />
        <path
           d="m 643.334,96.3662 h 45.236 l 10.606,10.6068 h -45.235 z"
           id="path294" />
        <path
           d="m 726.538,89.9888 c -0.495,2.2741 -0.495,4.1527 0,5.6358 l 10.606,10.6064 c -0.494,-1.483 -0.494,-3.362 0,-5.636 z"
           id="path295" />
        <path
           d="m 726.538,95.6246 c 0.412,1.2359 1.03,2.2659 1.853,3.0898 l 10.607,10.6066 c -0.824,-0.824 -1.442,-1.854 -1.854,-3.09 z"
           id="path296" />
        <path
           d="m 728.391,98.7144 c 0.165,0.1648 0.338,0.3214 0.52,0.4697 l 10.606,10.6069 c -0.181,-0.149 -0.354,-0.305 -0.519,-0.47 z"
           id="path297" />
        <path
           d="m 728.911,99.1841 c 1.186,0.8899 2.521,1.5329 4.004,1.9279 l 10.607,10.607 c -1.484,-0.396 -2.818,-1.038 -4.005,-1.928 z"
           id="path298" />
        <path
           d="m 732.915,101.112 c 1.483,0.297 2.966,0.445 4.449,0.445 l 10.607,10.607 c -1.483,0 -2.966,-0.149 -4.449,-0.445 z"
           id="path299" />
        <path
           d="m 737.364,101.557 c 2.967,0 5.389,-0.297 7.268,-0.89 l 10.606,10.607 c -1.878,0.593 -4.301,0.89 -7.267,0.89 z"
           id="path300" />
        <path
           d="m 744.632,100.667 c 1.878,-0.593 3.51,-1.4335 4.894,-2.5211 l 10.607,10.6071 c -1.385,1.087 -3.016,1.928 -4.895,2.521 z"
           id="path301" />
        <path
           d="m 749.526,98.1459 c 1.285,-0.8899 2.175,-1.4337 2.67,-1.6314 l 10.606,10.6065 c -0.494,0.198 -1.384,0.742 -2.669,1.632 z"
           id="path302" />
        <path
           d="m 752.196,96.5145 c 0.593,-0.2966 1.483,-0.445 2.669,-0.445 l 10.607,10.6065 c -1.187,0 -2.077,0.148 -2.67,0.445 z"
           id="path303" />
        <path
           d="m 754.865,96.0695 h 19.281 l 10.606,10.6065 h -19.28 z"
           id="path304" />
        <path
           d="m 774.146,96.0695 c 0.979,0 1.687,0.2203 2.125,0.6608 l 10.607,10.6067 c -0.438,-0.441 -1.147,-0.661 -2.126,-0.661 z"
           id="path305" />
        <path
           d="m 776.271,96.7303 c 0.536,0.5384 0.668,1.4057 0.396,2.6021 l 10.607,10.6066 c 0.272,-1.196 0.14,-2.064 -0.396,-2.602 z"
           id="path306" />
        <path
           d="m 776.667,99.3324 c -0.198,1.1866 -1.088,3.0156 -2.67,5.4876 l 10.607,10.607 c 1.582,-2.472 2.472,-4.301 2.67,-5.488 z"
           id="path307" />
        <path
           d="m 773.997,104.82 c -1.582,2.373 -4.053,4.845 -7.415,7.416 l 10.606,10.606 c 3.362,-2.571 5.834,-5.042 7.416,-7.415 z"
           id="path308" />
        <path
           d="m 766.582,112.236 c -3.263,2.471 -7.515,4.647 -12.755,6.525 l 10.607,10.607 c 5.24,-1.879 9.492,-4.054 12.754,-6.526 z"
           id="path309" />
        <path
           d="m 753.827,118.761 c -5.24,1.879 -11.667,2.818 -19.281,2.818 l 10.607,10.607 c 7.613,0 14.04,-0.939 19.281,-2.818 z"
           id="path310" />
        <path
           d="m 734.546,121.579 c -5.734,0 -10.925,-0.989 -15.572,-2.966 l 10.606,10.607 c 4.647,1.977 9.838,2.966 15.573,2.966 z"
           id="path311" />
        <path
           d="m 718.974,118.613 c -3.672,-1.676 -6.828,-3.836 -9.469,-6.479 l 10.607,10.607 c 2.64,2.643 5.797,4.802 9.468,6.479 z"
           id="path312" />
        <path
           d="m 709.505,112.134 c -0.63,-0.63 -1.231,-1.289 -1.803,-1.975 l 10.607,10.607 c 0.571,0.686 1.172,1.344 1.803,1.975 z"
           id="path313" />
        <path
           d="m 707.702,110.159 c -2.966,-3.658 -5.043,-8.009 -6.229,-13.0513 l 10.606,10.6063 c 1.187,5.043 3.263,9.393 6.23,13.052 z"
           id="path314" />
        <path
           d="m 701.473,97.1077 c -1.088,-5.1414 -0.939,-10.8267 0.445,-17.0558 l 10.606,10.6066 c -1.384,6.2291 -1.532,11.9145 -0.445,17.0555 z"
           id="path315" />
        <path
           d="m 701.918,80.0519 c 1.186,-5.7348 3.015,-10.9751 5.487,-15.7211 l 10.607,10.6066 c -2.472,4.746 -4.301,9.9863 -5.488,15.7211 z"
           id="path316" />
        <path
           d="m 707.405,64.3308 c 2.472,-4.746 5.636,-8.7999 9.492,-12.1616 l 10.607,10.6066 c -3.856,3.3617 -7.02,7.4156 -9.492,12.1616 z"
           id="path317" />
        <path
           d="m 716.897,52.1692 c 3.856,-3.4606 8.405,-6.0808 13.645,-7.8605 l 10.607,10.6066 c -5.241,1.7797 -9.789,4.3999 -13.645,7.8605 z"
           id="path318" />
        <path
           d="m 730.542,44.3087 c 5.24,-1.8787 11.272,-2.818 18.094,-2.818 l 10.607,10.6066 c -6.823,0 -12.854,0.9393 -18.094,2.818 z"
           id="path319" />
        <path
           d="m 748.636,41.4907 c 6.526,0 12.063,1.236 16.611,3.7078 l 10.607,10.6066 c -4.549,-2.4718 -10.086,-3.7078 -16.611,-3.7078 z"
           id="path320" />
        <path
           d="m 765.247,45.1985 c 3.14,1.6032 5.85,3.5449 8.133,5.825 l 10.606,10.6066 c -2.282,-2.2801 -4.993,-4.2218 -8.132,-5.825 z"
           id="path321" />
        <path
           d="m 773.38,51.0235 c 1.095,1.0948 2.092,2.2677 2.99,3.5187 l 10.607,10.6066 c -0.898,-1.2509 -1.895,-2.4238 -2.991,-3.5187 z"
           id="path322" />
        <path
           d="m 776.37,54.5422 c 2.769,3.8561 4.549,8.2066 5.34,13.0514 l 10.606,10.6066 c -0.791,-4.8448 -2.57,-9.1953 -5.339,-13.0514 z"
           id="path323" />
        <path
           d="m 781.71,67.5936 c 0.89,4.746 0.84,9.492 -0.149,14.238 l 10.607,10.6066 c 0.989,-4.746 1.038,-9.492 0.148,-14.238 z"
           id="path324" />
        <path
           d="m 781.561,81.8316 -0.89,4.1527 10.607,10.6066 0.89,-4.1527 z"
           id="path325" />
        <path
           d="m 780.671,85.9843 c -0.197,1.0877 -0.791,2.027 -1.779,2.818 l 10.606,10.6066 c 0.989,-0.791 1.582,-1.7303 1.78,-2.818 z"
           id="path326" />
        <path
           d="m 778.892,88.8023 c -0.89,0.791 -1.879,1.1865 -2.967,1.1865 l 10.607,10.6062 c 1.088,0 2.076,-0.395 2.966,-1.1861 z"
           id="path327" />
        <path
           d="m 775.925,89.9888 h -49.387 l 10.606,10.6062 h 49.388 z"
           id="path328" />
        <path
           d="m 745.818,61.5129 c -4.153,0 -7.564,1.2359 -10.233,3.7078 l 10.606,10.6066 c 2.67,-2.4719 6.081,-3.7078 10.234,-3.7078 z"
           id="path329" />
        <path
           d="m 735.585,65.2207 c -2.67,2.4718 -4.549,5.2403 -5.636,8.3054 l 10.606,10.6066 c 1.088,-3.0651 2.967,-5.8336 5.636,-8.3054 z"
           id="path330" />
        <path
           d="m 729.949,73.5261 h 26.696 l 10.607,10.6066 h -26.697 z"
           id="path331" />
        <path
           d="m 756.645,73.5261 c 0.297,-3.0651 -0.445,-5.8336 -2.225,-8.3054 l 10.607,10.6066 c 1.78,2.4718 2.521,5.2403 2.225,8.3054 z"
           id="path332" />
        <path
           d="m 754.42,65.2207 c -0.276,-0.406 -0.584,-0.7786 -0.924,-1.1178 l 10.607,10.6066 c 0.34,0.3392 0.648,0.7118 0.924,1.1178 z"
           id="path333" />
        <path
           d="m 753.496,64.1029 c -1.73,-1.7267 -4.29,-2.59 -7.678,-2.59 l 10.607,10.6066 c 3.388,0 5.947,0.8633 7.678,2.59 z"
           id="path334" />
        <path
           d="m 745.818,61.5129 v 0 l 10.607,10.6066 v 0 z"
           id="path335" />
        <path
           d="m 835.25,96.9594 c 0.198,-1.0876 0,-1.928 -0.593,-2.5213 l 10.607,10.6069 c 0.593,0.593 0.791,1.433 0.593,2.521 z"
           id="path336" />
        <path
           d="m 834.657,94.4381 c -0.042,-0.0492 -0.087,-0.0976 -0.135,-0.1453 l 10.607,10.6062 c 0.047,0.048 0.092,0.097 0.135,0.146 z"
           id="path337" />
        <path
           d="m 834.522,94.2928 c -0.623,-0.6234 -1.715,-1.1187 -3.276,-1.4861 l 10.606,10.6063 c 1.562,0.368 2.654,0.863 3.277,1.486 z"
           id="path338" />
        <path
           d="m 831.246,92.8067 c -1.681,-0.4944 -3.955,-0.9393 -6.823,-1.3348 l 10.607,10.6061 c 2.867,0.396 5.141,0.841 6.822,1.335 z"
           id="path339" />
        <path
           d="m 824.423,91.4719 c -2.867,-0.4944 -6.377,-1.1371 -10.53,-1.9281 L 824.5,100.15 c 4.153,0.791 7.663,1.434 10.53,1.928 z"
           id="path340" />
        <path
           d="m 813.893,89.5438 c -6.097,-1.1535 -10.718,-3.3027 -13.863,-6.4474 l 10.607,10.6066 c 3.145,3.1447 7.766,5.2939 13.863,6.447 z"
           id="path341" />
        <path
           d="m 800.03,83.0964 c -0.629,-0.629 -1.199,-1.2978 -1.71,-2.0064 l 10.607,10.6066 c 0.511,0.7086 1.081,1.3774 1.71,2.0064 z"
           id="path342" />
        <path
           d="m 798.32,81.09 c -3.065,-4.2516 -3.905,-9.7391 -2.521,-16.4626 l 10.607,10.6066 c -1.384,6.7235 -0.544,12.211 2.521,16.4626 z"
           id="path343" />
        <path
           d="m 795.799,64.6274 c 0.692,-3.3617 1.928,-6.4268 3.708,-9.1953 l 10.607,10.6066 c -1.78,2.7685 -3.016,5.8336 -3.708,9.1953 z"
           id="path344" />
        <path
           d="m 799.507,55.4321 c 1.879,-2.8674 4.35,-5.3393 7.416,-7.4156 l 10.606,10.6066 c -3.065,2.0763 -5.537,4.5482 -7.415,7.4156 z"
           id="path345" />
        <path
           d="m 806.923,48.0165 c 3.164,-2.0764 6.97,-3.6584 11.42,-4.746 l 10.606,10.6066 c -4.449,1.0876 -8.256,2.6696 -11.42,4.746 z"
           id="path346" />
        <path
           d="m 818.343,43.2705 c 4.449,-1.1865 9.64,-1.7798 15.572,-1.7798 l 10.607,10.6066 c -5.933,0 -11.123,0.5933 -15.573,1.7798 z"
           id="path347" />
        <path
           d="m 833.915,41.4907 c 4.845,0 9.344,0.6427 13.497,1.9281 l 10.606,10.6066 c -4.152,-1.2854 -8.651,-1.9281 -13.496,-1.9281 z"
           id="path348" />
        <path
           d="m 847.412,43.4188 c 4.152,1.1865 7.712,2.7685 10.678,4.746 l 10.607,10.6066 c -2.966,-1.9775 -6.526,-3.5595 -10.679,-4.746 z"
           id="path349" />
        <path
           d="m 858.09,48.1648 c 1.668,1.0225 3.117,2.1474 4.346,3.3749 l 10.607,10.6066 c -1.229,-1.2275 -2.678,-2.3524 -4.346,-3.3749 z"
           id="path350" />
        <path
           d="m 862.436,51.5397 c 1.029,1.0279 1.904,2.1276 2.625,3.2991 l 10.606,10.6066 c -0.72,-1.1715 -1.595,-2.2712 -2.624,-3.2991 z"
           id="path351" />
        <path
           d="m 865.061,54.8388 c 1.582,2.4719 2.225,4.9437 1.928,7.4156 l 10.607,10.6066 c 0.296,-2.4719 -0.347,-4.9437 -1.929,-7.4156 z"
           id="path352" />
        <path
           d="m 866.989,62.2544 c -0.198,1.0876 -0.791,2.0269 -1.78,2.8179 l 10.607,10.6066 c 0.989,-0.791 1.582,-1.7303 1.78,-2.8179 z"
           id="path353" />
        <path
           d="m 865.209,65.0723 c -0.89,0.791 -1.878,1.1865 -2.966,1.1865 l 10.607,10.6066 c 1.087,0 2.076,-0.3955 2.966,-1.1865 z"
           id="path354" />
        <path
           d="M 862.243,66.2588 H 844.594 L 855.2,76.8654 h 17.65 z"
           id="path355" />
        <path
           d="m 844.594,66.2588 c -1.088,0 -1.928,-0.2471 -2.521,-0.7415 l 10.606,10.6066 c 0.593,0.4944 1.434,0.7415 2.521,0.7415 z"
           id="path356" />
        <path
           d="m 842.073,65.5173 c -0.495,-0.4944 -1.138,-1.0382 -1.929,-1.6315 l 10.607,10.6066 c 0.791,0.5933 1.434,1.1371 1.928,1.6315 z"
           id="path357" />
        <path
           d="m 840.144,63.8858 c -0.791,-0.5932 -1.878,-1.137 -3.262,-1.6314 l 10.606,10.6066 c 1.384,0.4944 2.472,1.0382 3.263,1.6314 z"
           id="path358" />
        <path
           d="m 836.882,62.2544 c -1.286,-0.4944 -3.214,-0.7415 -5.785,-0.7415 l 10.607,10.6066 c 2.571,0 4.499,0.2471 5.784,0.7415 z"
           id="path359" />
        <path
           d="m 831.097,61.5129 c -2.274,0 -4.251,0.346 -5.932,1.0381 l 10.607,10.6066 c 1.68,-0.6921 3.658,-1.0381 5.932,-1.0381 z"
           id="path360" />
        <path
           d="m 825.165,62.551 c -1.582,0.5933 -2.521,1.6315 -2.818,3.1146 l 10.607,10.6066 c 0.296,-1.4831 1.236,-2.5213 2.818,-3.1146 z"
           id="path361" />
        <path
           d="m 822.347,65.6656 c -0.297,1.0876 -0.247,1.928 0.148,2.5213 l 10.607,10.6066 c -0.396,-0.5933 -0.445,-1.4337 -0.148,-2.5213 z"
           id="path362" />
        <path
           d="m 822.495,68.1869 c 0.072,0.1079 0.161,0.2142 0.265,0.3189 l 10.607,10.6066 c -0.105,-0.1047 -0.193,-0.211 -0.265,-0.3189 z"
           id="path363" />
        <path
           d="m 822.76,68.5058 c 0.471,0.4706 1.273,0.9081 2.405,1.3125 l 10.607,10.6066 c -1.133,-0.4044 -1.934,-0.8419 -2.405,-1.3125 z"
           id="path364" />
        <path
           d="m 825.165,69.8183 c 1.384,0.3955 3.362,0.8405 5.932,1.3348 l 10.607,10.6066 c -2.571,-0.4943 -4.548,-0.9393 -5.932,-1.3348 z"
           id="path365" />
        <path
           d="m 831.097,71.1531 c 2.571,0.3955 5.982,0.9393 10.234,1.6315 l 10.607,10.6066 c -4.252,-0.6922 -7.663,-1.236 -10.234,-1.6315 z"
           id="path366" />
        <path
           d="m 841.331,72.7846 c 4.35,0.791 7.959,1.9775 10.827,3.5595 l 10.606,10.6066 c -2.867,-1.582 -6.476,-2.7685 -10.826,-3.5595 z"
           id="path367" />
        <path
           d="m 852.158,76.3441 c 1.865,1.0289 3.458,2.2042 4.779,3.5259 l 10.606,10.6066 c -1.321,-1.3217 -2.914,-2.497 -4.779,-3.5259 z"
           id="path368" />
        <path
           d="m 856.937,79.87 c 0.71,0.7104 1.342,1.4632 1.895,2.2582 l 10.606,10.6066 c -0.553,-0.795 -1.184,-1.5478 -1.895,-2.2582 z"
           id="path369" />
        <path
           d="m 858.832,82.1282 c 1.681,2.1753 2.719,4.6471 3.114,7.4156 l 10.607,10.6062 c -0.396,-2.7681 -1.434,-5.2399 -3.115,-7.4152 z"
           id="path370" />
        <path
           d="m 861.946,89.5438 c 0.396,2.6696 0.297,5.4876 -0.296,8.4538 l 10.606,10.6064 c 0.594,-2.966 0.692,-5.784 0.297,-8.454 z"
           id="path371" />
        <path
           d="m 861.65,97.9976 c -0.692,3.3614 -1.978,6.4764 -3.856,9.3434 l 10.606,10.607 c 1.879,-2.868 3.164,-5.982 3.856,-9.344 z"
           id="path372" />
        <path
           d="m 857.794,107.341 c -1.879,2.868 -4.499,5.389 -7.861,7.564 l 10.607,10.607 c 3.361,-2.175 5.982,-4.697 7.86,-7.564 z"
           id="path373" />
        <path
           d="m 849.933,114.905 c -3.263,2.077 -7.366,3.708 -12.31,4.894 l 10.607,10.607 c 4.943,-1.186 9.047,-2.818 12.31,-4.894 z"
           id="path374" />
        <path
           d="m 837.623,119.799 c -4.845,1.187 -10.579,1.78 -17.204,1.78 l 10.607,10.607 c 6.624,0 12.359,-0.593 17.204,-1.78 z"
           id="path375" />
        <path
           d="m 820.419,121.579 c -5.24,0 -9.986,-0.642 -14.238,-1.928 l 10.607,10.607 c 4.251,1.285 8.997,1.928 14.238,1.928 z"
           id="path376" />
        <path
           d="m 806.181,119.651 c -4.252,-1.384 -7.861,-3.114 -10.827,-5.191 l 10.607,10.607 c 2.966,2.076 6.575,3.807 10.827,5.191 z"
           id="path377" />
        <path
           d="m 795.354,114.46 c -1.483,-1.038 -2.793,-2.126 -3.93,-3.263 l 10.607,10.607 c 1.137,1.137 2.447,2.225 3.93,3.263 z"
           id="path378" />
        <path
           d="m 791.424,111.197 c -1.137,-1.137 -2.101,-2.323 -2.892,-3.559 l 10.606,10.606 c 0.791,1.236 1.756,2.423 2.893,3.56 z"
           id="path379" />
        <path
           d="m 788.532,107.638 c -1.483,-2.472 -2.076,-4.894 -1.78,-7.267 l 10.607,10.606 c -0.297,2.373 0.296,4.796 1.779,7.267 z"
           id="path380" />
        <path
           d="m 786.752,100.371 c 0.198,-1.088 0.791,-2.0273 1.78,-2.8183 l 10.606,10.6063 c -0.988,0.791 -1.582,1.731 -1.779,2.818 z"
           id="path381" />
        <path
           d="m 788.532,97.5527 c 0.989,-0.791 2.027,-1.1865 3.114,-1.1865 l 10.607,10.6068 c -1.088,0 -2.126,0.395 -3.115,1.186 z"
           id="path382" />
        <path
           d="m 791.646,96.3662 h 18.391 l 10.607,10.6068 h -18.391 z"
           id="path383" />
        <path
           d="m 810.037,96.3662 c 0.92,0 1.593,0.2124 2.018,0.6371 l 10.606,10.6067 c -0.424,-0.425 -1.097,-0.637 -2.017,-0.637 z"
           id="path384" />
        <path
           d="m 812.055,97.0033 c 0.077,0.0773 0.146,0.1615 0.207,0.2527 l 10.606,10.607 c -0.06,-0.092 -0.129,-0.176 -0.207,-0.253 z"
           id="path385" />
        <path
           d="m 812.262,97.256 c 0.395,0.4944 0.89,1.0877 1.483,1.7798 l 10.607,10.6062 c -0.594,-0.692 -1.088,-1.285 -1.484,-1.779 z"
           id="path386" />
        <path
           d="m 813.745,99.0358 c 0.692,0.5932 1.681,1.1862 2.966,1.7802 l 10.607,10.606 c -1.286,-0.593 -2.274,-1.186 -2.966,-1.78 z"
           id="path387" />
        <path
           d="m 816.711,100.816 c 1.384,0.494 3.56,0.741 6.526,0.741 l 10.606,10.607 c -2.966,0 -5.141,-0.247 -6.525,-0.742 z"
           id="path388" />
        <path
           d="m 823.237,101.557 c 2.966,0 5.586,-0.395 7.86,-1.186 l 10.607,10.606 c -2.274,0.791 -4.894,1.187 -7.861,1.187 z"
           id="path389" />
        <path
           d="m 831.097,100.371 c 2.373,-0.7914 3.758,-1.9285 4.153,-3.4116 l 10.607,10.6066 c -0.396,1.483 -1.78,2.62 -4.153,3.411 z"
           id="path390" />
        <path
           d="m 835.25,96.9594 v 0 l 10.607,10.6066 v 0 z"
           id="path391" />
        <path
           d="m 918.453,96.9594 c 0.198,-1.0876 0,-1.928 -0.593,-2.5213 l 10.607,10.6069 c 0.593,0.593 0.791,1.433 0.593,2.521 z"
           id="path392" />
        <path
           d="m 917.86,94.4381 c -0.042,-0.0494 -0.087,-0.0981 -0.135,-0.146 l 10.606,10.6069 c 0.048,0.048 0.093,0.096 0.136,0.146 z"
           id="path393" />
        <path
           d="m 917.725,94.2921 c -0.623,-0.623 -1.715,-1.1182 -3.276,-1.4854 l 10.607,10.6063 c 1.56,0.368 2.652,0.863 3.275,1.486 z"
           id="path394" />
        <path
           d="m 914.449,92.8067 c -1.681,-0.4944 -3.955,-0.9393 -6.822,-1.3348 l 10.606,10.6061 c 2.868,0.396 5.142,0.841 6.823,1.335 z"
           id="path395" />
        <path
           d="m 907.627,91.4719 c -2.868,-0.4944 -6.378,-1.1371 -10.531,-1.9281 l 10.607,10.6062 c 4.153,0.791 7.663,1.434 10.53,1.928 z"
           id="path396" />
        <path
           d="m 897.096,89.5438 c -6.097,-1.1535 -10.718,-3.3027 -13.863,-6.4474 L 893.84,93.703 c 3.145,3.1447 7.766,5.2939 13.863,6.447 z"
           id="path397" />
        <path
           d="m 883.233,83.0964 c -0.629,-0.629 -1.198,-1.2978 -1.709,-2.0064 l 10.606,10.6066 c 0.511,0.7086 1.081,1.3774 1.71,2.0064 z"
           id="path398" />
        <path
           d="m 881.524,81.09 c -3.065,-4.2516 -3.906,-9.7391 -2.522,-16.4626 l 10.607,10.6066 c -1.384,6.7235 -0.544,12.211 2.521,16.4626 z"
           id="path399" />
        <path
           d="m 879.002,64.6274 c 0.692,-3.3617 1.928,-6.4268 3.708,-9.1953 l 10.607,10.6066 c -1.78,2.7685 -3.016,5.8336 -3.708,9.1953 z"
           id="path400" />
        <path
           d="m 882.71,55.4321 c 1.879,-2.8674 4.351,-5.3393 7.416,-7.4156 l 10.606,10.6066 c -3.065,2.0763 -5.537,4.5482 -7.415,7.4156 z"
           id="path401" />
        <path
           d="m 890.126,48.0165 c 3.164,-2.0764 6.97,-3.6584 11.42,-4.746 l 10.606,10.6066 c -4.449,1.0876 -8.256,2.6696 -11.42,4.746 z"
           id="path402" />
        <path
           d="m 901.546,43.2705 c 4.449,-1.1865 9.64,-1.7798 15.573,-1.7798 l 10.606,10.6066 c -5.932,0 -11.123,0.5933 -15.573,1.7798 z"
           id="path403" />
        <path
           d="m 917.119,41.4907 c 4.844,0 9.343,0.6427 13.496,1.9281 l 10.607,10.6066 C 937.069,52.74 932.57,52.0973 927.725,52.0973 Z"
           id="path404" />
        <path
           d="m 930.615,43.4188 c 4.153,1.1865 7.712,2.7685 10.678,4.746 L 951.9,58.7714 c -2.966,-1.9775 -6.526,-3.5595 -10.678,-4.746 z"
           id="path405" />
        <path
           d="m 941.293,48.1648 c 1.669,1.0225 3.117,2.1474 4.346,3.3749 l 10.607,10.6066 c -1.229,-1.2275 -2.678,-2.3524 -4.346,-3.3749 z"
           id="path406" />
        <path
           d="m 945.639,51.5397 c 1.029,1.0279 1.904,2.1276 2.625,3.2991 l 10.607,10.6066 c -0.721,-1.1715 -1.596,-2.2712 -2.625,-3.2991 z"
           id="path407" />
        <path
           d="m 948.264,54.8388 c 1.582,2.4719 2.225,4.9437 1.928,7.4156 l 10.607,10.6066 c 0.296,-2.4719 -0.346,-4.9437 -1.928,-7.4156 z"
           id="path408" />
        <path
           d="m 950.192,62.2544 c -0.198,1.0876 -0.791,2.0269 -1.78,2.8179 l 10.607,10.6066 c 0.989,-0.791 1.582,-1.7303 1.78,-2.8179 z"
           id="path409" />
        <path
           d="m 948.412,65.0723 c -0.889,0.791 -1.878,1.1865 -2.966,1.1865 l 10.607,10.6066 c 1.087,0 2.076,-0.3955 2.966,-1.1865 z"
           id="path410" />
        <path
           d="m 945.446,66.2588 h -17.649 l 10.607,10.6066 h 17.649 z"
           id="path411" />
        <path
           d="m 927.797,66.2588 c -1.088,0 -1.928,-0.2471 -2.521,-0.7415 l 10.606,10.6066 c 0.594,0.4944 1.434,0.7415 2.522,0.7415 z"
           id="path412" />
        <path
           d="m 925.276,65.5173 c -0.495,-0.4944 -1.137,-1.0382 -1.928,-1.6315 l 10.606,10.6066 c 0.791,0.5933 1.434,1.1371 1.928,1.6315 z"
           id="path413" />
        <path
           d="m 923.348,63.8858 c -0.791,-0.5932 -1.879,-1.137 -3.263,-1.6314 l 10.606,10.6066 c 1.385,0.4944 2.472,1.0382 3.263,1.6314 z"
           id="path414" />
        <path
           d="m 920.085,62.2544 c -1.286,-0.4944 -3.214,-0.7415 -5.784,-0.7415 l 10.606,10.6066 c 2.571,0 4.499,0.2471 5.784,0.7415 z"
           id="path415" />
        <path
           d="m 914.301,61.5129 c -2.275,0 -4.252,0.346 -5.933,1.0381 l 10.607,10.6066 c 1.681,-0.6921 3.658,-1.0381 5.932,-1.0381 z"
           id="path416" />
        <path
           d="m 908.368,62.551 c -1.582,0.5933 -2.521,1.6315 -2.818,3.1146 l 10.607,10.6066 c 0.296,-1.4831 1.236,-2.5213 2.818,-3.1146 z"
           id="path417" />
        <path
           d="m 905.55,65.6656 c -0.296,1.0876 -0.247,1.928 0.149,2.5213 l 10.606,10.6066 c -0.395,-0.5933 -0.445,-1.4337 -0.148,-2.5213 z"
           id="path418" />
        <path
           d="m 905.699,68.1869 c 0.072,0.1081 0.16,0.2146 0.265,0.3195 l 10.607,10.6066 c -0.105,-0.1049 -0.194,-0.2114 -0.266,-0.3195 z"
           id="path419" />
        <path
           d="m 905.964,68.5064 c 0.471,0.4704 1.272,0.9077 2.404,1.3119 l 10.607,10.6066 c -1.132,-0.4042 -1.934,-0.8415 -2.404,-1.3119 z"
           id="path420" />
        <path
           d="m 908.368,69.8183 c 1.384,0.3955 3.362,0.8405 5.933,1.3348 l 10.606,10.6066 c -2.571,-0.4943 -4.548,-0.9393 -5.932,-1.3348 z"
           id="path421" />
        <path
           d="m 914.301,71.1531 c 2.57,0.3955 5.982,0.9393 10.233,1.6315 l 10.607,10.6066 c -4.252,-0.6922 -7.663,-1.236 -10.234,-1.6315 z"
           id="path422" />
        <path
           d="m 924.534,72.7846 c 4.351,0.791 7.96,1.9775 10.827,3.5595 l 10.607,10.6066 c -2.868,-1.582 -6.477,-2.7685 -10.827,-3.5595 z"
           id="path423" />
        <path
           d="m 935.361,76.3441 c 1.863,1.0278 3.455,2.2018 4.775,3.5219 l 10.607,10.6066 c -1.321,-1.3201 -2.912,-2.4941 -4.775,-3.5219 z"
           id="path424" />
        <path
           d="m 940.136,79.866 c 0.712,0.7116 1.345,1.4657 1.899,2.2622 l 10.607,10.6066 c -0.555,-0.7965 -1.188,-1.5506 -1.899,-2.2622 z"
           id="path425" />
        <path
           d="m 942.035,82.1282 c 1.681,2.1753 2.719,4.6471 3.115,7.4156 l 10.606,10.6062 c -0.395,-2.7681 -1.434,-5.2399 -3.114,-7.4152 z"
           id="path426" />
        <path
           d="m 945.15,89.5438 c 0.395,2.6696 0.296,5.4876 -0.297,8.4538 l 10.606,10.6064 c 0.594,-2.966 0.693,-5.784 0.297,-8.454 z"
           id="path427" />
        <path
           d="m 944.853,97.9976 c -0.692,3.3614 -1.978,6.4764 -3.856,9.3434 l 10.606,10.607 c 1.879,-2.868 3.164,-5.982 3.856,-9.344 z"
           id="path428" />
        <path
           d="m 940.997,107.341 c -1.879,2.868 -4.499,5.389 -7.861,7.564 l 10.607,10.607 c 3.362,-2.175 5.982,-4.697 7.86,-7.564 z"
           id="path429" />
        <path
           d="m 933.136,114.905 c -3.263,2.077 -7.366,3.708 -12.31,4.894 l 10.607,10.607 c 4.944,-1.186 9.047,-2.818 12.31,-4.894 z"
           id="path430" />
        <path
           d="m 920.826,119.799 c -4.845,1.187 -10.579,1.78 -17.204,1.78 l 10.607,10.607 c 6.624,0 12.359,-0.593 17.204,-1.78 z"
           id="path431" />
        <path
           d="m 903.622,121.579 c -5.24,0 -9.986,-0.642 -14.238,-1.928 l 10.607,10.607 c 4.251,1.285 8.997,1.928 14.238,1.928 z"
           id="path432" />
        <path
           d="m 889.384,119.651 c -4.251,-1.384 -7.86,-3.114 -10.827,-5.191 l 10.607,10.607 c 2.966,2.076 6.575,3.807 10.827,5.191 z"
           id="path433" />
        <path
           d="m 878.557,114.46 c -1.483,-1.038 -2.793,-2.126 -3.93,-3.263 l 10.607,10.607 c 1.137,1.137 2.447,2.225 3.93,3.263 z"
           id="path434" />
        <path
           d="m 874.627,111.197 c -1.137,-1.137 -2.101,-2.323 -2.892,-3.559 l 10.607,10.606 c 0.791,1.236 1.755,2.423 2.892,3.56 z"
           id="path435" />
        <path
           d="m 871.735,107.638 c -1.483,-2.472 -2.076,-4.894 -1.78,-7.267 l 10.607,10.606 c -0.297,2.373 0.297,4.796 1.78,7.267 z"
           id="path436" />
        <path
           d="m 869.955,100.371 c 0.198,-1.088 0.791,-2.0273 1.78,-2.8183 l 10.607,10.6063 c -0.989,0.791 -1.582,1.731 -1.78,2.818 z"
           id="path437" />
        <path
           d="m 871.735,97.5527 c 0.989,-0.791 2.027,-1.1865 3.115,-1.1865 l 10.606,10.6068 c -1.087,0 -2.126,0.395 -3.114,1.186 z"
           id="path438" />
        <path
           d="m 874.85,96.3662 h 18.39 l 10.607,10.6068 h -18.391 z"
           id="path439" />
        <path
           d="m 893.24,96.3662 c 0.921,0 1.593,0.2124 2.018,0.6371 l 10.607,10.6067 c -0.425,-0.425 -1.098,-0.637 -2.018,-0.637 z"
           id="path440" />
        <path
           d="m 895.258,97.0033 c 0.077,0.0773 0.146,0.1615 0.207,0.2527 l 10.607,10.607 c -0.061,-0.092 -0.13,-0.176 -0.207,-0.253 z"
           id="path441" />
        <path
           d="m 895.465,97.256 c 0.395,0.4944 0.89,1.0877 1.483,1.7798 l 10.607,10.6062 c -0.594,-0.692 -1.088,-1.285 -1.483,-1.779 z"
           id="path442" />
        <path
           d="m 896.948,99.0358 c 0.692,0.5932 1.681,1.1862 2.966,1.7802 l 10.607,10.606 c -1.285,-0.593 -2.274,-1.186 -2.966,-1.78 z"
           id="path443" />
        <path
           d="m 899.914,100.816 c 1.385,0.494 3.56,0.741 6.526,0.741 l 10.607,10.607 c -2.967,0 -5.142,-0.247 -6.526,-0.742 z"
           id="path444" />
        <path
           d="m 906.44,101.557 c 2.966,0 5.586,-0.395 7.861,-1.186 l 10.606,10.606 c -2.274,0.791 -4.894,1.187 -7.86,1.187 z"
           id="path445" />
        <path
           d="m 914.301,100.371 c 2.373,-0.7914 3.757,-1.9285 4.152,-3.4116 l 10.607,10.6066 c -0.396,1.483 -1.78,2.62 -4.153,3.411 z"
           id="path446" />
        <path
           d="m 918.453,96.9594 v 0 l 10.607,10.6066 v 0 z"
           id="path447" />
      </g>
      <path
         style="font-style:italic;font-weight:bold;font-size:148.312px;font-family:Rubik;-inkscape-font-specification:'Rubik Bold Italic';text-align:center;text-anchor:middle;fill:#ff7c00;stroke:#0076ff;stroke-width:12.8566;stroke-linejoin:bevel;paint-order:markers stroke fill"
         d="m -16.590246,6.3074972 q 8.6020964,0 16.0176964,2.372992 7.4156,2.2246798 12.4582096,6.6740388 5.04261,4.44936 7.11897,11.1234 2.22468,6.67404 0.44494,15.276136 -2.37299,11.1234 -8.45378,17.797439 -6.0807996,6.525728 -15.4244516,10.38184 L 6.5464304,105.2316 q 0.14831,0.74156 0,1.63143 -0.29663,1.33481 -1.48312,2.37299 -1.03819,0.88987 -2.373,0.88987 H -15.996998 q -2.96624,0 -4.004424,-1.33481 -1.038184,-1.3348 -1.48312,-2.66961 l -9.640279,-31.738767 h -15.127824 l -6.822352,31.738767 q -0.296624,1.63143 -1.779744,2.81793 -1.334808,1.18649 -2.96624,1.18649 h -19.428871 q -1.631432,0 -2.669616,-1.18649 -0.889872,-1.1865 -0.593248,-2.81793 l 20.467055,-95.809549 q 0.296624,-1.6314318 1.631432,-2.8179278 1.48312,-1.186496 3.114552,-1.186496 z M -41.358349,51.246032 h 16.759256 q 6.229103,0 10.826775,-2.372992 4.5976724,-2.372992 5.9324804,-8.602096 1.186496,-6.229104 -2.3729924,-8.602096 -3.559488,-2.372992 -9.788592,-2.372992 H -36.760677 Z M 48.22222,80.018559 q -0.74156,3.411176 0,5.635856 0.74156,2.22468 2.37299,3.559488 1.77974,1.334809 4.00442,1.928059 2.22468,0.44493 4.44936,0.44493 4.44936,0 7.26729,-0.88987 2.81793,-0.889871 4.8943,-2.521303 1.92805,-1.334808 2.66961,-1.631432 0.88987,-0.444936 2.66962,-0.444936 h 19.28056 q 3.26286,0 2.5213,3.262864 -0.29662,1.779747 -2.66961,5.487547 -2.373,3.55948 -7.4156,7.415598 -4.8943,3.7078 -12.75484,6.52572 -7.86053,2.81793 -19.28056,2.81793 -8.60209,0 -15.57276,-2.96624 -6.82235,-3.11455 -11.27171,-8.45378 -4.44936,-5.487548 -6.2291,-13.051455 -1.63143,-7.712224 0.44494,-17.05588 1.77974,-8.602096 5.48754,-15.721071 3.7078,-7.118976 9.49197,-12.161584 5.78416,-5.19092 13.6447,-7.860536 7.86054,-2.817928 18.09406,-2.817928 9.7886,0 16.61095,3.7078 6.97066,3.559488 11.1234,9.343656 4.15273,5.784168 5.33923,13.051455 1.33481,7.118976 -0.14831,14.237952 l -0.88987,4.152736 q -0.29663,1.631432 -1.77975,2.817928 -1.33481,1.186496 -2.96624,1.186496 z M 67.50278,51.542656 q -6.22911,0 -10.23353,3.7078 -4.00443,3.707799 -5.63586,8.305471 h 26.69616 q 0.44494,-4.597672 -2.22468,-8.305471 -2.5213,-3.7078 -8.60209,-3.7078 z m 91.65671,-18.539 h 18.24237 q 1.63144,0 2.52131,1.186496 0.88987,1.186496 0.59325,2.817928 l -3.11456,14.979512 q -0.29662,1.631432 -1.77974,2.817928 -1.48312,1.186496 -3.11455,1.186496 h -18.24238 l -10.67846,50.129454 q -0.29662,1.63143 -1.77974,2.81793 -1.33481,1.18649 -2.96624,1.18649 h -18.68732 q -1.63143,0 -2.66961,-1.18649 -0.88987,-1.1865 -0.59325,-2.81793 l 10.67846,-50.129454 h -10.23352 q -1.63144,0 -2.52131,-1.186496 -0.88987,-1.186496 -0.59325,-2.817928 l 3.11456,-14.979512 q 0.29662,-1.631432 1.77974,-2.817928 1.48312,-1.186496 3.11455,-1.186496 h 10.23353 l 0.88987,-4.004424 q 2.96624,-13.793016 11.86496,-21.2086148 8.89872,-7.41559995 25.06473,-7.41559995 h 15.57276 q 1.63143,0 2.5213,1.18649595 0.88987,1.186496 0.59325,2.817928 l -3.11455,14.9795108 q -0.44494,1.631432 -1.92806,2.817928 -1.33481,1.186496 -2.96624,1.186496 h -13.34808 q -3.55949,0 -5.33923,1.779744 -1.77974,1.779744 -2.37299,4.597672 z m 86.61419,0 q 1.63143,0 2.5213,1.186496 0.88987,1.186496 0.59325,2.817928 l -3.11455,14.979512 q -0.29663,1.631432 -1.77975,2.817928 -1.48312,1.186496 -3.11455,1.186496 h -13.49639 q -6.67404,0 -10.97509,3.559487 -4.15273,3.411176 -5.48754,10.085216 l -7.86054,36.484751 q -0.29662,1.63143 -1.77974,2.81793 -1.33481,1.18649 -2.96624,1.18649 h -18.68731 q -1.63143,0 -2.66962,-1.18649 -0.88987,-1.1865 -0.59325,-2.81793 l 14.68289,-69.11339 q 0.29663,-1.631432 1.77975,-2.817928 1.48312,-1.186496 3.11455,-1.186496 h 17.20419 q 1.63143,0 2.5213,1.186496 0.88988,1.186496 0.59325,2.817928 l -0.74156,3.411176 q 3.41118,-3.411176 7.71223,-5.339232 4.44936,-2.076368 12.16158,-2.076368 z m 27.28933,47.014903 q -0.74156,3.411176 0,5.635856 0.74156,2.22468 2.373,3.559488 1.77974,1.334809 4.00442,1.928059 2.22468,0.44493 4.44936,0.44493 4.44936,0 7.26729,-0.88987 2.81793,-0.889871 4.89429,-2.521303 1.92806,-1.334808 2.66962,-1.631432 0.88987,-0.444936 2.66962,-0.444936 h 19.28055 q 3.26287,0 2.52131,3.262864 -0.29663,1.779747 -2.66962,5.487547 -2.37299,3.55948 -7.4156,7.415598 -4.89429,3.7078 -12.75483,6.52572 -7.86053,2.81793 -19.28056,2.81793 -8.60209,0 -15.57276,-2.96624 -6.82235,-3.11455 -11.27171,-8.45378 -4.44936,-5.487548 -6.2291,-13.051455 -1.63144,-7.712224 0.44493,-17.05588 1.77975,-8.602096 5.48755,-15.721071 3.7078,-7.118976 9.49196,-12.161584 5.78417,-5.19092 13.64471,-7.860536 7.86053,-2.817928 18.09406,-2.817928 9.78859,0 16.61095,3.7078 6.97066,3.559488 11.12339,9.343656 4.15274,5.784168 5.33924,13.051455 1.3348,7.118976 -0.14832,14.237952 l -0.88987,4.152736 q -0.29662,1.631432 -1.77974,2.817928 -1.33481,1.186496 -2.96624,1.186496 z m 19.28056,-28.475903 q -6.2291,0 -10.23352,3.7078 -4.00443,3.707799 -5.63586,8.305471 h 26.69616 q 0.44494,-4.597672 -2.22468,-8.305471 -2.5213,-3.7078 -8.6021,-3.7078 z m 89.43208,35.446567 q 0.29662,-1.631432 -0.59325,-2.521304 -0.88987,-1.038184 -3.41118,-1.631432 -2.5213,-0.74156 -6.82235,-1.334808 -4.30105,-0.74156 -10.53015,-1.928056 -10.97509,-2.076368 -15.57276,-8.453784 -4.59767,-6.377416 -2.5213,-16.462631 1.03818,-5.042608 3.7078,-9.195344 2.81793,-4.301048 7.4156,-7.4156 4.74598,-3.114552 11.42002,-4.745984 6.67404,-1.779744 15.57276,-1.779744 7.26729,0 13.49639,1.928056 6.22911,1.779744 10.67847,4.745984 4.59767,2.817928 6.97066,6.67404 2.37299,3.7078 1.92806,7.4156 -0.29663,1.631432 -1.77975,2.817928 -1.33481,1.186496 -2.96624,1.186496 H 391.1193 q -1.63143,0 -2.5213,-0.74156 -0.74156,-0.74156 -1.92806,-1.631432 -1.18649,-0.889872 -3.26286,-1.631432 -1.92806,-0.74156 -5.78417,-0.74156 -3.41117,0 -5.93248,1.038184 -2.37299,0.889872 -2.81793,3.114552 -0.44493,1.631431 0.14832,2.521303 0.59324,0.889872 2.66961,1.631432 2.07637,0.593248 5.93248,1.334808 3.85611,0.593248 10.23353,1.631432 6.52573,1.186496 10.82678,3.559488 4.30104,2.372992 6.67404,5.784168 2.5213,3.262864 3.11455,7.4156 0.59325,4.004424 -0.29663,8.453784 -1.03818,5.042605 -3.85611,9.343655 -2.81793,4.301048 -7.86053,7.563908 -4.8943,3.11455 -12.3099,4.8943 -7.26729,1.77974 -17.20419,1.77974 -7.86054,0 -14.23795,-1.92805 -6.37742,-2.07637 -10.82678,-5.19092 -4.44936,-3.11456 -6.82235,-6.822358 -2.22468,-3.7078 -1.77974,-7.26728 0.29662,-1.631435 1.77974,-2.817931 1.48312,-1.186496 3.11455,-1.186496 h 18.39069 q 1.63143,0 2.22468,0.889872 0.59325,0.74156 1.48312,1.779744 1.03818,0.889872 2.96624,1.779741 2.07637,0.74156 6.52573,0.74156 4.44936,0 7.86053,-1.18649 3.55949,-1.186499 4.15274,-3.411179 z m 114.6453,19.132247 q -0.29663,1.63143 -1.77975,2.81793 -1.3348,1.18649 -2.96624,1.18649 h -18.68731 q -1.63143,0 -2.66961,-1.18649 -0.88988,-1.1865 -0.59325,-2.81793 l 8.00885,-37.522935 q 1.3348,-6.377416 -1.03819,-10.233528 -2.22468,-3.856111 -8.89872,-3.856111 -6.67404,0 -10.53015,3.856111 -3.85611,3.856112 -5.19092,10.233528 l -8.00885,37.522935 q -0.29662,1.63143 -1.77974,2.81793 -1.33481,1.18649 -2.96624,1.18649 h -18.68731 q -1.63144,0 -2.66962,-1.18649 -0.88987,-1.1865 -0.59325,-2.81793 L 438.13433,8.8288012 q 0.29663,-1.631432 1.63143,-2.817928 1.48312,-1.186496 3.11456,-1.186496 h 18.68731 q 1.63143,0 2.5213,1.186496 1.03819,1.186496 0.74156,2.817928 l -6.82235,31.5904548 q 3.11455,-3.114552 8.30547,-5.93248 5.33923,-2.96624 12.3099,-2.96624 6.08079,0 11.56833,2.076368 5.63586,1.928056 9.49197,6.080792 4.00442,4.152736 5.63586,10.530152 1.63143,6.377416 -0.14832,15.127823 z m 94.1782,-19.725495 q 1.63143,0 2.5213,1.186496 0.88988,1.186496 0.59325,2.817931 l -3.41117,15.721068 q -0.29663,1.63143 -1.77975,2.81793 -1.33481,1.18649 -2.96624,1.18649 h -68.66845 q -1.63143,0 -2.66962,-1.18649 -0.88987,-1.1865 -0.59325,-2.81793 l 20.46706,-95.809549 q 0.29662,-1.6314318 1.63143,-2.8179278 1.48312,-1.186496 3.11455,-1.186496 h 19.42887 q 1.63144,0 2.52131,1.186496 1.03818,1.186496 0.74156,2.8179278 l -16.16601,76.084054 z m 37.96795,-6.377416 q -0.74156,3.411176 0,5.635856 0.74156,2.22468 2.373,3.559488 1.77974,1.334809 4.00442,1.928059 2.22468,0.44493 4.44936,0.44493 4.44936,0 7.26729,-0.88987 2.81792,-0.889871 4.89429,-2.521303 1.92806,-1.334808 2.66962,-1.631432 0.88987,-0.444936 2.66961,-0.444936 h 19.28056 q 3.26287,0 2.52131,3.262864 -0.29663,1.779747 -2.66962,5.487547 -2.37299,3.55948 -7.4156,7.415598 -4.89429,3.7078 -12.75483,6.52572 -7.86054,2.81793 -19.28056,2.81793 -8.60209,0 -15.57276,-2.96624 -6.82235,-3.11455 -11.27171,-8.45378 -4.44936,-5.487548 -6.2291,-13.051455 -1.63144,-7.712224 0.44493,-17.05588 1.77975,-8.602096 5.48755,-15.721071 3.7078,-7.118976 9.49196,-12.161584 5.78417,-5.19092 13.64471,-7.860536 7.86053,-2.817928 18.09406,-2.817928 9.78859,0 16.61094,3.7078 6.97067,3.559488 11.1234,9.343656 4.15274,5.784168 5.33924,13.051455 1.3348,7.118976 -0.14832,14.237952 l -0.88987,4.152736 q -0.29662,1.631432 -1.77974,2.817928 -1.33481,1.186496 -2.96624,1.186496 z m 19.28056,-28.475903 q -6.2291,0 -10.23352,3.7078 -4.00443,3.707799 -5.63586,8.305471 h 26.69616 q 0.44493,-4.597672 -2.22468,-8.305471 -2.52131,-3.7078 -8.6021,-3.7078 z m 89.43202,35.446567 q 0.29662,-1.631432 -0.59325,-2.521304 -0.88987,-1.038184 -3.41118,-1.631432 -2.5213,-0.74156 -6.82235,-1.334808 -4.30105,-0.74156 -10.53015,-1.928056 -10.97509,-2.076368 -15.57276,-8.453784 -4.59767,-6.377416 -2.5213,-16.462631 1.03818,-5.042608 3.7078,-9.195344 2.81792,-4.301048 7.4156,-7.4156 4.74598,-3.114552 11.42002,-4.745984 6.67404,-1.779744 15.57276,-1.779744 7.26729,0 13.49639,1.928056 6.2291,1.779744 10.67846,4.745984 4.59768,2.817928 6.97067,6.67404 2.37299,3.7078 1.92805,7.4156 -0.29662,1.631432 -1.77974,2.817928 -1.33481,1.186496 -2.96624,1.186496 h -17.64913 q -1.63143,0 -2.5213,-0.74156 -0.74156,-0.74156 -1.92806,-1.631432 -1.18649,-0.889872 -3.26286,-1.631432 -1.92806,-0.74156 -5.78417,-0.74156 -3.41118,0 -5.93248,1.038184 -2.37299,0.889872 -2.81793,3.114552 -0.44493,1.631431 0.14831,2.521303 0.59325,0.889872 2.66962,1.631432 2.07637,0.593248 5.93248,1.334808 3.85611,0.593248 10.23353,1.631432 6.52573,1.186496 10.82677,3.559488 4.30105,2.372992 6.67404,5.784168 2.52131,3.262864 3.11456,7.4156 0.59324,4.004424 -0.29663,8.453784 -1.03818,5.042605 -3.85611,9.343655 -2.81793,4.301048 -7.86054,7.563908 -4.89429,3.11455 -12.30989,4.8943 -7.26729,1.77974 -17.20419,1.77974 -7.86054,0 -14.23795,-1.92805 -6.37742,-2.07637 -10.82678,-5.19092 -4.44936,-3.11456 -6.82235,-6.822358 -2.22468,-3.7078 -1.77975,-7.26728 0.29663,-1.631435 1.77975,-2.817931 1.48312,-1.186496 3.11455,-1.186496 h 18.39069 q 1.63143,0 2.22468,0.889872 0.59325,0.74156 1.48312,1.779744 1.03818,0.889872 2.96624,1.779741 2.07636,0.74156 6.52572,0.74156 4.44936,0 7.86054,-1.18649 3.55949,-1.186499 4.15274,-3.411179 z m 83.20318,0 q 0.29663,-1.631432 -0.59325,-2.521304 -0.88987,-1.038184 -3.41117,-1.631432 -2.52131,-0.74156 -6.82235,-1.334808 -4.30105,-0.74156 -10.53015,-1.928056 -10.97509,-2.076368 -15.57276,-8.453784 -4.59768,-6.377416 -2.52131,-16.462631 1.03819,-5.042608 3.7078,-9.195344 2.81793,-4.301048 7.4156,-7.4156 4.74599,-3.114552 11.42003,-4.745984 6.67403,-1.779744 15.57275,-1.779744 7.26729,0 13.4964,1.928056 6.2291,1.779744 10.67846,4.745984 4.59767,2.817928 6.97066,6.67404 2.373,3.7078 1.92806,7.4156 -0.29662,1.631432 -1.77974,2.817928 -1.33481,1.186496 -2.96624,1.186496 h -17.64913 q -1.63143,0 -2.52131,-0.74156 -0.74156,-0.74156 -1.92805,-1.631432 -1.1865,-0.889872 -3.26287,-1.631432 -1.92805,-0.74156 -5.78416,-0.74156 -3.41118,0 -5.93248,1.038184 -2.373,0.889872 -2.81793,3.114552 -0.44494,1.631431 0.14831,2.521303 0.59325,0.889872 2.66962,1.631432 2.07636,0.593248 5.93248,1.334808 3.85611,0.593248 10.23352,1.631432 6.52573,1.186496 10.82678,3.559488 4.30105,2.372992 6.67404,5.784168 2.5213,3.262864 3.11455,7.4156 0.59325,4.004424 -0.29662,8.453784 -1.03819,5.042605 -3.85611,9.343655 -2.81793,4.301048 -7.86054,7.563908 -4.8943,3.11455 -12.3099,4.8943 -7.26728,1.77974 -17.20419,1.77974 -7.86053,0 -14.23795,-1.92805 -6.37741,-2.07637 -10.82677,-5.19092 -4.44936,-3.11456 -6.82236,-6.822358 -2.22468,-3.7078 -1.77974,-7.26728 0.29662,-1.631435 1.77974,-2.817931 1.48312,-1.186496 3.11456,-1.186496 h 18.39068 q 1.63144,0 2.22468,0.889872 0.59325,0.74156 1.48312,1.779744 1.03819,0.889872 2.96624,1.779741 2.07637,0.74156 6.52573,0.74156 4.44936,0 7.86054,-1.18649 3.55948,-1.186499 4.15273,-3.411179 z"
         id="text2"
         inkscape:label="RefreshLess"
         aria-label="RefreshLess" />
    </g>
    <text
       xml:space="preserve"
       style="font-style:italic;font-weight:800;font-size:143.166px;font-family:'Exo 2';-inkscape-font-specification:'Exo 2, Ultra-Bold Italic';text-align:start;text-anchor:start;display:none;fill:#ff7c00;fill-opacity:1;stroke:#0076ff;stroke-width:12.4105;stroke-linejoin:bevel;stroke-dasharray:none;stroke-opacity:1;paint-order:markers stroke fill"
       x="366.21887"
       y="105.922"
       id="text1"
       inkscape:label="RefreshLess"><tspan
         sodipodi:role="line"
         id="tspan1"
         style="font-style:italic;font-variant:normal;font-weight:bold;font-stretch:normal;font-family:Rubik;-inkscape-font-specification:'Rubik Bold Italic';text-align:center;text-anchor:middle;fill:#ff7c00;fill-opacity:1;stroke:#0076ff;stroke-width:12.4105;stroke-linejoin:bevel;stroke-dasharray:none;stroke-opacity:1"
         x="366.2189"
         y="105.922">RefreshLess</tspan></text>
  </g>
</svg>
