<svg width="3520" height="512" viewBox="0 0 931.333 135.467" xmlns="http://www.w3.org/2000/svg">
  <g paint-order="markers stroke fill">
    <g fill="#0076ff">
      <path d="M823.442 71.177h36.12V93.31h-36.12zM481.314 69.58h19.308v19.467h-19.308z"/>
    </g>
    <g style="-inkscape-font-specification:&quot;Rubik Bold Italic&quot;;text-align:center" font-style="italic" font-weight="700" font-size="148.312" font-family="Rubik" text-anchor="middle" fill="#0076ff" stroke="#0076ff" stroke-width="12.857" stroke-linejoin="bevel">
      <path d="M71.528 15.23c5.536 0 10.69.764 15.462 2.292L97.23 27.76c-4.773-1.527-9.927-2.29-15.463-2.29z" stroke-width="12.4108621"/>
      <path d="M86.99 17.522c4.773 1.431 8.78 3.579 12.026 6.442l10.239 10.239c-3.245-2.864-7.254-5.011-12.026-6.443zM99.016 23.964c.378.334.744.678 1.097 1.031l10.239 10.239a23.57 23.57 0 0 0-1.097-1.031z" stroke-width="12.4108621"/>
      <path d="M100.113 24.995c2.67 2.677 4.594 5.913 5.775 9.706l10.239 10.239c-1.18-3.794-3.105-7.03-5.775-9.706z" stroke-width="12.4108621"/>
      <path d="M105.888 34.701c1.432 4.295 1.575 9.21.43 14.747l10.239 10.238c1.144-5.536 1.002-10.451-.43-14.746zM106.318 49.448c-1.528 7.158-4.248 12.884-8.161 17.18l10.239 10.238c3.913-4.295 6.633-10.022 8.16-17.18z" stroke-width="12.4108621"/>
      <path d="M98.157 66.627c-3.913 4.2-8.876 7.54-14.89 10.022l10.24 10.239c6.013-2.482 10.976-5.822 14.889-10.022z" stroke-width="12.4108621"/>
      <path d="m83.268 76.649 10.594 34.074 10.24 10.238-10.596-34.073z" stroke-width="12.4108621"/>
      <path d="M93.862 110.723c.096.477.096 1.002 0 1.574l10.24 10.24c.094-.573.094-1.098 0-1.576zM93.862 112.297c-.19.86-.668 1.623-1.431 2.29l10.238 10.24c.763-.668 1.241-1.432 1.432-2.29zM92.43 114.588c-.667.572-1.43.859-2.29.859l10.238 10.239c.86 0 1.623-.287 2.29-.86zM90.14 115.447H72.101l10.239 10.239h18.038zM72.101 115.447c-1.737 0-2.96-.355-3.67-1.067l10.24 10.24c.709.71 1.932 1.066 3.669 1.066z" stroke-width="12.4108621"/>
      <path d="M68.432 114.38a2.316 2.316 0 0 1-.196-.222l10.238 10.24c.06.076.126.15.196.221zM68.236 114.158c-.669-.859-1.146-1.717-1.432-2.576l10.238 10.238c.287.859.764 1.718 1.432 2.577zM66.804 111.582l-9.306-30.638 10.239 10.239 9.305 30.637Z" stroke-width="12.4108621"/>
      <path d="M57.498 80.944H42.895l10.239 10.239h14.603z" stroke-width="12.4108621"/>
      <path d="m42.895 80.944-6.585 30.638 10.238 10.238 6.586-30.637z" stroke-width="12.4108621"/>
      <path d="M36.31 111.582c-.191 1.05-.764 1.956-1.719 2.72l10.24 10.238c.954-.764 1.526-1.67 1.717-2.72zM34.591 114.302c-.858.764-1.813 1.145-2.863 1.145l10.239 10.239c1.05 0 2.004-.382 2.863-1.146z" stroke-width="12.4108621"/>
      <path d="M31.728 115.447H12.973l10.239 10.239h18.755zM12.973 115.447c-.962 0-1.764-.32-2.405-.963l10.238 10.24c.642.64 1.444.962 2.406.962z" stroke-width="12.4108621"/>
      <path d="M10.568 114.484a3.515 3.515 0 0 1-.172-.182l10.239 10.238c.056.064.113.125.171.183z" stroke-width="12.4108621"/>
      <path d="M10.396 114.302c-.572-.764-.763-1.67-.572-2.72l10.238 10.238c-.19 1.05 0 1.956.573 2.72z" stroke-width="12.4108621"/>
      <path d="M9.824 111.582 29.58 19.096l10.238 10.239-19.757 92.485ZM29.58 19.096c.192-1.05.717-1.956 1.576-2.72l10.238 10.239c-.859.763-1.384 1.67-1.575 2.72z" stroke-width="12.4108621"/>
      <path d="M31.156 16.376c.954-.763 1.956-1.145 3.006-1.145l10.239 10.238c-1.05 0-2.052.382-3.007 1.146z" stroke-width="12.4108621"/>
      <path d="M34.162 15.23h37.366l10.239 10.24H44.4ZM47.62 58.61h16.177L74.036 68.85H57.858ZM63.797 58.61c4.009 0 7.493-.763 10.451-2.29l10.24 10.238c-2.96 1.527-6.443 2.29-10.452 2.29z" stroke-width="12.4108621"/>
      <path d="M74.248 56.32c2.96-1.528 4.868-4.296 5.727-8.304l10.238 10.238c-.858 4.01-2.767 6.777-5.726 8.304z" stroke-width="12.4108621"/>
      <path d="M79.975 48.016c.658-3.452.183-5.984-1.424-7.596L88.789 50.66c1.607 1.612 2.082 4.144 1.424 7.595z" stroke-width="12.4108621"/>
      <path d="M78.55 40.42a5.636 5.636 0 0 0-.866-.708l10.24 10.239c.317.212.606.448.865.708z" stroke-width="12.4108621"/>
      <path d="M77.684 39.712c-2.29-1.527-5.44-2.29-9.448-2.29L78.474 47.66c4.009 0 7.158.764 9.45 2.29z" stroke-width="12.4108621"/>
      <path d="M68.236 37.422H52.058L62.296 47.66h16.178zM52.058 37.422 47.62 58.61 57.858 68.85l4.438-21.189ZM134.092 86.384c-.478 2.196-.478 4.009 0 5.44l10.238 10.239c-.477-1.432-.477-3.245 0-5.44zM134.092 91.825c.398 1.193.994 2.187 1.79 2.982l10.238 10.239c-.796-.796-1.392-1.79-1.79-2.983z" stroke-width="12.4108621"/>
      <path d="M135.882 94.807c.158.16.325.31.5.454l10.239 10.238a6.984 6.984 0 0 1-.501-.453z" stroke-width="12.4108621"/>
      <path d="M136.383 95.26a11.16 11.16 0 0 0 3.865 1.862l10.239 10.239a11.188 11.188 0 0 1-3.866-1.862z" stroke-width="12.4108621"/>
      <path d="M140.248 97.122a21.82 21.82 0 0 0 4.295.43l10.239 10.238c-1.432 0-2.864-.144-4.295-.43z" stroke-width="12.4108621"/>
      <path d="M144.543 97.551c2.864 0 5.202-.287 7.015-.859l10.238 10.239c-1.812.572-4.151.86-7.014.86zM151.558 96.692c1.813-.572 3.389-1.384 4.725-2.434l10.239 10.24c-1.337 1.049-2.912 1.86-4.726 2.433zM156.283 94.258c1.24-.859 2.1-1.384 2.577-1.574l10.238 10.238c-.477.191-1.336.716-2.576 1.575z" stroke-width="12.4108621"/>
      <path d="M158.86 92.684c.572-.287 1.431-.43 2.576-.43l10.24 10.239c-1.147 0-2.005.142-2.578.43z" stroke-width="12.4108621"/>
      <path d="M161.436 92.254h18.612l10.238 10.239h-18.61z" stroke-width="12.4108621"/>
      <path d="M180.048 92.254c.94 0 1.623.21 2.046.632l10.239 10.239c-.424-.422-1.106-.632-2.047-.632z" stroke-width="12.4108621"/>
      <path d="M182.094 92.886c.522.52.651 1.358.388 2.518l10.239 10.238c.263-1.159.134-1.998-.388-2.517z" stroke-width="12.4108621"/>
      <path d="M182.482 95.404c-.191 1.145-1.05 2.91-2.577 5.297l10.238 10.239c1.528-2.386 2.387-4.152 2.578-5.298z" stroke-width="12.4108621"/>
      <path d="M179.905 100.7c-1.527 2.292-3.913 4.678-7.158 7.16l10.239 10.238c3.244-2.482 5.63-4.867 7.157-7.158z" stroke-width="12.4108621"/>
      <path d="M172.747 107.86c-3.15 2.385-7.254 4.485-12.313 6.298l10.24 10.24c5.057-1.815 9.162-3.914 12.312-6.3zM160.434 114.158c-5.058 1.814-11.262 2.72-18.61 2.72l10.237 10.24c7.35 0 13.553-.907 18.612-2.72z" stroke-width="12.4108621"/>
      <path d="M141.823 116.878c-5.536 0-10.547-.954-15.032-2.863l10.238 10.24c4.486 1.908 9.496 2.862 15.032 2.862z" stroke-width="12.4108621"/>
      <path d="M126.79 114.015c-3.567-1.628-6.63-3.73-9.189-6.303l10.239 10.239c2.559 2.573 5.622 4.675 9.189 6.303z" stroke-width="12.4108621"/>
      <path d="M117.601 107.712a28.277 28.277 0 0 1-1.691-1.857l10.239 10.239c.536.643 1.1 1.263 1.691 1.857z" stroke-width="12.4108621"/>
      <path d="M115.91 105.855c-2.863-3.531-4.868-7.731-6.013-12.599l10.239 10.239c1.145 4.868 3.149 9.067 6.013 12.599z" stroke-width="12.4108621"/>
      <path d="M109.897 93.256c-1.05-4.963-.907-10.45.43-16.464l10.238 10.239c-1.337 6.013-1.48 11.5-.43 16.464z" stroke-width="12.4108621"/>
      <path d="M110.326 76.792c1.145-5.536 2.912-10.594 5.297-15.175l10.24 10.238c-2.387 4.582-4.153 9.64-5.298 15.176z" stroke-width="12.4108621"/>
      <path d="M115.623 61.617c2.386-4.582 5.44-8.495 9.163-11.74l10.239 10.239c-3.723 3.245-6.777 7.158-9.163 11.74z" stroke-width="12.4108621"/>
      <path d="M124.786 49.877c3.723-3.34 8.113-5.87 13.171-7.588l10.24 10.239c-5.06 1.718-9.45 4.247-13.172 7.588z" stroke-width="12.4108621"/>
      <path d="M137.957 42.29c5.058-1.814 10.881-2.721 17.466-2.721l10.24 10.239c-6.587 0-12.409.906-17.467 2.72zM155.423 39.569c6.3 0 11.645 1.193 16.035 3.58l10.24 10.238c-4.391-2.386-9.736-3.58-16.036-3.58z" stroke-width="12.4108621"/>
      <path d="M171.458 43.148c3.053 1.56 5.686 3.45 7.9 5.672l10.237 10.238c-2.212-2.222-4.846-4.112-7.898-5.671z" stroke-width="12.4108621"/>
      <path d="M179.357 48.82a27.36 27.36 0 0 1 2.84 3.348l10.237 10.238a27.19 27.19 0 0 0-2.839-3.348zM182.196 52.168c2.672 3.722 4.39 7.921 5.154 12.598l10.238 10.239c-.764-4.677-2.481-8.876-5.154-12.599z" stroke-width="12.4108621"/>
      <path d="M187.35 64.766a35.06 35.06 0 0 1-.144 13.744l10.239 10.239a35.06 35.06 0 0 0 .143-13.744z" stroke-width="12.4108621"/>
      <path d="m187.206 78.51-.858 4.009 10.238 10.238.859-4.008z" stroke-width="12.4108621"/>
      <path d="M186.348 82.519c-.191 1.05-.764 1.956-1.718 2.72l10.238 10.239c.954-.764 1.527-1.67 1.718-2.72zM184.63 85.239c-.86.764-1.814 1.145-2.863 1.145l10.238 10.239c1.05 0 2.004-.382 2.863-1.145z" stroke-width="12.4108621"/>
      <path d="M181.767 86.384h-47.675l10.238 10.239h47.675zM152.703 58.896c-4.008 0-7.301 1.193-9.878 3.58l10.238 10.238c2.578-2.386 5.87-3.579 9.88-3.579z" stroke-width="12.4108621"/>
      <path d="M142.825 62.476c-2.577 2.386-4.39 5.058-5.44 8.017l10.238 10.238c1.05-2.958 2.864-5.63 5.44-8.017z" stroke-width="12.4108621"/>
      <path d="M137.385 70.493h25.77l10.239 10.238h-25.771Z" stroke-width="12.4108621"/>
      <path d="M163.155 70.493c.286-2.959-.43-5.631-2.148-8.017l10.239 10.238c1.718 2.386 2.433 5.059 2.148 8.017z" stroke-width="12.4108621"/>
      <path d="M161.007 62.476a7.378 7.378 0 0 0-.907-1.094l10.24 10.239c.333.33.635.695.906 1.093z" stroke-width="12.4108621"/>
      <path d="M160.1 61.382c-1.67-1.657-4.136-2.486-7.397-2.486l10.24 10.24c3.26 0 5.725.827 7.396 2.485zM152.703 58.896l10.24 10.24zM241.18 41h17.609l10.239 10.24h-17.61z" stroke-width="12.4108621"/>
      <path d="M258.789 41c.888 0 1.606.274 2.153.82l10.239 10.24c-.548-.548-1.265-.82-2.153-.82z" stroke-width="12.4108621"/>
      <path d="M260.942 41.82c.099.1.193.208.281.326l10.238 10.239a2.983 2.983 0 0 0-.28-.326zM261.223 42.146c.573.764.764 1.67.573 2.72l10.239 10.239c.19-1.05 0-1.957-.574-2.72z" stroke-width="12.4108621"/>
      <path d="m261.796 44.866-3.007 14.46 10.239 10.239 3.007-14.46z" stroke-width="12.4108621"/>
      <path d="M258.789 59.326c-.19 1.05-.764 1.957-1.717 2.72l10.238 10.239c.954-.764 1.527-1.67 1.718-2.72zM257.072 62.046c-.955.764-1.957 1.145-3.007 1.145l10.239 10.239c1.05 0 2.051-.382 3.006-1.145z" stroke-width="12.4108621"/>
      <path d="M254.065 63.191h-17.61l10.239 10.239h17.61z" stroke-width="12.4108621"/>
      <path d="m236.456 63.191-10.309 48.39 10.24 10.239 10.307-48.39zM226.147 111.582c-.19 1.05-.763 1.956-1.718 2.72l10.239 10.238c.955-.764 1.527-1.67 1.718-2.72z" stroke-width="12.4108621"/>
      <path d="M224.43 114.302c-.86.764-1.814 1.145-2.864 1.145l10.239 10.239c1.05 0 2.004-.382 2.863-1.146z" stroke-width="12.4108621"/>
      <path d="M221.566 115.447h-18.039l10.24 10.239h18.038zM203.527 115.447c-.962 0-1.764-.32-2.406-.963l10.239 10.24c.642.64 1.444.962 2.406.962z" stroke-width="12.4108621"/>
      <path d="M201.12 114.484a3.88 3.88 0 0 1-.17-.182l10.239 10.238c.056.064.113.125.17.183z" stroke-width="12.4108621"/>
      <path d="M200.95 114.302c-.572-.764-.764-1.67-.572-2.72l10.239 10.238c-.192 1.05 0 1.956.572 2.72zM200.378 111.582l10.308-48.39 10.238 10.238-10.307 48.39Z" stroke-width="12.4108621"/>
      <path d="M210.686 63.191h-9.879l10.24 10.239h9.877zM200.807 63.191c-.889 0-1.606-.273-2.152-.82l10.238 10.239c.547.547 1.264.82 2.153.82z" stroke-width="12.4108621"/>
      <path d="M198.655 62.371c-.1-.1-.194-.208-.281-.325l10.238 10.239c.087.117.181.225.28.325z" stroke-width="12.4108621"/>
      <path d="M198.374 62.046c-.574-.763-.764-1.67-.574-2.72l10.24 10.239c-.192 1.05 0 1.956.572 2.72z" stroke-width="12.4108621"/>
      <path d="m197.8 59.326 3.007-14.46 10.24 10.239-3.008 14.46z" stroke-width="12.4108621"/>
      <path d="M200.807 44.866c.191-1.05.764-1.956 1.718-2.72l10.238 10.239c-.953.763-1.527 1.67-1.717 2.72zM202.525 42.146c.954-.763 1.957-1.145 3.006-1.145l10.24 10.238c-1.05 0-2.053.382-3.008 1.146z" stroke-width="12.4108621"/>
      <path d="M205.531 41h9.88l10.237 10.24h-9.878z" stroke-width="12.4108621"/>
      <path d="m215.41 41 .86-3.865 10.237 10.239-.859 3.865z" stroke-width="12.4108621"/>
      <path d="M216.27 37.135c1.908-8.876 5.726-15.7 11.453-20.473l10.238 10.24c-5.727 4.771-9.544 11.596-11.454 20.472zM227.723 16.662c5.726-4.772 13.79-7.158 24.194-7.158l10.239 10.239c-10.403 0-18.468 2.386-24.195 7.158z" stroke-width="12.4108621"/>
      <path d="M251.917 9.504h15.033l10.239 10.239h-15.033ZM266.95 9.504c.889 0 1.606.274 2.152.82l10.24 10.24c-.547-.548-1.265-.821-2.153-.821z" stroke-width="12.4108621"/>
      <path d="M269.102 10.325c.1.099.193.207.281.325l10.24 10.238a3.002 3.002 0 0 0-.282-.325zM269.383 10.65c.574.763.764 1.67.574 2.72l10.238 10.238c.19-1.05 0-1.956-.573-2.72zM269.957 13.37l-3.007 14.46 10.239 10.238 3.006-14.46zM266.95 27.83c-.286 1.05-.907 1.956-1.861 2.72l10.239 10.238c.953-.763 1.574-1.67 1.86-2.72z" stroke-width="12.4108621"/>
      <path d="M265.089 30.55c-.86.763-1.814 1.145-2.864 1.145l10.238 10.239c1.05 0 2.005-.382 2.865-1.146z" stroke-width="12.4108621"/>
      <path d="M262.225 31.695h-12.884l10.238 10.239h12.884zM249.34 31.695c-2.29 0-4.008.573-5.153 1.718l10.238 10.238c1.146-1.145 2.863-1.717 5.154-1.717zM244.187 33.413c-1.146 1.145-1.91 2.625-2.29 4.438l10.237 10.239c.382-1.814 1.146-3.293 2.29-4.439z" stroke-width="12.4108621"/>
      <path d="m241.896 37.851-.716 3.15 10.239 10.238.715-3.15zM324.789 41c.889 0 1.606.274 2.152.82l10.24 10.24c-.548-.547-1.265-.82-2.153-.82z" stroke-width="12.4108621"/>
      <path d="M326.941 41.82c.1.1.193.209.281.326l10.24 10.239a2.988 2.988 0 0 0-.282-.326zM327.222 42.146c.574.764.764 1.67.574 2.72l10.238 10.239c.19-1.05 0-1.957-.573-2.72zM327.796 44.866l-3.007 14.46 10.239 10.239 3.006-14.46z" stroke-width="12.4108621"/>
      <path d="M324.789 59.326c-.191 1.05-.764 1.957-1.719 2.72l10.24 10.239c.954-.764 1.526-1.67 1.718-2.72zM323.07 62.046c-.953.764-1.956 1.145-3.006 1.145l10.238 10.239c1.05 0 2.053-.382 3.007-1.145zM320.064 63.191h-13.028l10.239 10.239h13.027z" stroke-width="12.4108621"/>
      <path d="M307.036 63.191c-4.295 0-7.826 1.146-10.594 3.436l10.239 10.239c2.767-2.29 6.3-3.436 10.594-3.436z" stroke-width="12.4108621"/>
      <path d="M296.442 66.627c-2.672 2.196-4.438 5.44-5.297 9.736L301.383 86.6c.86-4.295 2.626-7.54 5.298-9.735zM291.145 76.363l-7.588 35.219 10.239 10.238 7.587-35.219z" stroke-width="12.4108621"/>
      <path d="M283.557 111.582c-.19 1.05-.764 1.956-1.718 2.72l10.238 10.238c.955-.764 1.528-1.67 1.719-2.72z" stroke-width="12.4108621"/>
      <path d="M281.84 114.302c-.86.764-1.814 1.145-2.865 1.145l10.24 10.239c1.05 0 2.003-.382 2.862-1.146z" stroke-width="12.4108621"/>
      <path d="M278.975 115.447h-18.038l10.239 10.239h18.038z" stroke-width="12.4108621"/>
      <path d="M260.937 115.447c-.963 0-1.765-.32-2.406-.963l10.238 10.24c.642.64 1.444.962 2.407.962z" stroke-width="12.4108621"/>
      <path d="M258.531 114.484a3.445 3.445 0 0 1-.172-.182l10.24 10.238c.055.064.112.125.17.183z" stroke-width="12.4108621"/>
      <path d="M258.36 114.302c-.573-.764-.764-1.67-.573-2.72l10.239 10.238c-.191 1.05 0 1.956.572 2.72z" stroke-width="12.4108621"/>
      <path d="m257.787 111.582 14.174-66.716L282.2 55.105l-14.174 66.715z" stroke-width="12.4108621"/>
      <path d="M271.96 44.866c.192-1.05.764-1.956 1.719-2.72l10.238 10.239c-.954.763-1.527 1.67-1.717 2.72z" stroke-width="12.4108621"/>
      <path d="M273.679 42.146c.954-.763 1.956-1.145 3.006-1.145l10.239 10.238c-1.05 0-2.053.382-3.007 1.146z" stroke-width="12.4108621"/>
      <path d="M276.685 41h16.608l10.238 10.24h-16.607z" stroke-width="12.4108621"/>
      <path d="M293.293 41c.888 0 1.606.274 2.153.822l10.238 10.238c-.546-.547-1.264-.82-2.153-.82z" stroke-width="12.4108621"/>
      <path d="M295.446 41.822c.099.099.192.207.28.324l10.238 10.239a2.885 2.885 0 0 0-.28-.325zM295.726 42.146c.573.764.764 1.67.573 2.72l10.239 10.239c.19-1.05 0-1.957-.574-2.72z" stroke-width="12.4108621"/>
      <path d="m296.299 44.866-.716 3.293 10.238 10.239.717-3.293z" stroke-width="12.4108621"/>
      <path d="M295.583 48.159c2.196-2.195 4.676-3.913 7.445-5.154l10.238 10.239a24.814 24.814 0 0 0-7.445 5.154z" stroke-width="12.4108621"/>
      <path d="M303.028 43.005c2.863-1.336 6.776-2.004 11.739-2.004l10.239 10.238c-4.964 0-8.876.668-11.74 2.005z" stroke-width="12.4108621"/>
      <path d="M314.767 41h10.022l10.239 10.24h-10.022zM351.132 86.384c-.478 2.196-.478 4.009 0 5.44l10.238 10.239c-.477-1.432-.477-3.245 0-5.44zM351.132 91.825c.396 1.193.993 2.187 1.788 2.982l10.24 10.239c-.796-.796-1.393-1.79-1.79-2.983z" stroke-width="12.4108621"/>
      <path d="M352.92 94.807c.16.16.327.31.502.454l10.238 10.238a6.984 6.984 0 0 1-.5-.453z" stroke-width="12.4108621"/>
      <path d="M353.422 95.26a11.16 11.16 0 0 0 3.865 1.862l10.24 10.239a11.18 11.18 0 0 1-3.867-1.862z" stroke-width="12.4108621"/>
      <path d="M357.287 97.122a21.82 21.82 0 0 0 4.295.43l10.24 10.238c-1.432 0-2.864-.144-4.296-.43z" stroke-width="12.4108621"/>
      <path d="M361.582 97.551c2.864 0 5.202-.287 7.016-.859l10.238 10.239c-1.813.572-4.152.86-7.015.86zM368.598 96.692c1.813-.572 3.388-1.384 4.724-2.434l10.238 10.24c-1.336 1.049-2.91 1.86-4.724 2.433zM373.322 94.258c1.24-.859 2.1-1.384 2.576-1.574l10.24 10.238c-.477.191-1.337.716-2.578 1.575z" stroke-width="12.4108621"/>
      <path d="M375.898 92.684c.574-.287 1.433-.43 2.578-.43l10.239 10.239c-1.146 0-2.005.142-2.578.43z" stroke-width="12.4108621"/>
      <path d="M378.476 92.254h18.612l10.238 10.239h-18.611z" stroke-width="12.4108621"/>
      <path d="M397.088 92.254c.941 0 1.624.211 2.047.634l10.24 10.239c-.425-.423-1.107-.634-2.05-.634z" stroke-width="12.4108621"/>
      <path d="M399.135 92.888c.52.52.65 1.358.386 2.516l10.24 10.238c.262-1.157.134-1.996-.387-2.515z" stroke-width="12.4108621"/>
      <path d="M399.521 95.404c-.19 1.145-1.05 2.91-2.577 5.297l10.239 10.239c1.527-2.386 2.386-4.152 2.577-5.298z" stroke-width="12.4108621"/>
      <path d="M396.944 100.7c-1.527 2.292-3.913 4.678-7.158 7.16l10.238 10.238c3.246-2.482 5.632-4.867 7.159-7.158zM389.786 107.86c-3.15 2.385-7.254 4.485-12.312 6.298l10.239 10.24c5.058-1.815 9.162-3.914 12.311-6.3z" stroke-width="12.4108621"/>
      <path d="M377.474 114.158c-5.058 1.814-11.262 2.72-18.612 2.72l10.239 10.24c7.349 0 13.553-.907 18.612-2.72z" stroke-width="12.4108621"/>
      <path d="M358.862 116.878c-5.535 0-10.546-.954-15.032-2.863l10.238 10.24c4.486 1.908 9.497 2.862 15.033 2.862z" stroke-width="12.4108621"/>
      <path d="M343.83 114.015c-3.544-1.618-6.59-3.703-9.14-6.254l10.238 10.24c2.55 2.55 5.596 4.634 9.14 6.253z" stroke-width="12.4108621"/>
      <path d="M334.69 107.761a28.054 28.054 0 0 1-1.74-1.906l10.237 10.239a28.808 28.808 0 0 0 1.74 1.906z" stroke-width="12.4108621"/>
      <path d="M332.95 105.855c-2.864-3.531-4.869-7.731-6.014-12.599l10.238 10.239c1.146 4.868 3.15 9.067 6.013 12.599z" stroke-width="12.4108621"/>
      <path d="M326.936 93.256c-1.05-4.963-.907-10.45.43-16.464l10.238 10.239c-1.336 6.013-1.479 11.5-.43 16.464z" stroke-width="12.4108621"/>
      <path d="M327.366 76.792c1.145-5.536 2.91-10.594 5.297-15.175l10.239 10.238c-2.387 4.582-4.152 9.64-5.298 15.176z" stroke-width="12.4108621"/>
      <path d="M332.663 61.617c2.386-4.582 5.44-8.495 9.162-11.74l10.24 10.239c-3.723 3.245-6.777 7.158-9.163 11.74z" stroke-width="12.4108621"/>
      <path d="M341.825 49.877c3.722-3.34 8.114-5.87 13.172-7.588l10.239 10.239c-5.06 1.718-9.45 4.247-13.172 7.588z" stroke-width="12.4108621"/>
      <path d="M354.997 42.29c5.058-1.814 10.88-2.721 17.466-2.721l10.239 10.239c-6.586 0-12.408.906-17.466 2.72zM372.463 39.569c6.3 0 11.644 1.193 16.035 3.58l10.239 10.238c-4.392-2.386-9.736-3.58-16.035-3.58z" stroke-width="12.4108621"/>
      <path d="M388.498 43.148c3.028 1.546 5.643 3.419 7.844 5.617l10.239 10.239c-2.202-2.199-4.817-4.071-7.844-5.617z" stroke-width="12.4108621"/>
      <path d="M396.342 48.765a27.176 27.176 0 0 1 2.893 3.403l10.239 10.238a27.34 27.34 0 0 0-2.893-3.402z" stroke-width="12.4108621"/>
      <path d="M399.235 52.168c2.673 3.722 4.39 7.921 5.154 12.598l10.238 10.239c-.763-4.677-2.481-8.876-5.153-12.599z" stroke-width="12.4108621"/>
      <path d="M404.39 64.766c.858 4.582.81 9.163-.144 13.744l10.239 10.239a35.06 35.06 0 0 0 .142-13.744z" stroke-width="12.4108621"/>
      <path d="m404.246 78.51-.86 4.009 10.24 10.238.859-4.008z" stroke-width="12.4108621"/>
      <path d="M403.386 82.519c-.19 1.05-.763 1.956-1.717 2.72l10.238 10.239c.955-.764 1.527-1.67 1.718-2.72z" stroke-width="12.4108621"/>
      <path d="M401.67 85.239c-.86.764-1.815 1.145-2.865 1.145l10.24 10.239c1.05 0 2.003-.382 2.862-1.145zM398.805 86.384h-47.673l10.238 10.239h47.674zM369.743 58.896c-4.01 0-7.302 1.193-9.878 3.58l10.238 10.238c2.577-2.386 5.87-3.579 9.879-3.579zM359.865 62.476c-2.578 2.386-4.391 5.058-5.44 8.017l10.237 10.238c1.05-2.958 2.864-5.63 5.44-8.017z" stroke-width="12.4108621"/>
      <path d="M354.424 70.493h25.77l10.238 10.238h-25.77zM380.194 70.493c.286-2.959-.43-5.631-2.148-8.017l10.24 10.238c1.717 2.386 2.433 5.059 2.146 8.017z" stroke-width="12.4108621"/>
      <path d="M378.046 62.476a7.378 7.378 0 0 0-.906-1.094l10.238 10.239c.335.33.637.695.907 1.093z" stroke-width="12.4108621"/>
      <path d="M377.14 61.382c-1.67-1.657-4.136-2.486-7.397-2.486l10.239 10.24c3.26 0 5.726.827 7.396 2.485zM369.743 58.896l10.239 10.24zM456.072 93.113c.19-1.05 0-1.861-.573-2.434l10.238 10.24c.574.572.764 1.382.574 2.433z" stroke-width="12.4108621"/>
      <path d="M455.5 90.68a2.748 2.748 0 0 0-.132-.142l10.238 10.238c.047.047.09.094.131.142z" stroke-width="12.4108621"/>
      <path d="M455.368 90.538c-.601-.601-1.656-1.08-3.161-1.434l10.238 10.239c1.506.354 2.56.832 3.161 1.433z" stroke-width="12.4108621"/>
      <path d="M452.207 89.104c-1.623-.477-3.818-.906-6.587-1.288l10.24 10.238c2.767.382 4.962.812 6.585 1.289zM445.62 87.816a608.05 608.05 0 0 1-10.164-1.861l10.239 10.238c4.009.764 7.397 1.384 10.164 1.861z" stroke-width="12.4108621"/>
      <path d="M435.456 85.955c-5.886-1.114-10.346-3.188-13.382-6.224l10.239 10.239c3.036 3.035 7.496 5.11 13.382 6.223z" stroke-width="12.4108621"/>
      <path d="M422.074 79.731a15.835 15.835 0 0 1-1.65-1.937l10.238 10.239c.493.684 1.044 1.33 1.65 1.937z" stroke-width="12.4108621"/>
      <path d="M420.423 77.794c-2.959-4.104-3.77-9.4-2.433-15.891l10.238 10.238c-1.335 6.49-.525 11.788 2.434 15.892z" stroke-width="12.4108621"/>
      <path d="M417.99 61.903c.668-3.245 1.86-6.204 3.579-8.876l10.239 10.238c-1.718 2.673-2.912 5.631-3.58 8.876z" stroke-width="12.4108621"/>
      <path d="M421.569 53.027c1.814-2.768 4.199-5.154 7.159-7.159l10.238 10.239c-2.96 2.004-5.345 4.39-7.158 7.158zM428.728 45.868c3.054-2.004 6.728-3.531 11.023-4.58l10.238 10.238c-4.294 1.05-7.97 2.577-11.023 4.58z" stroke-width="12.4108621"/>
      <path d="M439.751 41.287c4.295-1.145 9.306-1.718 15.032-1.718l10.239 10.239c-5.727 0-10.737.572-15.033 1.718z" stroke-width="12.4108621"/>
      <path d="M454.783 39.569c4.677 0 9.02.62 13.029 1.861L478.05 51.67c-4.008-1.241-8.351-1.861-13.028-1.861z" stroke-width="12.4108621"/>
      <path d="M467.812 41.43c4.008 1.146 7.444 2.673 10.307 4.582l10.24 10.238c-2.864-1.909-6.3-3.436-10.31-4.581z" stroke-width="12.4108621"/>
      <path d="M478.12 46.012c1.613.989 3.014 2.077 4.202 3.265l10.24 10.239c-1.19-1.188-2.59-2.277-4.204-3.266z" stroke-width="12.4108621"/>
      <path d="M482.322 49.277c.99.99 1.832 2.049 2.526 3.177l10.238 10.239a17.367 17.367 0 0 0-2.525-3.177z" stroke-width="12.4108621"/>
      <path d="M484.848 52.454c1.527 2.386 2.148 4.772 1.861 7.158l10.24 10.239c.285-2.386-.336-4.772-1.863-7.158z" stroke-width="12.4108621"/>
      <path d="M486.71 59.612c-.192 1.05-.764 1.957-1.719 2.72l10.24 10.239c.954-.764 1.526-1.67 1.717-2.72zM484.991 62.332c-.859.764-1.813 1.146-2.863 1.146l10.239 10.238c1.05 0 2.004-.381 2.863-1.145z" stroke-width="12.4108621"/>
      <path d="M482.128 63.478h-17.037l10.238 10.238h17.038z" stroke-width="12.4108621"/>
      <path d="M465.091 63.478c-1.05 0-1.86-.239-2.434-.716L472.896 73c.572.477 1.384.715 2.433.715z" stroke-width="12.4108621"/>
      <path d="M462.657 62.762c-.477-.477-1.098-1.002-1.861-1.575l10.239 10.239c.763.572 1.384 1.097 1.86 1.575z" stroke-width="12.4108621"/>
      <path d="M460.796 61.187c-.764-.573-1.813-1.098-3.149-1.575l10.238 10.239c1.336.477 2.386 1.002 3.15 1.575zM457.647 59.612c-1.241-.477-3.102-.716-5.584-.716l10.239 10.24c2.482 0 4.343.238 5.583.715z" stroke-width="12.4108621"/>
      <path d="M452.063 58.896c-2.195 0-4.104.334-5.726 1.003l10.239 10.238c1.621-.668 3.53-1.002 5.726-1.002zM446.337 59.899c-1.528.572-2.434 1.574-2.72 3.006l10.238 10.239c.286-1.432 1.193-2.434 2.72-3.007z" stroke-width="12.4108621"/>
      <path d="M443.616 62.905c-.286 1.05-.238 1.861.143 2.434L454 75.577c-.383-.572-.43-1.383-.144-2.433z" stroke-width="12.4108621"/>
      <path d="M443.76 65.339c.069.104.155.207.256.308l10.238 10.239a2.081 2.081 0 0 1-.256-.309z" stroke-width="12.4108621"/>
      <path d="M444.016 65.647c.455.454 1.228.877 2.32 1.267l10.24 10.238c-1.093-.39-1.867-.812-2.322-1.266z" stroke-width="12.4108621"/>
      <path d="M446.337 66.914c1.336.381 3.245.811 5.726 1.288l10.239 10.239c-2.482-.477-4.39-.907-5.726-1.289z" stroke-width="12.4108621"/>
      <path d="M452.063 68.202c2.482.382 5.774.907 9.879 1.575l10.239 10.239c-4.105-.669-7.397-1.193-9.88-1.575zM461.942 69.777c4.199.764 7.683 1.909 10.451 3.436l10.238 10.239c-2.768-1.527-6.251-2.673-10.45-3.436z" stroke-width="12.4108621"/>
      <path d="M472.393 73.213c1.794.99 3.328 2.12 4.602 3.392l10.239 10.239c-1.274-1.271-2.808-2.402-4.603-3.392z" stroke-width="12.4108621"/>
      <path d="M476.995 76.605c.69.69 1.304 1.42 1.84 2.191l10.238 10.239a16.02 16.02 0 0 0-1.84-2.191z" stroke-width="12.4108621"/>
      <path d="M478.835 78.796c1.623 2.1 2.625 4.486 3.006 7.159l10.24 10.238c-.383-2.672-1.385-5.058-3.008-7.158z" stroke-width="12.4108621"/>
      <path d="M481.841 85.955c.383 2.577.287 5.297-.285 8.16l10.238 10.239c.573-2.863.668-5.584.286-8.161z" stroke-width="12.4108621"/>
      <path d="M481.556 94.115a25.817 25.817 0 0 1-3.723 9.02l10.238 10.238a25.805 25.805 0 0 0 3.723-9.02z" stroke-width="12.4108621"/>
      <path d="M477.833 103.134c-1.813 2.769-4.342 5.202-7.588 7.302l10.24 10.239c3.244-2.1 5.774-4.534 7.586-7.302zM470.245 110.436c-3.15 2.005-7.11 3.58-11.883 4.724l10.24 10.24c4.77-1.146 8.732-2.721 11.882-4.725zM458.362 115.16c-4.677 1.146-10.212 1.718-16.607 1.718l10.24 10.24c6.393 0 11.93-.573 16.606-1.719zM441.755 116.878c-5.058 0-9.64-.62-13.744-1.86l10.24 10.238c4.103 1.24 8.684 1.861 13.743 1.861z" stroke-width="12.4108621"/>
      <path d="M428.011 115.017c-4.104-1.336-7.588-3.006-10.451-5.01l10.239 10.238c2.863 2.004 6.347 3.675 10.451 5.011z" stroke-width="12.4108621"/>
      <path d="M417.56 110.006a28.278 28.278 0 0 1-3.794-3.15l10.24 10.24a28.278 28.278 0 0 0 3.793 3.15z" stroke-width="12.4108621"/>
      <path d="M413.766 106.857a20.495 20.495 0 0 1-2.791-3.436l10.238 10.238a20.46 20.46 0 0 0 2.792 3.437z" stroke-width="12.4108621"/>
      <path d="M410.975 103.421c-1.432-2.386-2.005-4.724-1.719-7.015l10.24 10.238c-.287 2.29.285 4.63 1.717 7.015z" stroke-width="12.4108621"/>
      <path d="M409.256 96.406c.192-1.05.764-1.957 1.719-2.72l10.238 10.238c-.954.764-1.527 1.671-1.718 2.72zM410.975 93.686c.954-.764 1.956-1.146 3.006-1.146l10.239 10.24c-1.05 0-2.053.38-3.007 1.144z" stroke-width="12.4108621"/>
      <path d="M413.98 92.54h17.754l10.238 10.24H424.22z" stroke-width="12.4108621"/>
      <path d="M431.734 92.54c.886 0 1.533.204 1.944.612l10.239 10.238c-.41-.407-1.06-.61-1.945-.61z" stroke-width="12.4108621"/>
      <path d="M433.678 93.152c.076.075.143.158.203.247l10.238 10.24a1.569 1.569 0 0 0-.202-.249z" stroke-width="12.4108621"/>
      <path d="M433.881 93.4c.382.477.86 1.05 1.432 1.717l10.239 10.239a67.942 67.942 0 0 1-1.433-1.718z" stroke-width="12.4108621"/>
      <path d="M435.313 95.117c.668.573 1.623 1.145 2.863 1.719l10.239 10.238c-1.241-.573-2.195-1.145-2.863-1.718zM438.176 96.836c1.336.477 3.436.715 6.3.715l10.237 10.24c-2.863 0-4.962-.24-6.298-.717z" stroke-width="12.4108621"/>
      <path d="M444.475 97.551c2.864 0 5.393-.381 7.588-1.145l10.239 10.238c-2.195.764-4.724 1.146-7.589 1.146z" stroke-width="12.4108621"/>
      <path d="M452.063 96.406c2.29-.764 3.627-1.861 4.009-3.293l10.239 10.239c-.383 1.431-1.719 2.529-4.01 3.292zM456.072 93.113l10.239 10.239zM566.739 111.582c-.19 1.05-.764 1.956-1.718 2.72l10.238 10.238c.955-.764 1.528-1.67 1.719-2.72zM565.021 114.302c-.859.764-1.813 1.145-2.864 1.145l10.24 10.239c1.05 0 2.003-.382 2.862-1.146z" stroke-width="12.4108621"/>
      <path d="M562.157 115.447H544.12l10.239 10.239h18.038zM544.119 115.447c-.963 0-1.765-.32-2.407-.963l10.24 10.238c.64.642 1.442.964 2.406.964z" stroke-width="12.4108621"/>
      <path d="M541.712 114.484a3.807 3.807 0 0 1-.17-.182l10.238 10.238c.056.064.112.125.171.182z" stroke-width="12.4108621"/>
      <path d="M541.542 114.302c-.573-.764-.763-1.67-.573-2.72l10.239 10.238c-.191 1.05 0 1.956.572 2.72zM540.969 111.582 548.7 75.36l10.24 10.24-7.732 36.22zM548.7 75.36c.86-4.104.525-7.396-1.002-9.878l10.24 10.239c1.526 2.481 1.86 5.774 1.001 9.878z" stroke-width="12.4108621"/>
      <path d="M547.698 65.482a6.333 6.333 0 0 0-1.018-1.328l10.239 10.24c.395.393.734.835 1.018 1.327z" stroke-width="12.4108621"/>
      <path d="M546.68 64.154c-1.603-1.596-4.127-2.394-7.572-2.394l10.239 10.238c3.445 0 5.968.799 7.572 2.395zM539.108 61.76c-4.295 0-7.683 1.24-10.165 3.722l10.24 10.239c2.48-2.482 5.868-3.723 10.164-3.723zM528.943 65.482c-2.481 2.482-4.151 5.774-5.01 9.878L534.17 85.6c.86-4.105 2.53-7.398 5.011-9.88z" stroke-width="12.4108621"/>
      <path d="m523.932 75.36-7.73 36.222 10.238 10.238 7.731-36.22zM516.201 111.582c-.19 1.05-.763 1.956-1.717 2.72l10.238 10.238c.955-.764 1.527-1.67 1.718-2.72z" stroke-width="12.4108621"/>
      <path d="M514.484 114.302c-.86.764-1.814 1.145-2.864 1.145l10.239 10.239c1.05 0 2.004-.382 2.863-1.146zM511.62 115.447h-18.039l10.24 10.239h18.038zM493.581 115.447c-.962 0-1.764-.32-2.405-.963l10.238 10.24c.642.64 1.444.962 2.406.962z" stroke-width="12.4108621"/>
      <path d="M491.176 114.484a3.445 3.445 0 0 1-.172-.182l10.239 10.238c.056.064.113.125.17.183zM491.004 114.302c-.572-.764-.764-1.67-.572-2.72l10.239 10.238c-.192 1.05 0 1.956.572 2.72z" stroke-width="12.4108621"/>
      <path d="m490.432 111.582 20.043-93.917 10.238 10.238-20.042 93.917zM510.475 17.665c.191-1.05.715-1.957 1.575-2.72l10.239 10.238c-.86.764-1.385 1.67-1.576 2.72z" stroke-width="12.4108621"/>
      <path d="M512.05 14.945c.954-.764 1.956-1.146 3.006-1.146l10.238 10.239c-1.049 0-2.05.382-3.005 1.145z" stroke-width="12.4108621"/>
      <path d="M515.056 13.8h18.04l10.238 10.238h-18.04z" stroke-width="12.4108621"/>
      <path d="M533.095 13.8c.89 0 1.606.273 2.153.82l10.239 10.238c-.547-.547-1.265-.82-2.153-.82z" stroke-width="12.4108621"/>
      <path d="M535.248 14.62c.1.099.193.207.28.325l10.24 10.238a2.984 2.984 0 0 0-.281-.325z" stroke-width="12.4108621"/>
      <path d="M535.529 14.945c.669.763.907 1.67.716 2.72l10.239 10.238c.19-1.05-.048-1.956-.716-2.72zM536.245 17.665l-6.585 30.494 10.238 10.239 6.586-30.495z" stroke-width="12.4108621"/>
      <path d="M529.66 48.159c2.004-2.004 4.675-3.913 8.016-5.727l10.24 10.239c-3.342 1.813-6.014 3.722-8.018 5.727z" stroke-width="12.4108621"/>
      <path d="M537.676 42.432c3.437-1.909 7.398-2.863 11.883-2.863l10.24 10.239c-4.488 0-8.448.954-11.884 2.863z" stroke-width="12.4108621"/>
      <path d="M549.56 39.569c3.913 0 7.635.668 11.166 2.004l10.239 10.239c-3.531-1.336-7.254-2.004-11.167-2.004z" stroke-width="12.4108621"/>
      <path d="M560.726 41.573c3.324 1.138 6.168 2.877 8.53 5.217l10.24 10.239c-2.363-2.34-5.207-4.08-8.531-5.217z" stroke-width="12.4108621"/>
      <path d="M569.256 46.79c.216.213.426.43.633.653l10.238 10.239c-.206-.223-.417-.44-.632-.653z" stroke-width="12.4108621"/>
      <path d="M569.889 47.443c2.577 2.673 4.39 6.06 5.44 10.165l10.239 10.238c-1.05-4.104-2.863-7.492-5.44-10.164zM575.329 57.608c1.05 4.104 1.002 8.972-.143 14.603l10.238 10.238c1.146-5.63 1.193-10.498.144-14.603z" stroke-width="12.4108621"/>
      <path d="m575.186 72.21-8.447 39.372 10.239 10.238 8.446-39.37zM657.65 92.54c.888 0 1.606.274 2.153.82l10.239 10.24c-.548-.548-1.265-.82-2.154-.82z" stroke-width="12.4108621"/>
      <path d="M659.803 93.36c.099.1.193.208.28.326l10.24 10.238a3.29 3.29 0 0 0-.281-.324zM660.083 93.686c.573.763.764 1.67.573 2.72l10.239 10.238c.191-1.049 0-1.956-.573-2.72z" stroke-width="12.4108621"/>
      <path d="m660.656 96.406-3.293 15.176 10.24 10.238 3.292-15.176z" stroke-width="12.4108621"/>
      <path d="M657.363 111.582c-.19 1.05-.763 1.956-1.718 2.72l10.239 10.238c.955-.764 1.527-1.67 1.718-2.72zM655.645 114.302c-.86.764-1.813 1.145-2.863 1.145l10.239 10.239c1.05 0 2.004-.382 2.863-1.146z" stroke-width="12.4108621"/>
      <path d="M652.782 115.447h-66.285l10.238 10.239h66.286zM586.497 115.447c-.963 0-1.765-.32-2.407-.963l10.239 10.24c.641.64 1.443.962 2.406.962z" stroke-width="12.4108621"/>
      <path d="M584.09 114.484a3.88 3.88 0 0 1-.17-.182l10.238 10.238c.055.064.112.125.171.183z" stroke-width="12.4108621"/>
      <path d="M583.92 114.302c-.573-.764-.764-1.67-.573-2.72l10.238 10.238c-.19 1.05 0 1.956.573 2.72z" stroke-width="12.4108621"/>
      <path d="m583.347 111.582 19.757-92.486 10.238 10.239-19.757 92.485zM603.104 19.096c.19-1.05.715-1.956 1.574-2.72l10.239 10.239c-.86.763-1.384 1.67-1.575 2.72z" stroke-width="12.4108621"/>
      <path d="M604.678 16.376c.955-.763 1.957-1.145 3.007-1.145l10.238 10.238c-1.05 0-2.051.382-3.006 1.146z" stroke-width="12.4108621"/>
      <path d="M607.685 15.23h18.755l10.238 10.24h-18.755zM626.44 15.23c.888 0 1.605.274 2.151.82l10.24 10.24c-.547-.547-1.265-.82-2.153-.82z" stroke-width="12.4108621"/>
      <path d="M628.591 16.05c.1.1.194.209.282.326l10.24 10.239a3.116 3.116 0 0 0-.283-.326zM628.873 16.376c.668.764.907 1.67.716 2.72l10.239 10.239c.19-1.05-.048-1.957-.716-2.72zM629.589 19.096 613.984 92.54l10.238 10.24 15.606-73.445z" stroke-width="12.4108621"/>
      <path d="M613.984 92.54h43.666l10.238 10.24h-43.666zM694.3 86.384c-.477 2.196-.477 4.009 0 5.44l10.239 10.239c-.477-1.432-.477-3.245 0-5.44zM694.3 91.825c.398 1.193.995 2.187 1.79 2.982l10.238 10.239c-.795-.796-1.392-1.79-1.79-2.983z" stroke-width="12.4108621"/>
      <path d="M696.09 94.807c.159.16.326.31.501.454l10.238 10.238a6.984 6.984 0 0 1-.5-.453zM696.591 95.26a11.16 11.16 0 0 0 3.865 1.862l10.24 10.239a11.18 11.18 0 0 1-3.867-1.862zM700.456 97.122a21.82 21.82 0 0 0 4.295.43l10.239 10.238c-1.432 0-2.863-.144-4.295-.43z" stroke-width="12.4108621"/>
      <path d="M704.75 97.551c2.865 0 5.203-.287 7.017-.859l10.238 10.239c-1.813.572-4.152.86-7.015.86zM711.767 96.692c1.813-.572 3.388-1.384 4.724-2.434l10.239 10.24c-1.337 1.049-2.911 1.86-4.725 2.433z" stroke-width="12.4108621"/>
      <path d="M716.49 94.258c1.241-.859 2.1-1.384 2.578-1.574l10.238 10.238c-.477.191-1.336.716-2.576 1.575z" stroke-width="12.4108621"/>
      <path d="M719.068 92.684c.573-.287 1.432-.43 2.577-.43l10.239 10.239c-1.146 0-2.005.142-2.578.43z" stroke-width="12.4108621"/>
      <path d="M721.645 92.254h18.612l10.238 10.239h-18.611z" stroke-width="12.4108621"/>
      <path d="M740.257 92.254c.945 0 1.628.213 2.05.638l10.24 10.239c-.423-.426-1.107-.638-2.052-.638z" stroke-width="12.4108621"/>
      <path d="M742.308 92.892c.517.52.645 1.357.382 2.512l10.24 10.238c.262-1.154.134-1.992-.383-2.511z" stroke-width="12.4108621"/>
      <path d="M742.69 95.404c-.191 1.145-1.05 2.91-2.577 5.297l10.239 10.239c1.527-2.386 2.386-4.152 2.577-5.298z" stroke-width="12.4108621"/>
      <path d="M740.113 100.7c-1.527 2.292-3.913 4.678-7.158 7.16l10.238 10.238c3.245-2.482 5.632-4.867 7.159-7.158z" stroke-width="12.4108621"/>
      <path d="M732.955 107.86c-3.15 2.385-7.254 4.485-12.312 6.298l10.239 10.24c5.058-1.815 9.162-3.914 12.311-6.3z" stroke-width="12.4108621"/>
      <path d="M720.643 114.158c-5.059 1.814-11.263 2.72-18.612 2.72l10.239 10.24c7.348 0 13.552-.907 18.612-2.72z" stroke-width="12.4108621"/>
      <path d="M702.03 116.878c-5.534 0-10.545-.954-15.031-2.863l10.238 10.24c4.486 1.908 9.497 2.862 15.033 2.862z" stroke-width="12.4108621"/>
      <path d="M686.999 114.015c-3.545-1.618-6.591-3.703-9.14-6.254l10.239 10.24c2.548 2.55 5.595 4.634 9.139 6.253z" stroke-width="12.4108621"/>
      <path d="M677.859 107.761a28.567 28.567 0 0 1-1.74-1.906l10.238 10.239a28.286 28.286 0 0 0 1.74 1.906z" stroke-width="12.4108621"/>
      <path d="M676.118 105.855c-2.863-3.531-4.868-7.731-6.013-12.599l10.238 10.239c1.146 4.868 3.15 9.067 6.014 12.599z" stroke-width="12.4108621"/>
      <path d="M670.105 93.256c-1.05-4.963-.906-10.45.43-16.464l10.238 10.239c-1.336 6.013-1.479 11.5-.43 16.464zM670.535 76.792c1.145-5.536 2.91-10.594 5.296-15.175l10.24 10.238c-2.387 4.582-4.152 9.64-5.298 15.176z" stroke-width="12.4108621"/>
      <path d="M675.831 61.617c2.387-4.582 5.44-8.495 9.163-11.74l10.239 10.239c-3.722 3.245-6.776 7.158-9.163 11.74z" stroke-width="12.4108621"/>
      <path d="M684.994 49.877c3.722-3.34 8.113-5.87 13.172-7.588l10.239 10.239c-5.06 1.718-9.45 4.247-13.172 7.588z" stroke-width="12.4108621"/>
      <path d="M698.166 42.29c5.058-1.814 10.88-2.721 17.466-2.721l10.239 10.239c-6.587 0-12.408.906-17.466 2.72z" stroke-width="12.4108621"/>
      <path d="M715.632 39.569c6.3 0 11.644 1.193 16.034 3.58l10.24 10.238c-4.392-2.386-9.737-3.58-16.035-3.58z" stroke-width="12.4108621"/>
      <path d="M731.666 43.148c3.031 1.548 5.647 3.422 7.851 5.623l10.238 10.239c-2.203-2.201-4.82-4.076-7.85-5.623z" stroke-width="12.4108621"/>
      <path d="M739.517 48.771a27.35 27.35 0 0 1 2.886 3.397l10.24 10.238a27.289 27.289 0 0 0-2.888-3.396zM742.403 52.168c2.673 3.722 4.392 7.921 5.155 12.598l10.238 10.239c-.763-4.677-2.48-8.876-5.154-12.599z" stroke-width="12.4108621"/>
      <path d="M747.558 64.766a35.06 35.06 0 0 1-.144 13.744l10.24 10.239a35.06 35.06 0 0 0 .142-13.744zM747.414 78.51l-.859 4.009 10.24 10.238.858-4.008zM746.555 82.519c-.19 1.05-.763 1.956-1.717 2.72l10.238 10.239c.955-.764 1.527-1.67 1.718-2.72z" stroke-width="12.4108621"/>
      <path d="M744.838 85.239c-.86.764-1.814 1.145-2.864 1.145l10.239 10.239c1.05 0 2.004-.382 2.863-1.145z" stroke-width="12.4108621"/>
      <path d="M741.974 86.384H694.3l10.238 10.239h47.674zM712.912 58.896c-4.01 0-7.302 1.193-9.878 3.58l10.238 10.238c2.577-2.386 5.87-3.579 9.879-3.579zM703.034 62.476c-2.578 2.386-4.392 5.058-5.44 8.017L707.83 80.73c1.05-2.958 2.864-5.63 5.44-8.017z" stroke-width="12.4108621"/>
      <path d="M697.593 70.493h25.77l10.239 10.238h-25.77zM723.363 70.493c.287-2.959-.43-5.631-2.148-8.017l10.24 10.238c1.717 2.386 2.433 5.059 2.147 8.017z" stroke-width="12.4108621"/>
      <path d="M721.215 62.476a7.381 7.381 0 0 0-.892-1.08l10.24 10.24c.327.327.625.686.891 1.078z" stroke-width="12.4108621"/>
      <path d="M720.323 61.397c-1.67-1.667-4.141-2.5-7.411-2.5l10.239 10.238c3.27 0 5.74.833 7.411 2.5zM712.912 58.896l10.239 10.24zM799.24 93.113c.192-1.05 0-1.861-.572-2.434l10.239 10.24c.572.572.764 1.382.572 2.433z" stroke-width="12.4108621"/>
      <path d="M798.668 90.68a2.337 2.337 0 0 0-.13-.141l10.239 10.238c.045.047.089.094.13.141z" stroke-width="12.4108621"/>
      <path d="M798.538 90.539c-.602-.602-1.656-1.08-3.163-1.435l10.238 10.239c1.508.355 2.562.833 3.164 1.434zM795.375 89.104c-1.622-.477-3.817-.906-6.586-1.288l10.24 10.238c2.767.382 4.962.812 6.584 1.289z" stroke-width="12.4108621"/>
      <path d="M788.79 87.816a608.05 608.05 0 0 1-10.165-1.861l10.238 10.238c4.01.764 7.398 1.384 10.165 1.861zM778.625 85.955c-5.886-1.114-10.347-3.188-13.382-6.224L775.48 89.97c3.036 3.035 7.497 5.11 13.382 6.223z" stroke-width="12.4108621"/>
      <path d="M765.243 79.731a15.835 15.835 0 0 1-1.651-1.937l10.239 10.239c.493.684 1.043 1.33 1.65 1.937z" stroke-width="12.4108621"/>
      <path d="M763.592 77.794c-2.959-4.104-3.77-9.4-2.434-15.891l10.24 10.238c-1.337 6.49-.526 11.788 2.433 15.892z" stroke-width="12.4108621"/>
      <path d="M761.158 61.903c.668-3.245 1.861-6.204 3.58-8.876l10.239 10.238c-1.719 2.673-2.912 5.631-3.58 8.876z" stroke-width="12.4108621"/>
      <path d="M764.738 53.027c1.813-2.768 4.199-5.154 7.158-7.159l10.238 10.239c-2.958 2.004-5.345 4.39-7.157 7.158z" stroke-width="12.4108621"/>
      <path d="M771.896 45.868c3.055-2.004 6.729-3.531 11.024-4.58l10.238 10.238c-4.295 1.05-7.97 2.577-11.024 4.58zM782.92 41.287c4.295-1.145 9.306-1.718 15.032-1.718l10.239 10.239c-5.727 0-10.737.572-15.033 1.718zM797.952 39.569c4.677 0 9.02.62 13.028 1.861l10.238 10.239c-4.007-1.241-8.35-1.861-13.027-1.861z" stroke-width="12.4108621"/>
      <path d="M810.98 41.43c4.008 1.146 7.445 2.673 10.308 4.582l10.239 10.238c-2.863-1.909-6.3-3.436-10.309-4.581zM821.288 46.012c1.61.987 3.009 2.072 4.195 3.257l10.24 10.239c-1.187-1.185-2.586-2.27-4.196-3.258z" stroke-width="12.4108621"/>
      <path d="M825.483 49.27a17.365 17.365 0 0 1 2.534 3.184l10.238 10.239a17.319 17.319 0 0 0-2.533-3.185z" stroke-width="12.4108621"/>
      <path d="M828.017 52.454c1.527 2.386 2.148 4.772 1.861 7.158l10.24 10.239c.285-2.386-.336-4.772-1.863-7.158zM829.878 59.612c-.19 1.05-.763 1.957-1.718 2.72l10.239 10.239c.955-.764 1.527-1.67 1.718-2.72zM828.16 62.332c-.86.764-1.813 1.146-2.863 1.146l10.239 10.238c1.05 0 2.004-.381 2.863-1.145z" stroke-width="12.4108621"/>
      <path d="M825.297 63.478H808.26l10.238 10.238h17.038z" stroke-width="12.4108621"/>
      <path d="M808.26 63.478c-1.05 0-1.86-.239-2.433-.716L816.065 73c.572.477 1.384.715 2.433.715zM805.827 62.762c-.478-.477-1.099-1.002-1.862-1.575l10.239 10.239c.763.572 1.384 1.097 1.86 1.575z" stroke-width="12.4108621"/>
      <path d="M803.965 61.187c-.764-.573-1.813-1.098-3.15-1.575l10.239 10.239c1.336.477 2.386 1.002 3.15 1.575z" stroke-width="12.4108621"/>
      <path d="M800.816 59.612c-1.242-.477-3.103-.716-5.584-.716l10.239 10.24c2.481 0 4.342.238 5.583.715z" stroke-width="12.4108621"/>
      <path d="M795.232 58.896c-2.196 0-4.104.334-5.727 1.003l10.24 10.238c1.621-.668 3.53-1.002 5.726-1.002z" stroke-width="12.4108621"/>
      <path d="M789.505 59.899c-1.527.572-2.433 1.574-2.72 3.006l10.24 10.239c.285-1.432 1.192-2.434 2.72-3.007zM786.785 62.905c-.287 1.05-.238 1.861.143 2.434l10.239 10.238c-.382-.572-.43-1.383-.143-2.433z" stroke-width="12.4108621"/>
      <path d="M786.928 65.339c.07.104.155.207.256.308l10.239 10.238a2.02 2.02 0 0 1-.256-.308z" stroke-width="12.4108621"/>
      <path d="M787.184 65.647c.455.454 1.229.876 2.321 1.267l10.24 10.238c-1.094-.39-1.868-.812-2.322-1.267z" stroke-width="12.4108621"/>
      <path d="M789.505 66.914c1.336.381 3.246.811 5.727 1.288l10.239 10.239c-2.482-.477-4.39-.907-5.727-1.289z" stroke-width="12.4108621"/>
      <path d="M795.232 68.202c2.481.382 5.774.907 9.878 1.575l10.24 10.239c-4.105-.669-7.398-1.193-9.88-1.575z" stroke-width="12.4108621"/>
      <path d="M805.11 69.777c4.2.764 7.683 1.909 10.452 3.436L825.8 83.452c-2.768-1.527-6.251-2.673-10.45-3.436zM815.562 73.213c1.8.993 3.338 2.128 4.613 3.404l10.238 10.238c-1.275-1.276-2.813-2.41-4.613-3.403z" stroke-width="12.4108621"/>
      <path d="M820.175 76.617a16.041 16.041 0 0 1 1.83 2.18l10.237 10.238a15.972 15.972 0 0 0-1.829-2.18zM822.004 78.796c1.623 2.1 2.625 4.486 3.006 7.159l10.24 10.238c-.383-2.672-1.385-5.058-3.008-7.158z" stroke-width="12.4108621"/>
      <path d="M825.01 85.955c.382 2.577.287 5.297-.286 8.16l10.238 10.239c.574-2.863.668-5.584.287-8.161z" stroke-width="12.4108621"/>
      <path d="M824.724 94.115a25.817 25.817 0 0 1-3.722 9.02l10.238 10.238a25.805 25.805 0 0 0 3.722-9.02z" stroke-width="12.4108621"/>
      <path d="M821.002 103.134c-1.814 2.769-4.343 5.202-7.588 7.302l10.239 10.239c3.244-2.1 5.774-4.534 7.587-7.302zM813.414 110.436c-3.15 2.005-7.11 3.58-11.883 4.724l10.24 10.24c4.77-1.146 8.732-2.721 11.882-4.725z" stroke-width="12.4108621"/>
      <path d="M801.531 115.16c-4.677 1.146-10.212 1.718-16.607 1.718l10.239 10.24c6.394 0 11.93-.573 16.607-1.719z" stroke-width="12.4108621"/>
      <path d="M784.924 116.878c-5.058 0-9.64-.62-13.744-1.86l10.24 10.238c4.103 1.24 8.684 1.861 13.743 1.861z" stroke-width="12.4108621"/>
      <path d="M771.18 115.017c-4.104-1.336-7.588-3.006-10.451-5.01l10.239 10.238c2.863 2.004 6.347 3.675 10.451 5.011z" stroke-width="12.4108621"/>
      <path d="M760.729 110.006a28.278 28.278 0 0 1-3.794-3.15l10.24 10.24a28.278 28.278 0 0 0 3.793 3.15z" stroke-width="12.4108621"/>
      <path d="M756.935 106.857a20.495 20.495 0 0 1-2.792-3.436l10.238 10.238a20.508 20.508 0 0 0 2.793 3.437zM754.143 103.421c-1.431-2.386-2.003-4.724-1.718-7.015l10.24 10.238c-.287 2.29.285 4.63 1.716 7.015z" stroke-width="12.4108621"/>
      <path d="M752.425 96.406c.191-1.05.764-1.957 1.718-2.72l10.238 10.238c-.953.764-1.527 1.671-1.717 2.72zM754.143 93.686c.955-.764 1.957-1.146 3.006-1.146l10.24 10.24c-1.05 0-2.053.38-3.008 1.144z" stroke-width="12.4108621"/>
      <path d="M757.15 92.54h17.752l10.24 10.24h-17.754zM774.902 92.54c.888 0 1.538.205 1.948.615l10.238 10.24c-.409-.411-1.059-.616-1.947-.616z" stroke-width="12.4108621"/>
      <path d="M776.85 93.155c.075.075.141.156.2.244l10.238 10.24a1.472 1.472 0 0 0-.2-.245z" stroke-width="12.4108621"/>
      <path d="M777.05 93.4c.381.477.86 1.05 1.432 1.717l10.239 10.239a67.942 67.942 0 0 1-1.433-1.718z" stroke-width="12.4108621"/>
      <path d="M778.482 95.117c.668.573 1.622 1.145 2.863 1.719l10.239 10.238c-1.242-.573-2.195-1.145-2.863-1.718z" stroke-width="12.4108621"/>
      <path d="M781.345 96.836c1.336.477 3.436.715 6.3.715l10.237 10.24c-2.863 0-4.962-.24-6.298-.717z" stroke-width="12.4108621"/>
      <path d="M787.644 97.551c2.863 0 5.392-.381 7.588-1.145l10.239 10.238c-2.196.764-4.725 1.146-7.589 1.146z" stroke-width="12.4108621"/>
      <path d="M795.232 96.406c2.29-.764 3.627-1.861 4.008-3.293l10.24 10.239c-.383 1.431-1.719 2.529-4.01 3.292zM799.24 93.113l10.24 10.239zM879.557 93.113c.19-1.05 0-1.861-.573-2.434l10.24 10.24c.571.572.763 1.382.571 2.433z" stroke-width="12.4108621"/>
      <path d="M878.984 90.68a2.347 2.347 0 0 0-.13-.142l10.238 10.24c.046.046.09.092.131.14z" stroke-width="12.4108621"/>
      <path d="M878.854 90.538c-.602-.601-1.656-1.08-3.163-1.434l10.24 10.239c1.505.355 2.56.833 3.16 1.434zM875.691 89.104c-1.622-.477-3.817-.906-6.585-1.288l10.238 10.238c2.769.382 4.964.812 6.586 1.289z" stroke-width="12.4108621"/>
      <path d="M869.106 87.816a606.132 606.132 0 0 1-10.165-1.861l10.239 10.238c4.008.764 7.397 1.384 10.164 1.861zM858.94 85.955c-5.885-1.114-10.346-3.188-13.381-6.224l10.239 10.239c3.035 3.035 7.496 5.11 13.382 6.223z" stroke-width="12.4108621"/>
      <path d="M845.559 79.731a15.827 15.827 0 0 1-1.65-1.937l10.238 10.239c.493.684 1.043 1.33 1.65 1.937zM843.909 77.794c-2.959-4.104-3.77-9.4-2.435-15.891l10.24 10.238c-1.337 6.49-.526 11.788 2.433 15.892z" stroke-width="12.4108621"/>
      <path d="M841.474 61.903c.668-3.245 1.861-6.204 3.58-8.876l10.239 10.238c-1.719 2.673-2.912 5.631-3.58 8.876z" stroke-width="12.4108621"/>
      <path d="M845.054 53.027c1.814-2.768 4.2-5.154 7.158-7.159l10.238 10.239c-2.958 2.004-5.344 4.39-7.157 7.158zM852.212 45.868c3.055-2.004 6.729-3.531 11.024-4.58l10.238 10.238c-4.294 1.05-7.97 2.577-11.024 4.58zM863.236 41.287c4.295-1.145 9.306-1.718 15.033-1.718l10.238 10.239c-5.726 0-10.737.572-15.033 1.718zM878.269 39.569c4.676 0 9.019.62 13.028 1.861l10.238 10.239c-4.008-1.241-8.351-1.861-13.028-1.861Z" stroke-width="12.4108621"/>
      <path d="M891.297 41.43c4.008 1.146 7.444 2.673 10.307 4.582l10.239 10.238c-2.863-1.909-6.3-3.436-10.308-4.581zM901.604 46.012c1.611.987 3.009 2.072 4.195 3.257l10.24 10.239c-1.187-1.185-2.586-2.27-4.196-3.258z" stroke-width="12.4108621"/>
      <path d="M905.8 49.27a17.365 17.365 0 0 1 2.533 3.184l10.24 10.239a17.365 17.365 0 0 0-2.535-3.185zM908.333 52.454c1.527 2.386 2.148 4.772 1.861 7.158l10.24 10.239c.285-2.386-.335-4.772-1.862-7.158zM910.194 59.612c-.19 1.05-.763 1.957-1.718 2.72l10.239 10.239c.955-.764 1.527-1.67 1.718-2.72zM908.476 62.332c-.858.764-1.813 1.146-2.863 1.146l10.239 10.238c1.05 0 2.004-.381 2.863-1.145z" stroke-width="12.4108621"/>
      <path d="M905.613 63.478h-17.037l10.24 10.238h17.036zM888.576 63.478c-1.05 0-1.86-.239-2.433-.716L896.38 73c.573.477 1.384.715 2.434.715zM886.143 62.762c-.478-.477-1.098-1.002-1.861-1.575l10.238 10.239c.763.572 1.384 1.097 1.86 1.575z" stroke-width="12.4108621"/>
      <path d="M884.282 61.187c-.764-.573-1.814-1.098-3.15-1.575l10.238 10.239c1.337.477 2.386 1.002 3.15 1.575zM881.132 59.612c-1.241-.477-3.103-.716-5.583-.716l10.238 10.24c2.481 0 4.342.238 5.583.715z" stroke-width="12.4108621"/>
      <path d="M875.549 58.896c-2.196 0-4.105.334-5.728 1.003l10.24 10.238c1.622-.668 3.53-1.002 5.726-1.002z" stroke-width="12.4108621"/>
      <path d="M869.821 59.899c-1.527.572-2.433 1.574-2.72 3.006l10.24 10.239c.285-1.432 1.192-2.434 2.72-3.007zM867.101 62.905c-.286 1.05-.238 1.861.144 2.434l10.238 10.238c-.381-.572-.43-1.383-.143-2.433z" stroke-width="12.4108621"/>
      <path d="M867.245 65.339c.07.104.155.207.256.308l10.239 10.239a2.032 2.032 0 0 1-.257-.309z" stroke-width="12.4108621"/>
      <path d="M867.5 65.647c.456.454 1.229.877 2.321 1.267l10.24 10.238c-1.093-.39-1.867-.812-2.321-1.266z" stroke-width="12.4108621"/>
      <path d="M869.821 66.914c1.336.381 3.246.811 5.728 1.288l10.238 10.239c-2.482-.477-4.39-.907-5.727-1.289z" stroke-width="12.4108621"/>
      <path d="M875.549 68.202c2.48.382 5.774.907 9.878 1.575l10.238 10.239c-4.104-.669-7.397-1.193-9.878-1.575zM885.427 69.777c4.2.764 7.683 1.909 10.45 3.436l10.24 10.239c-2.769-1.527-6.252-2.673-10.452-3.436zM895.878 73.213c1.798.992 3.335 2.125 4.61 3.4l10.238 10.238c-1.275-1.274-2.81-2.407-4.61-3.4z" stroke-width="12.4108621"/>
      <path d="M900.487 76.613a16.016 16.016 0 0 1 1.833 2.183l10.24 10.239a16.156 16.156 0 0 0-1.834-2.184z" stroke-width="12.4108621"/>
      <path d="M902.32 78.796c1.623 2.1 2.625 4.486 3.007 7.159l10.238 10.238c-.381-2.672-1.384-5.058-3.006-7.158z" stroke-width="12.4108621"/>
      <path d="M905.327 85.955c.381 2.577.286 5.297-.287 8.16l10.238 10.239c.574-2.863.67-5.584.287-8.161z" stroke-width="12.4108621"/>
      <path d="M905.04 94.115a25.817 25.817 0 0 1-3.722 9.02l10.238 10.238a25.805 25.805 0 0 0 3.722-9.02z" stroke-width="12.4108621"/>
      <path d="M901.318 103.134c-1.814 2.769-4.343 5.202-7.588 7.302l10.239 10.239c3.245-2.1 5.774-4.534 7.587-7.302zM893.73 110.436c-3.15 2.005-7.11 3.58-11.883 4.724l10.24 10.24c4.772-1.146 8.732-2.721 11.882-4.725z" stroke-width="12.4108621"/>
      <path d="M881.847 115.16c-4.677 1.146-10.212 1.718-16.607 1.718l10.24 10.24c6.393 0 11.93-.573 16.606-1.719z" stroke-width="12.4108621"/>
      <path d="M865.24 116.878c-5.058 0-9.64-.62-13.744-1.86l10.24 10.238c4.103 1.24 8.684 1.861 13.743 1.861z" stroke-width="12.4108621"/>
      <path d="M851.496 115.017c-4.103-1.336-7.587-3.006-10.451-5.01l10.239 10.238c2.863 2.004 6.347 3.675 10.451 5.011z" stroke-width="12.4108621"/>
      <path d="M841.045 110.006a28.278 28.278 0 0 1-3.794-3.15l10.24 10.24a28.278 28.278 0 0 0 3.793 3.15z" stroke-width="12.4108621"/>
      <path d="M837.251 106.857a20.495 20.495 0 0 1-2.791-3.436l10.238 10.238a20.501 20.501 0 0 0 2.792 3.437zM834.46 103.421c-1.432-2.386-2.004-4.724-1.719-7.015l10.24 10.238c-.287 2.29.286 4.63 1.717 7.015z" stroke-width="12.4108621"/>
      <path d="M832.741 96.406c.191-1.05.764-1.957 1.719-2.72l10.238 10.238c-.954.764-1.527 1.671-1.718 2.72z" stroke-width="12.4108621"/>
      <path d="M834.46 93.686c.954-.764 1.956-1.146 3.006-1.146l10.238 10.24c-1.049 0-2.052.38-3.006 1.144z" stroke-width="12.4108621"/>
      <path d="M837.466 92.54h17.752l10.24 10.24h-17.754zM855.218 92.54c.89 0 1.538.205 1.948.615l10.24 10.24c-.411-.411-1.06-.616-1.949-.616z" stroke-width="12.4108621"/>
      <path d="M857.166 93.155c.075.075.141.156.2.244l10.24 10.24a1.575 1.575 0 0 0-.2-.245zM857.366 93.4c.381.477.86 1.05 1.432 1.717l10.239 10.239a65.66 65.66 0 0 1-1.432-1.718z" stroke-width="12.4108621"/>
      <path d="M858.798 95.117c.668.573 1.622 1.145 2.863 1.719l10.239 10.238c-1.24-.573-2.195-1.145-2.863-1.718z" stroke-width="12.4108621"/>
      <path d="M861.66 96.836c1.338.477 3.437.715 6.3.715l10.24 10.24c-2.865 0-4.964-.24-6.3-.717zM867.96 97.551c2.863 0 5.393-.381 7.589-1.145l10.238 10.238c-2.196.764-4.725 1.146-7.588 1.146z" stroke-width="12.4108621"/>
      <path d="M875.549 96.406c2.29-.764 3.626-1.861 4.008-3.293l10.238 10.239c-.382 1.431-1.718 2.529-4.008 3.292zM879.557 93.113l10.238 10.239z" stroke-width="12.4108621"/>
    </g>
    <path style="-inkscape-font-specification:&quot;Rubik Bold Italic&quot;;text-align:center" d="M-16.59 6.307q8.602 0 16.017 2.373 7.416 2.225 12.459 6.675 5.042 4.449 7.119 11.123 2.224 6.674.445 15.276-2.373 11.123-8.454 17.798Q4.915 66.077-4.43 69.933l10.975 35.299q.149.741 0 1.631-.296 1.335-1.483 2.373-1.038.89-2.373.89h-18.687q-2.966 0-4.004-1.335-1.039-1.335-1.484-2.67l-9.64-31.738h-15.128l-6.822 31.738q-.297 1.632-1.78 2.818-1.335 1.187-2.966 1.187H-77.25q-1.631 0-2.67-1.187-.89-1.186-.593-2.818l20.467-95.81q.297-1.63 1.632-2.817 1.483-1.187 3.114-1.187zm-24.768 44.939H-24.6q6.229 0 10.827-2.373 4.597-2.373 5.932-8.602 1.187-6.23-2.373-8.602-3.56-2.373-9.788-2.373h-16.76Zm89.58 28.773q-.741 3.41 0 5.635.742 2.225 2.373 3.56 1.78 1.335 4.005 1.928 2.224.445 4.449.445 4.45 0 7.267-.89 2.818-.89 4.895-2.521 1.928-1.335 2.67-1.632.89-.445 2.669-.445h19.28q3.263 0 2.522 3.263-.297 1.78-2.67 5.488-2.373 3.56-7.416 7.415-4.894 3.708-12.754 6.526-7.86 2.818-19.28 2.818-8.603 0-15.574-2.966-6.822-3.115-11.271-8.454-4.45-5.488-6.23-13.051-1.63-7.713.445-17.056 1.78-8.602 5.488-15.721 3.708-7.12 9.492-12.162 5.784-5.19 13.645-7.86 7.86-2.818 18.094-2.818 9.788 0 16.61 3.707 6.971 3.56 11.124 9.344 4.153 5.784 5.34 13.051 1.334 7.12-.149 14.238l-.89 4.153q-.297 1.632-1.78 2.818-1.334 1.187-2.966 1.187zm19.28-28.476q-6.228 0-10.233 3.707-4.004 3.708-5.636 8.306H78.33q.444-4.598-2.225-8.306-2.521-3.707-8.602-3.707zm91.657-18.54h18.243q1.631 0 2.521 1.187.89 1.187.593 2.818l-3.114 14.98q-.297 1.631-1.78 2.818-1.483 1.186-3.114 1.186h-18.243l-10.678 50.13q-.297 1.63-1.78 2.817-1.335 1.187-2.966 1.187h-18.688q-1.631 0-2.67-1.187-.89-1.186-.592-2.818l10.678-50.129h-10.233q-1.632 0-2.522-1.186-.89-1.187-.593-2.818l3.115-14.98q.296-1.631 1.78-2.818 1.482-1.186 3.114-1.186h10.233l.89-4.005q2.966-13.793 11.865-21.208Q154.117.375 170.283.375h15.573q1.631 0 2.52 1.187.89 1.186.594 2.817l-3.114 14.98q-.445 1.631-1.928 2.818-1.335 1.186-2.967 1.186h-13.348q-3.56 0-5.339 1.78-1.78 1.78-2.373 4.598zm86.615 0q1.631 0 2.521 1.187.89 1.187.593 2.818l-3.114 14.98q-.297 1.631-1.78 2.818-1.483 1.186-3.115 1.186h-13.496q-6.674 0-10.975 3.56-4.153 3.41-5.488 10.085l-7.86 36.484q-.297 1.632-1.78 2.818-1.335 1.187-2.966 1.187h-18.687q-1.632 0-2.67-1.187-.89-1.186-.593-2.818l14.683-69.113q.296-1.631 1.78-2.818 1.482-1.186 3.114-1.186h17.204q1.631 0 2.521 1.186.89 1.187.594 2.818l-.742 3.411q3.411-3.41 7.712-5.339 4.45-2.076 12.162-2.076zm27.289 47.016q-.742 3.41 0 5.635.742 2.225 2.373 3.56 1.78 1.335 4.004 1.928 2.225.445 4.45.445 4.45 0 7.267-.89 2.818-.89 4.894-2.521 1.928-1.335 2.67-1.632.89-.445 2.67-.445h19.28q3.263 0 2.521 3.263-.296 1.78-2.67 5.488-2.372 3.56-7.415 7.415-4.894 3.708-12.755 6.526-7.86 2.818-19.28 2.818-8.602 0-15.573-2.966-6.822-3.115-11.272-8.454-4.449-5.488-6.229-13.051-1.631-7.713.445-17.056 1.78-8.602 5.488-15.721 3.708-7.12 9.492-12.162 5.784-5.19 13.644-7.86 7.861-2.818 18.095-2.818 9.788 0 16.61 3.707 6.971 3.56 11.124 9.344 4.153 5.784 5.34 13.051 1.334 7.12-.15 14.238l-.89 4.153q-.296 1.632-1.779 2.818-1.335 1.187-2.966 1.187zm19.28-28.476q-6.229 0-10.233 3.707-4.004 3.708-5.636 8.306h26.696q.445-4.598-2.224-8.306-2.522-3.707-8.602-3.707zm89.433 35.446q.296-1.631-.594-2.521-.89-1.038-3.41-1.632-2.522-.741-6.823-1.334-4.301-.742-10.53-1.928-10.975-2.077-15.573-8.454-4.598-6.378-2.521-16.463 1.038-5.042 3.707-9.195 2.818-4.301 7.416-7.416 4.746-3.114 11.42-4.746 6.674-1.78 15.573-1.78 7.267 0 13.496 1.929 6.23 1.78 10.679 4.746 4.597 2.818 6.97 6.674 2.373 3.707 1.928 7.415-.296 1.632-1.78 2.818-1.334 1.187-2.966 1.187H391.12q-1.631 0-2.521-.742-.742-.741-1.928-1.631-1.187-.89-3.263-1.632-1.928-.741-5.784-.741-3.411 0-5.933 1.038-2.373.89-2.818 3.114-.444 1.632.149 2.522.593.89 2.67 1.631 2.076.593 5.932 1.335 3.856.593 10.233 1.631 6.526 1.187 10.827 3.56t6.674 5.784q2.522 3.263 3.115 7.416.593 4.004-.297 8.453-1.038 5.043-3.856 9.344-2.818 4.301-7.86 7.564-4.895 3.115-12.31 4.894-7.268 1.78-17.205 1.78-7.86 0-14.238-1.928-6.377-2.076-10.826-5.191-4.45-3.115-6.823-6.822-2.224-3.708-1.78-7.268.297-1.631 1.78-2.818 1.483-1.186 3.115-1.186h18.39q1.632 0 2.225.89.594.741 1.483 1.78 1.039.89 2.967 1.78 2.076.74 6.525.74 4.45 0 7.86-1.186 3.56-1.186 4.154-3.41zm114.645 19.132q-.297 1.632-1.78 2.818-1.335 1.187-2.966 1.187h-18.687q-1.632 0-2.67-1.187-.89-1.186-.593-2.818l8.009-37.522q1.334-6.378-1.039-10.234-2.224-3.856-8.898-3.856-6.674 0-10.53 3.856-3.857 3.856-5.191 10.234l-8.01 37.522q-.296 1.632-1.779 2.818-1.335 1.187-2.966 1.187h-18.687q-1.632 0-2.67-1.187-.89-1.186-.593-2.818L438.134 8.83q.297-1.632 1.632-2.818 1.483-1.187 3.114-1.187h18.688q1.631 0 2.52 1.187 1.04 1.186.742 2.818l-6.822 31.59q3.115-3.114 8.306-5.932 5.339-2.966 12.31-2.966 6.08 0 11.568 2.076 5.636 1.928 9.492 6.08 4.004 4.153 5.636 10.53 1.631 6.378-.149 15.129zm94.178-19.725q1.632 0 2.521 1.186.89 1.187.594 2.818l-3.411 15.721q-.297 1.632-1.78 2.818-1.335 1.187-2.966 1.187h-68.669q-1.631 0-2.67-1.187-.89-1.186-.593-2.818l20.467-95.81q.297-1.63 1.632-2.817 1.483-1.187 3.114-1.187h19.43q1.63 0 2.52 1.187 1.039 1.186.742 2.818l-16.166 76.084zm37.968-6.377q-.741 3.41 0 5.635.742 2.225 2.373 3.56 1.78 1.335 4.005 1.928 2.224.445 4.449.445 4.45 0 7.267-.89 2.818-.89 4.894-2.521 1.929-1.335 2.67-1.632.89-.445 2.67-.445h19.28q3.263 0 2.522 3.263-.297 1.78-2.67 5.488-2.373 3.56-7.416 7.415-4.894 3.708-12.754 6.526-7.861 2.818-19.281 2.818-8.602 0-15.573-2.966-6.822-3.115-11.272-8.454-4.449-5.488-6.229-13.051-1.631-7.713.445-17.056 1.78-8.602 5.488-15.721 3.708-7.12 9.492-12.162 5.784-5.19 13.645-7.86 7.86-2.818 18.094-2.818 9.788 0 16.61 3.707 6.971 3.56 11.124 9.344 4.153 5.784 5.34 13.051 1.334 7.12-.15 14.238l-.889 4.153q-.297 1.632-1.78 2.818-1.335 1.187-2.966 1.187zm19.28-28.476q-6.228 0-10.233 3.707-4.004 3.708-5.636 8.306h26.696q.445-4.598-2.224-8.306-2.522-3.707-8.602-3.707zm89.433 35.446q.296-1.631-.594-2.521-.89-1.038-3.41-1.632-2.522-.741-6.823-1.334-4.301-.742-10.53-1.928-10.975-2.077-15.573-8.454-4.598-6.378-2.521-16.463 1.038-5.042 3.707-9.195 2.818-4.301 7.416-7.416 4.746-3.114 11.42-4.746 6.674-1.78 15.573-1.78 7.267 0 13.496 1.929 6.23 1.78 10.679 4.746 4.597 2.818 6.97 6.674 2.373 3.707 1.928 7.415-.296 1.632-1.78 2.818-1.334 1.187-2.966 1.187h-17.649q-1.631 0-2.521-.742-.742-.741-1.928-1.631-1.187-.89-3.263-1.632-1.928-.741-5.784-.741-3.411 0-5.933 1.038-2.373.89-2.817 3.114-.445 1.632.148 2.522.593.89 2.67 1.631 2.076.593 5.932 1.335 3.856.593 10.233 1.631 6.526 1.187 10.827 3.56t6.674 5.784q2.522 3.263 3.115 7.416.593 4.004-.297 8.453-1.038 5.043-3.856 9.344-2.818 4.301-7.86 7.564-4.895 3.115-12.31 4.894-7.268 1.78-17.205 1.78-7.86 0-14.237-1.928-6.378-2.076-10.827-5.191-4.45-3.115-6.823-6.822-2.224-3.708-1.78-7.268.297-1.631 1.78-2.818 1.484-1.186 3.115-1.186h18.39q1.632 0 2.225.89.594.741 1.483 1.78 1.039.89 2.967 1.78 2.076.74 6.525.74 4.45 0 7.86-1.186 3.56-1.186 4.154-3.41zm83.203 0q.296-1.631-.593-2.521-.89-1.038-3.412-1.632-2.52-.741-6.822-1.334-4.301-.742-10.53-1.928-10.975-2.077-15.573-8.454-4.598-6.378-2.521-16.463 1.038-5.042 3.708-9.195 2.818-4.301 7.415-7.416 4.746-3.114 11.42-4.746 6.674-1.78 15.573-1.78 7.267 0 13.496 1.929 6.23 1.78 10.679 4.746 4.598 2.818 6.97 6.674 2.374 3.707 1.929 7.415-.297 1.632-1.78 2.818-1.335 1.187-2.966 1.187h-17.65q-1.63 0-2.52-.742-.742-.741-1.929-1.631-1.186-.89-3.263-1.632-1.928-.741-5.784-.741-3.411 0-5.932 1.038-2.373.89-2.818 3.114-.445 1.632.148 2.522.593.89 2.67 1.631 2.076.593 5.932 1.335 3.856.593 10.234 1.631 6.525 1.187 10.826 3.56t6.674 5.784q2.522 3.263 3.115 7.416.593 4.004-.297 8.453-1.038 5.043-3.856 9.344-2.818 4.301-7.86 7.564-4.895 3.115-12.31 4.894-7.267 1.78-17.204 1.78-7.86 0-14.238-1.928-6.378-2.076-10.827-5.191-4.45-3.115-6.822-6.822-2.225-3.708-1.78-7.268.296-1.631 1.78-2.818 1.483-1.186 3.114-1.186h18.39q1.632 0 2.225.89.594.741 1.484 1.78 1.038.89 2.966 1.78 2.076.74 6.526.74 4.449 0 7.86-1.186 3.56-1.186 4.153-3.41z" aria-label="RefreshLess" font-style="italic" font-weight="700" font-size="148.312" font-family="Rubik" text-anchor="middle" fill="#ff7c00" stroke="#0076ff" stroke-width="12.857" stroke-linejoin="bevel" transform="translate(87.543 9.142) scale(.9653)"/>
  </g>
</svg>
